<?xml version="1.0" standalone="no"?>
<!DOCTYPE svg PUBLIC "-//W3C//DTD SVG 1.1//EN" "http://www.w3.org/Graphics/SVG/1.1/DTD/svg11.dtd" >
<svg>
<metadata>
Created by FontForge 20090622 at Thu May  9 15:17:16 2019
 By deploy user
KhmerOS Kien Svay - font for the Khmer language of Cambodia
Copyright 2007 Tim Chan Rithy
Copyright 2007 Open Institute
 
This font is free software; you can redistribute it and/or modify it under the terms of the GNU Lesser General Public License as published by the Free Software Foundation; either version 2.1 of the License, or (at your option) any later version.

This library is distributed in the hope that it will be useful, but WITHOUT ANY WARRANTY; without even the implied warranty of MERCHANTABILITY or FITNESS FOR A PARTICULAR PURPOSE.? See the GNU Lesser General Public License for more details.

You should have received a copy of the GNU Lesser General Public License along with this font; if not, write to the Free Software Foundation, Inc., 51 Franklin Street, Fifth Floor, Boston, MA 02110-1301  USA or visit http://www.gnu.org/licenses/lgpl.html
</metadata>
<defs>
<font id="KhmerOSKienSvay" horiz-adv-x="0" >
  <font-face 
    font-family="Khmer OS Kien Svay"
    font-weight="400"
    font-stretch="normal"
    units-per-em="2048"
    panose-1="2 0 5 6 0 0 0 2 0 4"
    ascent="1638"
    descent="-410"
    x-height="1117"
    cap-height="1489"
    bbox="-1699 -1443 3372 2788"
    underline-thickness="130"
    underline-position="-105"
    unicode-range="U+0020-U+25CC"
  />
<missing-glyph horiz-adv-x="2048" 
d="M256 0v1536h1536v-1536h-1536zM384 128h1280v1280h-1280v-1280z" />
    <glyph glyph-name=".notdef" horiz-adv-x="2048" 
d="M256 0v1536h1536v-1536h-1536zM384 128h1280v1280h-1280v-1280z" />
    <glyph glyph-name=".null" 
 />
    <glyph glyph-name="nonmarkingreturn" horiz-adv-x="640" 
 />
    <glyph glyph-name="space" unicode=" " horiz-adv-x="640" 
 />
    <glyph glyph-name="exclam" unicode="!" horiz-adv-x="680" 
d="M452 1489l-28 -1079h-166l-30 1079h224zM442 0h-204v211h204v-211z" />
    <glyph glyph-name="quotedbl" unicode="&#x22;" horiz-adv-x="822" 
d="M708 1556l-43 -579h-132l-43 579h218zM332 1556l-43 -579h-132l-43 579h218z" />
    <glyph glyph-name="numbersign" unicode="#" horiz-adv-x="1490" 
d="M1348 932h-293l-92 -376h268v-135h-303l-105 -421h-129l105 421h-270l-105 -421h-129l105 421h-258v135h293l92 376h-268v135h303l105 422h129l-105 -422h270l105 422h129l-105 -422h258v-135zM929 934h-274l-94 -380h274z" />
    <glyph glyph-name="dollar" unicode="$" horiz-adv-x="1118" 
d="M1024 380q0 -147 -112.5 -252.5t-283.5 -126.5v-362h-114v357q-108 1 -217.5 25t-190.5 64v202h15q79 -59 178 -96t215 -47v432l-61 14.5t-61 16.5q-150 41 -214.5 124t-64.5 204q0 142 111 247t290 122v272h114v-270q91 -3 188.5 -25.5t159.5 -49.5v-198h-15
q-70 48 -153.5 84t-179.5 44v-430q33 -7 61.5 -14.5t49.5 -12.5q136 -32 210.5 -111t74.5 -213zM514 746v414q-90 -8 -151 -58.5t-61 -140.5q0 -89 44.5 -137.5t167.5 -77.5zM835 354q0 94 -48 139t-159 68v-415q102 12 154.5 61.5t52.5 146.5z" />
    <glyph glyph-name="percent" unicode="%" horiz-adv-x="2000" 
d="M807 1076q0 -225 -90.5 -333.5t-261.5 -108.5q-174 0 -263.5 110t-89.5 331q0 224 91 333t262 109q174 0 263 -110t89 -331zM1473 1489l-780 -1489h-165l780 1489h165zM1897 413q0 -225 -90.5 -333.5t-261.5 -108.5q-174 0 -263.5 110t-89.5 331q0 224 91 333t262 109
q174 0 263 -110t89 -331zM629 1076q0 152 -35.5 230t-138.5 78t-139 -79t-36 -230q0 -150 34 -229t141 -79q103 0 138.5 79t35.5 230zM1719 413q0 152 -35.5 230t-138.5 78t-139 -79t-36 -230q0 -150 34 -229t141 -79q103 0 138.5 79t35.5 230z" />
    <glyph glyph-name="ampersand" unicode="&#x26;" horiz-adv-x="1380" 
d="M1445 0h-256l-204 213q-102 -130 -209.5 -187t-243.5 -57q-202 0 -333.5 121.5t-131.5 318.5q0 86 24 153t64 121q39 52 90 91.5t98 68.5q-101 68 -151 143t-50 189q0 71 28.5 131.5t74.5 106.5q48 47 124.5 77t167.5 30q166 0 271 -87.5t105 -221.5q0 -49 -12.5 -101.5
t-45.5 -101.5t-86.5 -92t-142.5 -75l352 -362q14 82 17 178.5t3 251.5h195v-96q0 -96 -24.5 -216.5t-80.5 -228.5zM898 301l-460 471q-25 -16 -50 -38t-55 -66q-24 -35 -42.5 -91.5t-18.5 -119.5q0 -142 84.5 -233.5t228.5 -91.5q96 0 173 40.5t140 128.5zM532 912
q56 19 92.5 51t56.5 70q18 35 27 74t9 84q0 97 -56.5 150t-131.5 53q-89 0 -140 -60t-51 -150q0 -40 7.5 -68.5t31.5 -66.5q21 -31 58.5 -66t96.5 -71z" />
    <glyph glyph-name="quotesingle" unicode="'" horiz-adv-x="432" 
d="M327 1556l-43 -579h-136l-43 579h222z" />
    <glyph glyph-name="parenleft" unicode="(" horiz-adv-x="784" 
d="M710 -412h-229q-174 207 -273.5 438t-99.5 546q0 308 98.5 542.5t274.5 441.5h229v-10q-81 -73 -154.5 -168.5t-136.5 -222.5q-60 -123 -97.5 -271t-37.5 -312q0 -171 36.5 -313t98.5 -270q60 -123 137 -222.5t154 -168.5v-10z" />
    <glyph glyph-name="parenright" unicode=")" horiz-adv-x="784" 
d="M676 572q0 -309 -99 -543t-274 -441h-229v10q77 69 155 169.5t136 221.5q62 129 98.5 272.5t36.5 310.5q0 165 -37 312t-98 271t-138 223t-153 168v10h229q174 -207 273.5 -440t99.5 -544z" />
    <glyph glyph-name="asterisk" unicode="*" horiz-adv-x="1118" 
d="M1007 887l-65 -110l-327 217l7 -364h-125l6 364l-325 -218l-66 110l354 207l-354 207l66 110l326 -219l-7 365h125l-8 -365l328 218l65 -110l-354 -205z" />
    <glyph glyph-name="plus" unicode="+" horiz-adv-x="1490" 
d="M1333 572h-505v-505h-166v505h-505v160h505v505h166v-505h505v-160z" />
    <glyph glyph-name="comma" unicode="," horiz-adv-x="620" 
d="M500 285l-280 -655h-146l176 655h250z" />
    <glyph glyph-name="hyphen" unicode="-" horiz-adv-x="744" 
d="M654 561h-564v181h564v-181z" />
    <glyph glyph-name="period" unicode="." horiz-adv-x="620" 
d="M429 0h-239v285h239v-285z" />
    <glyph glyph-name="slash" unicode="/" horiz-adv-x="783" 
d="M728 1556l-583 -1880h-169l580 1880h172z" />
    <glyph glyph-name="zero" unicode="0" horiz-adv-x="1118" 
d="M1035 745q0 -401 -116.5 -588.5t-359.5 -187.5q-246 0 -361 191t-115 583q0 403 116.5 589.5t359.5 186.5q246 0 361 -193t115 -581zM779 291q29 74 41 187t12 267q0 153 -12 266t-42 188q-30 76 -82.5 115.5t-136.5 39.5q-83 0 -136.5 -39.5t-84.5 -117.5
q-30 -76 -41 -192t-11 -262q0 -156 9.5 -261t41.5 -188q29 -77 82.5 -118.5t139.5 -41.5q83 0 136.5 39.5t83.5 117.5z" />
    <glyph glyph-name="one" unicode="1" horiz-adv-x="1118" 
d="M952 0h-726v152h270v998h-270v136q153 0 225.5 43.5t81.5 164.5h155v-1342h264v-152z" />
    <glyph glyph-name="two" unicode="2" horiz-adv-x="1118" 
d="M1028 0h-919v209l187 180t172 179q170 187 232 299.5t62 232.5q0 62 -19.5 109t-53.5 78q-35 30 -81 45t-101 15q-53 0 -107.5 -13.5t-104.5 -33.5q-42 -17 -81 -41t-63 -41h-11v212q62 31 172.5 60.5t209.5 29.5q208 0 326 -110.5t118 -299.5q0 -87 -20.5 -161
t-56.5 -137q-37 -65 -89 -129t-110 -126q-94 -102 -209.5 -212l-184.5 -174h732v-171z" />
    <glyph glyph-name="three" unicode="3" horiz-adv-x="1118" 
d="M511 1347q-54 0 -108 -13t-106 -34q-48 -20 -83.5 -42t-63.5 -41h-12v211q65 35 176.5 63.5t212.5 28.5t176.5 -20.5t136.5 -63.5q66 -48 99.5 -116t33.5 -159q0 -123 -81 -216t-194 -118v-14q47 -9 100.5 -31t99.5 -65t75 -110.5t29 -164.5q0 -101 -34.5 -185.5
t-97.5 -149.5q-65 -68 -157 -103t-209 -35q-112 0 -222 27t-185 65v211h14q63 -46 169 -88t212 -42q61 0 122.5 19.5t102.5 63.5q40 44 61 97t21 134t-23.5 133t-65.5 82t-99.5 41.5t-124.5 11.5h-85v166h66q135 0 219.5 64t84.5 186q0 56 -22 96.5t-56 64.5q-38 26 -84 36
t-98 10z" />
    <glyph glyph-name="four" unicode="4" horiz-adv-x="1118" 
d="M1067 512h-177v-512h-192v512h-658v210l666 767h184v-817h177v-160zM698 672v582l-502 -582h502z" />
    <glyph glyph-name="five" unicode="5" horiz-adv-x="1118" 
d="M1011 474q0 -108 -34.5 -200t-96.5 -159q-63 -68 -156.5 -107t-209.5 -39q-107 0 -210.5 23.5t-179.5 61.5v211h14q23 -17 66 -38.5t95 -40.5q59 -21 108 -32.5t110 -11.5q60 0 117 21.5t98 69.5q37 44 56.5 103t19.5 139q0 79 -21.5 130t-62.5 84q-43 38 -105.5 53.5
t-139.5 15.5q-81 0 -163 -12.5t-131 -23.5v767h817v-175h-624v-396q36 4 71 6t64 2q114 0 193 -19t152 -74q74 -56 113.5 -140t39.5 -219z" />
    <glyph glyph-name="six" unicode="6" horiz-adv-x="1118" 
d="M1051 483q0 -115 -38 -212t-102 -162q-67 -69 -150 -104.5t-183 -35.5q-101 0 -183.5 34t-145.5 101q-77 81 -120.5 216.5t-43.5 333.5q0 194 40 350.5t123 272.5q81 113 209 176.5t296 63.5q50 0 93 -5t76 -16v-191h-9q-27 15 -78 27.5t-109 12.5q-186 0 -300.5 -125.5
t-135.5 -372.5q71 50 146 77t164 27q87 0 152.5 -17.5t136.5 -70.5q82 -62 122 -157t40 -223zM848 475q0 92 -24 154t-78 106q-39 32 -88.5 42t-101.5 10q-70 0 -136 -21t-130 -61q-2 -22 -3 -42.5t-1 -51.5q0 -155 30.5 -250t75.5 -144q43 -47 88.5 -66t98.5 -19
q120 0 194.5 86t74.5 257z" />
    <glyph glyph-name="seven" unicode="7" horiz-adv-x="1118" 
d="M1044 1266l-644 -1266h-213l682 1314h-770v175h945v-223z" />
    <glyph glyph-name="eight" unicode="8" horiz-adv-x="1118" 
d="M811 1142q0 100 -67 167t-186 67q-109 0 -178.5 -60t-69.5 -162q0 -74 35.5 -125t106.5 -92q31 -17 94.5 -47t115.5 -47q87 67 118 137.5t31 161.5zM839 396q0 92 -36 146t-139 110q-34 19 -90.5 41l-127.5 52q-83 -55 -127 -135.5t-44 -183.5q0 -135 81.5 -223
t204.5 -88q126 0 202 75.5t76 205.5zM559 -34q-111 0 -202 33t-155 95q-63 60 -95.5 142.5t-32.5 174.5q0 121 64.5 222.5t187.5 161.5v6q-110 64 -163 140t-53 190q0 168 127 280t322 112q203 0 325.5 -106.5t122.5 -272.5q0 -100 -58.5 -198t-168.5 -153v-6
q130 -61 197 -148t67 -224q0 -191 -138.5 -320t-346.5 -129z" />
    <glyph glyph-name="nine" unicode="9" horiz-adv-x="1118" 
d="M832 877q0 152 -28 247.5t-77 147.5q-44 48 -89 66t-99 18q-123 0 -196 -88t-73 -255q0 -94 24 -155t78 -105q38 -31 86 -41.5t103 -10.5q64 0 138 22.5t129 59.5q1 15 2.5 39.5t1.5 54.5zM67 1005q0 115 37.5 210t102.5 164q62 66 151.5 103t181.5 37q103 0 186.5 -34.5
t144.5 -99.5q77 -82 119.5 -215t42.5 -336q0 -185 -41.5 -350.5t-122.5 -274.5q-86 -116 -206.5 -177t-297.5 -61q-40 0 -85 4.5t-84 16.5v191h10q25 -14 78 -27t108 -13q196 0 308 129t127 369q-80 -54 -152.5 -79t-157.5 -25q-83 0 -151 18t-137 70q-80 61 -121 154.5
t-41 225.5z" />
    <glyph glyph-name="colon" unicode=":" horiz-adv-x="724" 
d="M482 832h-239v285h239v-285zM482 0h-239v285h239v-285z" />
    <glyph glyph-name="semicolon" unicode=";" horiz-adv-x="724" 
d="M482 832h-239v285h239v-285zM548 285l-280 -655h-146l176 655h250z" />
    <glyph glyph-name="less" unicode="&#x3c;" horiz-adv-x="1490" 
d="M1275 79l-1074 513v120l1074 513v-178l-833 -395l833 -395v-178z" />
    <glyph glyph-name="equal" unicode="=" horiz-adv-x="1490" 
d="M1298 782h-1106v160h1106v-160zM1298 362h-1106v160h1106v-160z" />
    <glyph glyph-name="greater" unicode="&#x3e;" horiz-adv-x="1490" 
d="M1289 592l-1074 -513v178l833 395l-833 395v178l1074 -513v-120z" />
    <glyph glyph-name="question" unicode="?" horiz-adv-x="970" 
d="M912 1139q0 -98 -32.5 -174.5t-86.5 -134.5t-122.5 -107t-144.5 -95v-228h-179v305l130.5 81.5t116.5 88.5q54 51 84 111.5t30 137.5q0 113 -71 168.5t-185 55.5q-100 0 -188.5 -33.5t-143.5 -69.5h-11v204q67 27 169 48.5t193 21.5q205 0 323 -104.5t118 -275.5zM542 0
h-204v211h204v-211z" />
    <glyph glyph-name="at" unicode="@" horiz-adv-x="1862" 
d="M1739 663q0 -139 -38 -268.5t-109 -237.5h-421l-25 116q-67 -57 -123.5 -90.5t-153.5 -33.5q-154 0 -252 123.5t-98 358.5t120.5 366t275.5 131q72 0 124 -18t105 -48v48h159v-842h227q38 71 54.5 184t16.5 205q0 327 -166.5 526.5t-478.5 199.5q-296 0 -488.5 -215.5
t-192.5 -522.5q0 -330 187 -534.5t489 -204.5q81 0 170.5 11t169.5 35v-142q-84 -20 -170.5 -28t-170.5 -8q-354 0 -586 243t-232 630q0 367 239.5 619t583.5 252q368 0 576 -237.5t208 -617.5zM1142 408v518q-56 29 -103 41.5t-98 12.5q-113 0 -182 -84.5t-69 -261.5
q0 -160 52 -245t166 -85q61 0 120.5 29t113.5 75z" />
    <glyph glyph-name="A" unicode="A" horiz-adv-x="1228" 
d="M-10 0l502 1489h244l502 -1489h-209l-135 416h-569l-135 -416h-200zM839 585l-230 702l-229 -702h459z" />
    <glyph glyph-name="B" unicode="B" horiz-adv-x="1207" 
d="M1161 457q0 -111 -42 -196t-113 -140q-84 -66 -180 -93.5t-248 -27.5h-427v1489h395q159 0 238.5 -10.5t152.5 -49.5q80 -43 117 -112.5t37 -163.5q0 -105 -55.5 -188t-153.5 -130v-8q133 -36 206 -131.5t73 -238.5zM885 1125q0 54 -18 93.5t-58 62.5q-48 27 -107 33
t-163 6h-190v-436h225q93 0 137 9.5t91 39.5q45 29 64 76t19 116zM955 449q0 84 -24 138.5t-97 92.5q-47 25 -102.5 32t-157.5 7h-225v-550h161q130 0 205 12t132 51q56 39 82 88.5t26 128.5z" />
    <glyph glyph-name="C" unicode="C" horiz-adv-x="1230" 
d="M733 -27q-146 0 -268.5 49t-211.5 146t-138 242t-49 333q0 187 47.5 326t138.5 242q89 100 211 152.5t273 52.5q75 0 140.5 -11t121.5 -28q48 -15 98.5 -37.5t99.5 -49.5v-239h-16q-26 24 -67 58t-100 67q-57 31 -124 51t-155 20q-95 0 -180 -39t-149 -115
q-63 -76 -98 -191t-35 -259q0 -153 37 -263.5t101 -186.5q62 -74 146 -111.5t178 -37.5q86 0 159 21t130 53q55 31 95 63.5t63 55.5h15v-236l-92.5 -44t-105.5 -41q-65 -21 -120.5 -32t-144.5 -11z" />
    <glyph glyph-name="D" unicode="D" horiz-adv-x="1389" 
d="M1325 743q0 -204 -82.5 -368t-221.5 -256q-113 -71 -229.5 -95t-297.5 -24h-343v1489h339q210 0 329.5 -31.5t203.5 -86.5q144 -95 223 -252.5t79 -375.5zM1119 746q0 172 -57 293.5t-169 189.5q-79 48 -169 69t-224 21h-151v-1149h151q132 0 231 21t181 78
q103 70 155 186.5t52 290.5z" />
    <glyph glyph-name="E" unicode="E" horiz-adv-x="1149" 
d="M151 0v1489h931v-176h-733v-408h683v-176h-683v-553h733v-176h-931z" />
    <glyph glyph-name="F" unicode="F" horiz-adv-x="1068" 
d="M1042 1313h-693v-420h664v-176h-664v-717h-198v1489h891v-176z" />
    <glyph glyph-name="G" unicode="G" horiz-adv-x="1367" 
d="M774 -29q-158 0 -289 48t-225 146q-94 99 -144 245t-50 336q0 180 50.5 322.5t144.5 243.5q91 98 224 151t291 53q75 0 144 -11t132 -30q50 -15 111.5 -41.5t99.5 -45.5v-239h-17q-37 33 -76.5 62.5t-111.5 63.5q-60 30 -138 50t-168 20q-215 0 -347.5 -162t-132.5 -431
q0 -150 35 -262t101 -190q64 -77 154.5 -117.5t203.5 -40.5q84 0 167 12t140 36v385h-344v174h540v-650q-38 -17 -101.5 -43t-118.5 -41q-73 -22 -132 -33t-143 -11z" />
    <glyph glyph-name="H" unicode="H" horiz-adv-x="1383" 
d="M1232 0h-198v729h-685v-729h-198v1489h198v-584h685v584h198v-1489z" />
    <glyph glyph-name="I" unicode="I" horiz-adv-x="764" 
d="M671 0h-578v152h190v1185h-190v152h578v-152h-190v-1185h190v-152z" />
    <glyph glyph-name="J" unicode="J" horiz-adv-x="853" 
d="M712 387q0 -196 -119.5 -302t-320.5 -106q-48 0 -128.5 8.5t-134.5 20.5v189h11q41 -14 101.5 -31t123.5 -17q92 0 146.5 21t80.5 60q27 40 34.5 98t7.5 134v869h-315v158h513v-1102z" />
    <glyph glyph-name="K" unicode="K" horiz-adv-x="1204" 
d="M1236 0h-257l-543 693l-87 -98v-595h-198v1489h198v-685l610 685h241l-616 -665z" />
    <glyph glyph-name="L" unicode="L" horiz-adv-x="1019" 
d="M1014 0h-863v1489h198v-1313h665v-176z" />
    <glyph glyph-name="M" unicode="M" horiz-adv-x="1578" 
d="M1427 0h-198v1283l-388 -873h-120l-385 873v-1283h-185v1489h270l372 -829l359 829h275v-1489z" />
    <glyph glyph-name="N" unicode="N" horiz-adv-x="1367" 
d="M1216 0h-222l-658 1284v-1284h-185v1489h281l599 -1179v1179h185v-1489z" />
    <glyph glyph-name="O" unicode="O" horiz-adv-x="1449" 
d="M1204 1318q85 -98 132 -243t47 -331q0 -181 -46 -327t-133 -245q-91 -104 -212.5 -153.5t-267.5 -49.5q-151 0 -272 51t-208 152q-86 99 -132 244t-46 328q0 188 46.5 330t132.5 244q86 99 207.5 150.5t271.5 51.5q152 0 274 -53t206 -149zM1177 744q0 148 -32 262
t-90 189q-59 77 -142.5 115.5t-187.5 38.5q-108 0 -188.5 -37.5t-142.5 -116.5q-59 -76 -90.5 -191t-31.5 -260q0 -293 123 -448.5t330 -155.5t329.5 155.5t122.5 448.5z" />
    <glyph glyph-name="P" unicode="P" horiz-adv-x="1129" 
d="M1091 1040q0 -97 -34.5 -183.5t-95.5 -147.5q-77 -76 -181 -115t-263 -39h-168v-555h-198v1489h374q132 0 225 -22t164 -71q83 -57 130 -144.5t47 -211.5zM885 1035q0 77 -26.5 134t-80.5 93q-47 31 -109.5 44t-155.5 13h-164v-595h135q120 0 194 19.5t123 69.5
q44 45 64 98t20 124z" />
    <glyph glyph-name="Q" unicode="Q" horiz-adv-x="1449" 
d="M1388 -364q-54 -14 -113.5 -21t-118.5 -7q-167 0 -271.5 94t-114.5 268h-25h-21q-151 0 -272.5 51.5t-207.5 150.5t-132 244t-46 328q0 188 46.5 330t132.5 244q86 99 207.5 150.5t271.5 51.5q152 0 274 -53t206 -149q85 -98 132 -243t47 -331q0 -289 -113 -477
t-309 -255q5 -56 19.5 -100.5t37.5 -70.5q27 -31 65.5 -45.5t105.5 -14.5q40 0 94 12.5t78 22.5h27v-180zM1177 744q0 148 -32 262t-90 189q-59 77 -142.5 115.5t-187.5 38.5q-108 0 -188.5 -37.5t-142.5 -116.5q-59 -76 -90.5 -191t-31.5 -260q0 -293 123 -449t330 -156
t329.5 156t122.5 449z" />
    <glyph glyph-name="R" unicode="R" horiz-adv-x="1271" 
d="M1304 0h-257l-472 592h-226v-592h-198v1489h384q128 0 214.5 -14t164.5 -65q78 -50 123.5 -129t45.5 -196q0 -164 -83 -274t-226 -163zM876 1070q0 65 -23 115.5t-71 82.5q-42 28 -98 39.5t-139 11.5h-196v-562h174q85 0 153 15t116 62q43 42 63.5 100t20.5 136z" />
    <glyph glyph-name="S" unicode="S" horiz-adv-x="1141" 
d="M566 -27q-162 0 -275.5 33.5t-213.5 82.5v248h14q98 -92 222 -142.5t239 -50.5q164 0 248 68.5t84 180.5q0 89 -44 145t-140 83q-69 20 -126 33t-143 35q-77 20 -138 51t-108 81q-46 49 -71.5 115.5t-25.5 153.5q0 181 141 303.5t360 122.5q125 0 236.5 -25t206.5 -71
v-237h-15q-71 65 -182 113.5t-233 48.5q-138 0 -223 -64.5t-85 -169.5q0 -95 50 -151t145 -82q63 -17 154 -38.5t151 -39.5q154 -47 225 -142t71 -234q0 -87 -35.5 -172t-99.5 -144q-72 -65 -162.5 -100t-226.5 -35z" />
    <glyph glyph-name="T" unicode="T" horiz-adv-x="1196" 
d="M499 0v1313h-500v176h1198v-176h-500v-1313h-198z" />
    <glyph glyph-name="U" unicode="U" horiz-adv-x="1343" 
d="M671 -31q-131 0 -229 34.5t-167 102.5q-78 78 -110 186.5t-32 267.5v929h198v-929q0 -103 13 -173.5t51 -126.5q40 -60 108.5 -91t167.5 -31q93 0 165 31t112 91q37 57 50.5 126t13.5 169v934h198v-929q0 -155 -31.5 -266t-110.5 -188q-71 -69 -165.5 -103t-231.5 -34z
" />
    <glyph glyph-name="V" unicode="V" horiz-adv-x="1222" 
d="M1230 1489l-512 -1489h-214l-512 1489h212l412 -1236l412 1236h202z" />
    <glyph glyph-name="W" unicode="W" horiz-adv-x="1847" 
d="M1821 1489l-374 -1489h-223l-303 1236l-296 -1236h-218l-381 1489h203l300 -1238l298 1238h201l301 -1250l298 1250h194z" />
    <glyph glyph-name="X" unicode="X" horiz-adv-x="1189" 
d="M1181 0h-227l-363 596l-369 -596h-214l473 745l-459 744h226l356 -585l361 585h215l-466 -734z" />
    <glyph glyph-name="Y" unicode="Y" horiz-adv-x="1180" 
d="M1193 1489l-503 -830v-659h-198v638l-503 851h220l384 -657l390 657h210z" />
    <glyph glyph-name="Z" unicode="Z" horiz-adv-x="1145" 
d="M1100 0h-1040v184l797 1129h-761v176h984v-179l-806 -1134h826v-176z" />
    <glyph glyph-name="bracketleft" unicode="[" horiz-adv-x="784" 
d="M686 -392h-520v1948h520v-143h-345v-1662h345v-143z" />
    <glyph glyph-name="backslash" unicode="\" horiz-adv-x="783" 
d="M804 -324h-169l-583 1880h172z" />
    <glyph glyph-name="bracketright" unicode="]" horiz-adv-x="784" 
d="M618 -392h-520v143h345v1662h-345v143h520v-1948z" />
    <glyph glyph-name="asciicircum" unicode="^" horiz-adv-x="1490" 
d="M1357 684h-198l-415 625l-414 -627h-197l549 807h126z" />
    <glyph glyph-name="underscore" unicode="_" horiz-adv-x="1118" 
d="M1134 -300h-1150v130h1150v-130z" />
    <glyph glyph-name="grave" unicode="`" horiz-adv-x="1118" 
d="M670 1302h-149l-273 374h243z" />
    <glyph glyph-name="a" unicode="a" horiz-adv-x="1075" 
d="M760 275v310q-67 -6 -169.5 -16.5t-165.5 -29.5q-75 -23 -124 -70.5t-49 -132.5q0 -96 54 -145t158 -49q89 0 161 38.5t135 94.5zM760 119l-61.5 -47.5t-74.5 -48.5q-50 -26 -96.5 -40t-130.5 -14q-69 0 -131 26t-109 73q-45 46 -72 113.5t-27 142.5q0 116 49 197.5
t155 129.5q94 43 222 59.5t276 24.5v36q0 66 -20 106.5t-56 62.5q-36 23 -88 30.5t-107 7.5q-65 0 -153 -19.5t-176 -56.5h-11v191q52 15 149 33t192 18q115 0 194 -18t142 -65q61 -46 91 -119t30 -178v-764h-187v119z" />
    <glyph glyph-name="b" unicode="b" horiz-adv-x="1132" 
d="M879 562q0 200 -61 303.5t-196 103.5q-77 0 -155.5 -36t-142.5 -91v-640q71 -35 126 -49.5t121 -14.5q144 0 226 102t82 322zM1073 577q0 -274 -133 -441t-333 -167q-91 0 -155.5 22.5t-127.5 60.5l-12 -52h-176v1556h188v-556q71 64 154 106t188 42q189 0 298 -151.5
t109 -419.5z" />
    <glyph glyph-name="c" unicode="c" horiz-adv-x="945" 
d="M580 -25q-115 0 -211 35.5t-165 107.5t-107 181.5t-38 257.5q0 147 39.5 254t105.5 180t164.5 112.5t211.5 39.5q92 0 177.5 -26t152.5 -60v-211h-11q-20 17 -51.5 39t-76.5 45q-39 20 -92 35t-102 15q-146 0 -234.5 -110.5t-88.5 -312.5q0 -198 85.5 -308.5
t237.5 -110.5q92 0 175 38t147 98h11v-211l-70 -31.5t-76 -27.5q-48 -14 -86 -21.5t-98 -7.5z" />
    <glyph glyph-name="d" unicode="d" horiz-adv-x="1132" 
d="M996 0h-188v114q-44 -37 -76 -61t-75 -44q-40 -19 -83 -29.5t-100 -10.5q-91 0 -168.5 38t-131.5 111q-55 74 -85 182.5t-30 249.5q0 147 38 254.5t105 187.5q61 73 147.5 114.5t181.5 41.5q84 0 146 -18.5t131 -57.5v484h188v-1556zM808 272v644q-70 34 -125.5 47
t-120.5 13q-145 0 -227 -108.5t-82 -313.5q0 -197 63 -301.5t202 -104.5q74 0 149 33.5t141 90.5z" />
    <glyph glyph-name="e" unicode="e" horiz-adv-x="1078" 
d="M621 -26q-267 0 -414.5 150.5t-147.5 427.5q0 273 143 434.5t374 161.5q104 0 184 -30t140 -94t92 -156.5t32 -226.5v-102h-774q0 -195 98 -298t271 -103q62 0 121.5 14t107.5 36q51 23 86 44.5t58 40.5h11v-205l-82 -32.5t-88 -30.5q-55 -15 -99.5 -23t-112.5 -8z
M841 683q-2 76 -18 131t-46 93q-33 42 -84.5 64t-127.5 22q-75 0 -127.5 -22.5t-95.5 -65.5q-42 -44 -64 -97.5t-28 -124.5h591z" />
    <glyph glyph-name="f" unicode="f" horiz-adv-x="652" 
d="M724 1376h-10q-25 9 -72 17.5t-84 8.5q-119 0 -169.5 -53.5t-50.5 -193.5v-38h311v-156h-305v-961h-188v961h-127v156h127v37q0 202 97 307t278 105q52 0 102 -5.5t91 -12.5v-172z" />
    <glyph glyph-name="g" unicode="g" horiz-adv-x="1132" 
d="M808 303v613q-70 34 -129.5 48.5t-118.5 14.5q-143 0 -225 -105t-82 -301q0 -186 62.5 -283t202.5 -97q73 0 150.5 29t139.5 81zM176 -179q19 -8 56 -21.5t84 -25.5q52 -13 96 -21t96 -8q87 0 147.5 23t94.5 64q32 41 45 95t13 123v98q-76 -66 -149 -97.5t-183 -31.5
q-191 0 -304 142t-113 408q0 139 39 246.5t105 182.5q63 72 149 111t178 39q87 0 150.5 -20.5t127.5 -58.5l11 48h177v-990q0 -284 -124 -417t-379 -133q-82 0 -167.5 13t-159.5 35v196h10z" />
    <glyph glyph-name="h" unicode="h" horiz-adv-x="1142" 
d="M1014 0h-188v636q0 77 -7.5 143.5t-28.5 106.5q-23 42 -64 62.5t-112 20.5q-70 0 -144.5 -37.5t-145.5 -97.5v-834h-188v1556h188v-563q84 75 166 115t173 40q165 0 258 -108.5t93 -314.5v-725z" />
    <glyph glyph-name="i" unicode="i" horiz-adv-x="468" 
d="M328 0h-188v1117h188v-1117zM341 1304h-214v195h214v-195z" />
    <glyph glyph-name="j" unicode="j" horiz-adv-x="577" 
d="M441 -32q0 -191 -102.5 -291t-282.5 -100q-31 0 -69.5 3t-76.5 9v168h11q22 -5 48.5 -9.5t50.5 -4.5q75 0 123.5 18.5t72.5 58.5q22 36 29.5 91t7.5 134v916h-202v156h390v-1149zM442 1304h-214v195h214v-195z" />
    <glyph glyph-name="k" unicode="k" horiz-adv-x="1020" 
d="M1062 0h-247l-417 539l-74 -72v-467h-188v1556h188v-911l442 472h234l-459 -467z" />
    <glyph glyph-name="l" unicode="l" horiz-adv-x="468" 
d="M328 0h-188v1556h188v-1556z" />
    <glyph glyph-name="m" unicode="m" horiz-adv-x="1720" 
d="M1404 0v646q0 77 -6 142.5t-25 102.5q-20 40 -57 59t-100 19q-58 0 -124.5 -35.5t-137.5 -102.5l2.5 -40.5t1.5 -55.5v-735h-188v646q0 77 -6 142.5t-25 102.5q-20 40 -57 59t-100 19q-61 0 -128 -38t-130 -97v-834h-188v1117h188v-124q74 74 146.5 114.5t159.5 40.5
q99 0 175.5 -45t116.5 -148q85 95 166 144t176 49q72 0 131 -22.5t103 -72.5q45 -51 69.5 -127t24.5 -191v-735h-188z" />
    <glyph glyph-name="n" unicode="n" horiz-adv-x="1142" 
d="M1014 0h-188v636q0 77 -7.5 143.5t-28.5 106.5q-23 42 -64 62.5t-112 20.5q-70 0 -144.5 -37.5t-145.5 -97.5v-834h-188v1117h188v-124q84 75 166 115t173 40q165 0 258 -108.5t93 -314.5v-725z" />
    <glyph glyph-name="o" unicode="o" horiz-adv-x="1112" 
d="M1055 558q0 -282 -136 -435.5t-362 -153.5q-233 0 -366.5 158.5t-133.5 430.5q0 280 137.5 435t362.5 155q226 0 362 -154.5t136 -435.5zM861 558q0 217 -79 322.5t-225 105.5q-147 0 -226.5 -105.5t-79.5 -322.5q0 -210 79.5 -318.5t226.5 -108.5q145 0 224.5 106.5
t79.5 320.5z" />
    <glyph glyph-name="p" unicode="p" horiz-adv-x="1132" 
d="M1073 588q0 -279 -133.5 -444.5t-337.5 -165.5q-83 0 -147 19t-131 59v-468h-188v1529h188v-117q70 63 155.5 105.5t186.5 42.5q192 0 299.5 -152t107.5 -408zM879 567q0 191 -61 296.5t-198 105.5q-80 0 -154.5 -35.5t-141.5 -91.5v-633q74 -36 126.5 -49t120.5 -13
q146 0 227 107t81 313z" />
    <glyph glyph-name="q" unicode="q" horiz-adv-x="1132" 
d="M996 -412h-188v534q-82 -75 -160 -109.5t-173 -34.5q-190 0 -303 152.5t-113 424.5q0 144 39.5 254.5t104.5 185.5q62 73 148 113t179 40q86 0 149 -20t129 -59l12 48h176v-1529zM808 280v636q-71 35 -127 49t-120 14q-148 0 -228 -107t-80 -308q0 -196 64 -301.5
t199 -105.5q79 0 154 34t138 89z" />
    <glyph glyph-name="r" unicode="r" horiz-adv-x="738" 
d="M728 915h-10q-21 6 -44.5 7.5t-56.5 1.5q-76 0 -151 -33t-142 -98v-793h-188v1117h188v-166q103 91 179.5 128.5t148.5 37.5q29 0 43.5 -1.5t32.5 -4.5v-196z" />
    <glyph glyph-name="s" unicode="s" horiz-adv-x="914" 
d="M438 -27q-112 0 -209.5 30t-161.5 64v211h10q24 -19 56.5 -42t86.5 -48q48 -22 105.5 -39t119.5 -17q45 0 96 10.5t76 26.5q35 23 50.5 49t15.5 78q0 67 -36.5 101t-129.5 57q-36 9 -94 21t-107 26q-128 37 -186 114.5t-58 187.5q0 151 114 246t303 95q93 0 187 -23
t158 -58v-201h-10q-72 57 -160.5 90t-178.5 33q-93 0 -157 -39t-64 -118q0 -70 38 -104.5t122 -56.5q42 -11 93.5 -21.5t108.5 -24.5q124 -31 186.5 -103t62.5 -196q0 -72 -28.5 -136.5t-83.5 -110.5q-60 -50 -135.5 -76t-189.5 -26z" />
    <glyph glyph-name="t" unicode="t" horiz-adv-x="685" 
d="M474 -22q-154 0 -240 87.5t-86 276.5v619h-127v156h127v321h188v-321h346v-156h-346v-531q0 -85 3 -131t23 -86q17 -35 55 -52.5t103 -17.5q46 0 89 13.5t62 22.5h11v-169q-53 -15 -107.5 -23.5t-100.5 -8.5z" />
    <glyph glyph-name="u" unicode="u" horiz-adv-x="1142" 
d="M1006 0h-188v124q-87 -76 -165 -115.5t-174 -39.5q-73 0 -137.5 24t-112.5 76t-74.5 131t-26.5 192v725h188v-636q0 -89 6.5 -147.5t29.5 -102.5q23 -43 62.5 -63t113.5 -20q69 0 147 39t143 96v834h188v-1117z" />
    <glyph glyph-name="v" unicode="v" horiz-adv-x="1020" 
d="M1014 1117l-421 -1117h-169l-418 1117h203l306 -862l303 862h196z" />
    <glyph glyph-name="w" unicode="w" horiz-adv-x="1520" 
d="M1490 1117l-283 -1117h-174l-273 861l-271 -861h-173l-286 1117h196l197 -865l265 865h155l272 -865l186 865h189z" />
    <glyph glyph-name="x" unicode="x" horiz-adv-x="1014" 
d="M1004 0h-231l-271 422l-279 -422h-213l388 554l-384 563h231l269 -418l276 418h214l-386 -550z" />
    <glyph glyph-name="y" unicode="y" horiz-adv-x="1020" 
d="M1014 1117l-601 -1529h-201l200 466l-406 1063h203l305 -827l304 827h196z" />
    <glyph glyph-name="z" unicode="z" horiz-adv-x="910" 
d="M870 0h-821v139l584 823h-560v155h786v-134l-587 -826h598v-157z" />
    <glyph glyph-name="braceleft" unicode="{" horiz-adv-x="984" 
d="M886 -392h-116q-179 0 -280.5 98.5t-101.5 288.5v149q0 69 -13 139t-50 120t-96.5 75.5t-147.5 25.5h-21v156h21q88 0 147.5 25.5t96.5 75.5t50 120t13 139v149q0 190 101.5 288.5t280.5 98.5h116v-138h-80q-59 0 -102 -12t-74 -41q-32 -30 -47.5 -83t-15.5 -130v-175
q0 -82 -19 -138t-56 -105q-33 -44 -86 -80.5t-110 -59.5v-24q57 -23 109.5 -59.5t86.5 -80.5q37 -49 56 -105t19 -138v-175q0 -77 15.5 -130t47.5 -83q30 -29 73.5 -41t102.5 -12h80v-138z" />
    <glyph glyph-name="bar" unicode="|" horiz-adv-x="783" 
d="M475 -392h-167v1948h167v-1948z" />
    <glyph glyph-name="braceright" unicode="}" horiz-adv-x="984" 
d="M924 504h-21q-88 0 -147.5 -25.5t-96.5 -75.5t-50 -120t-13 -139v-149q0 -190 -101.5 -288.5t-280.5 -98.5h-116v138h80q59 0 102 12t74 41q32 30 47.5 83t15.5 130v175q0 82 19 138t56 105q33 44 86 80.5t110 59.5v24q-57 23 -110 59.5t-86 80.5q-37 49 -56 105t-19 138
v175q0 77 -15.5 130t-47.5 83q-31 29 -74 41t-102 12h-80v138h116q179 0 280.5 -98.5t101.5 -288.5v-149q0 -69 13 -139t50 -120t96.5 -75.5t147.5 -25.5h21v-156z" />
    <glyph glyph-name="asciitilde" unicode="~" horiz-adv-x="1490" 
d="M1356 927q-2 -102 -21 -196.5t-60 -169.5q-41 -73 -102 -119t-159 -46q-57 0 -102.5 15.5t-80.5 40.5t-67 60t-57 65l-53 67t-51 60q-27 28 -56 45t-66 17q-50 0 -83 -26.5t-55 -78.5q-21 -50 -29.5 -120t-11.5 -146h-168q2 104 21.5 199t58.5 167q40 76 106 120.5
t156 44.5q60 0 105.5 -16t80.5 -41t64.5 -57t57.5 -67l52.5 -66t51.5 -61q29 -30 58.5 -46t62.5 -16q50 0 84.5 28t53.5 76q20 50 29.5 117.5t11.5 149.5h168z" />
    <glyph glyph-name="Adieresis" unicode="&#x201a;" horiz-adv-x="1228" 
d="M-10 0l502 1489h244l502 -1489h-209l-135 416h-569l-135 -416h-200zM839 585l-230 702l-229 -702h459zM913 1657h-201v195h201v-195zM500 1657h-201v195h201v-195z" />
    <glyph glyph-name="Aring" unicode="&#x192;" horiz-adv-x="1228" 
d="M874.5 1532q-45.5 -69 -116.5 -107l480 -1425h-209l-135 416h-569l-135 -416h-200l479 1422q-72 40 -116.5 108.5t-44.5 154.5q0 128 89 214.5t217 86.5q129 0 217.5 -86t88.5 -215q0 -84 -45.5 -153zM839 584l-230 705l-229 -705h459zM773 1683q0 73 -44 121.5
t-115 48.5q-70 0 -114.5 -48.5t-44.5 -121.5q0 -74 45 -122.5t114 -48.5t114 48.5t45 122.5z" />
    <glyph glyph-name="Ccedilla" unicode="&#x201e;" horiz-adv-x="1230" 
d="M733 -27q-146 0 -268.5 49t-211.5 146t-138 242t-49 333q0 187 47.5 326t138.5 242q89 100 211 152.5t273 52.5q75 0 140.5 -11t121.5 -28q48 -15 98.5 -37.5t99.5 -49.5v-239h-16q-26 24 -67 58t-100 67q-57 31 -124 51t-155 20q-95 0 -180 -39t-149 -115
q-63 -76 -98 -191t-35 -259q0 -153 37 -263.5t101 -186.5q62 -74 146 -111.5t178 -37.5q86 0 159 21t130 53q55 31 95 63.5t63 55.5h15v-236l-92.5 -44t-105.5 -41q-8 -3 -23 -7.5t-21 -5.5q1 -15 3 -39t2 -53q0 -149 -82 -241.5t-227 -92.5q-37 0 -87 6t-90 18v160h9
q24 -11 63 -22.5t79 -11.5q94 0 138 39.5t44 126.5q0 18 -0.5 38t-1.5 45q-18 -1 -33.5 -2t-37.5 -1z" />
    <glyph glyph-name="Eacute" unicode="&#x2026;" horiz-adv-x="1149" 
d="M151 0v1489h931v-176h-733v-408h683v-176h-683v-553h733v-176h-931zM920 2049l-273 -374h-149l179 374h243z" />
    <glyph glyph-name="Ntilde" unicode="&#x2020;" horiz-adv-x="1367" 
d="M1216 0h-222l-658 1284v-1284h-185v1489h281l599 -1179v1179h185v-1489zM1110 1985q-10 -156 -74.5 -234t-171.5 -78q-52 0 -96 19t-86 59q-44 41 -76 62.5t-63 21.5q-49 0 -68.5 -45t-23.5 -121h-140q7 154 76 232.5t169 78.5q51 0 94 -19.5t86 -57.5q43 -39 77.5 -59.5
t63.5 -20.5q47 0 68.5 45t24.5 117h140z" />
    <glyph glyph-name="Odieresis" unicode="&#x2021;" horiz-adv-x="1449" 
d="M1204 1318q85 -98 132 -243t47 -331q0 -181 -46 -327t-133 -245q-91 -104 -212.5 -153.5t-267.5 -49.5q-151 0 -272 51t-208 152q-86 99 -132 244t-46 328q0 188 46.5 330t132.5 244q86 99 207.5 150.5t271.5 51.5q152 0 274 -53t206 -149zM1177 744q0 148 -32 262
t-90 189q-59 77 -142.5 115.5t-187.5 38.5q-108 0 -188.5 -37.5t-142.5 -116.5q-59 -76 -90.5 -191t-31.5 -260q0 -293 123 -448.5t330 -155.5t329.5 155.5t122.5 448.5zM1027 1677h-201v195h201v-195zM614 1677h-201v195h201v-195z" />
    <glyph glyph-name="Udieresis" unicode="&#x2030;" horiz-adv-x="1343" 
d="M671 -31q-131 0 -229 34.5t-167 102.5q-78 78 -110 186.5t-32 267.5v929h198v-929q0 -103 13 -173.5t51 -126.5q40 -60 108.5 -91t167.5 -31q93 0 165 31t112 91q37 57 50.5 126t13.5 169v934h198v-929q0 -155 -31.5 -266t-110.5 -188q-71 -69 -165.5 -103t-231.5 -34z
M1004 1677h-201v195h201v-195zM591 1677h-201v195h201v-195z" />
    <glyph glyph-name="aacute" unicode="&#x2039;" horiz-adv-x="1174" 
d="M1043 541l-488 419v85l488 418v-188l-317 -273l317 -273v-188zM613 512l-510 446v89l510 445v-196l-331 -294l331 -294v-196z" />
    <glyph glyph-name="agrave" unicode="&#x152;" horiz-adv-x="1075" 
d="M760 275v310q-67 -6 -169.5 -16.5t-165.5 -29.5q-75 -23 -124 -70.5t-49 -132.5q0 -96 54 -145t158 -49q89 0 161 38.5t135 94.5zM760 119l-61.5 -47.5t-74.5 -48.5q-50 -26 -96.5 -40t-130.5 -14q-69 0 -131 26t-109 73q-45 46 -72 113.5t-27 142.5q0 116 49 197.5
t155 129.5q94 43 222 59.5t276 24.5v36q0 66 -20 106.5t-56 62.5q-36 23 -88 30.5t-107 7.5q-65 0 -153 -19.5t-176 -56.5h-11v191q52 15 149 33t192 18q115 0 194 -18t142 -65q61 -46 91 -119t30 -178v-764h-187v119zM670 1302h-149l-273 374h243z" />
    <glyph glyph-name="acircumflex" unicode="&#x2018;" horiz-adv-x="499" 
d="M385 1444q-35 -12 -64.5 -33.5t-49 -47.5t-31 -53.5t-11.5 -54.5q0 -43 31 -76.5t94 -39.5q17 -9 23 -24t6 -30q0 -38 -29.5 -62t-68.5 -24q-37 0 -69 17.5t-53.5 46.5t-33.5 63.5t-12 69.5q0 53 19.5 100t54 85t79.5 68t95 48z" />
    <glyph glyph-name="adieresis" unicode="&#x2019;" horiz-adv-x="858" 
d="M362 993q-49 19 -94 48.5t-78.5 68.5t-54 85t-20.5 99q0 35 12 71t33.5 63.5t53.5 46t71 18.5q37 0 66.5 -23.5t29.5 -64.5q0 -14 -6 -29.5t-23 -23.5q-63 -6 -88.5 -40t-25.5 -75q0 -53 36.5 -108.5t108.5 -81.5zM725 993q-51 19 -95 48.5t-78 68.5t-54.5 85t-20.5 99
q0 35 11.5 71t34 63.5t53 46t69.5 18.5t68.5 -23.5t29.5 -64.5q0 -14 -7 -29.5t-21 -23.5q-64 -6 -94.5 -40t-30.5 -75q0 -27 11 -54.5t30.5 -53t48.5 -47t65 -35.5z" />
    <glyph glyph-name="atilde" unicode="&#x201c;" horiz-adv-x="858" 
d="M745 1444q-36 -12 -65 -33.5t-48.5 -47.5t-30.5 -53.5t-11 -54.5q0 -43 30.5 -76.5t94.5 -39.5q14 -9 21 -24t7 -30q0 -38 -29.5 -62t-68.5 -24t-69.5 17.5t-53 46.5t-34 63.5t-11.5 69.5q0 53 19.5 100t54.5 85t79 68t95 48zM385 1444q-35 -12 -64.5 -33.5t-49 -47.5
t-31 -53.5t-11.5 -54.5q0 -43 31 -76.5t94 -39.5q17 -9 23 -24t6 -30q0 -38 -29.5 -62t-68.5 -24q-37 0 -69 17.5t-53.5 46.5t-33.5 63.5t-12 69.5q0 53 19.5 100t54 85t79.5 68t95 48z" />
    <glyph glyph-name="aring" unicode="&#x201d;" horiz-adv-x="858" 
d="M477 1047q72 26 109 81.5t37 108.5q0 41 -26 75t-89 40q-16 8 -22.5 23.5t-6.5 29.5q0 41 30 64.5t66 23.5q39 0 71 -18.5t53.5 -46t33.5 -63.5t12 -71q0 -53 -20 -99t-54 -85t-79 -68.5t-94 -48.5zM115 1047q37 14 65.5 35.5t48 47t30.5 53t11 54.5q0 41 -30.5 75
t-94.5 40q-14 8 -21 23.5t-7 29.5q0 41 29.5 64.5t68.5 23.5t69.5 -18.5t53 -46t34 -63.5t11.5 -71q0 -53 -20.5 -99t-54.5 -85t-78 -68.5t-95 -48.5z" />
    <glyph glyph-name="ccedilla" unicode="&#x2022;" horiz-adv-x="945" 
d="M580 -25q-115 0 -211 35.5t-165 107.5t-107 181.5t-38 257.5q0 147 39.5 254t105.5 180t164.5 112.5t211.5 39.5q92 0 177.5 -26t152.5 -60v-211h-11q-20 17 -51.5 39t-76.5 45q-39 20 -92 35t-102 15q-146 0 -234.5 -110.5t-88.5 -312.5q0 -198 85.5 -308.5
t237.5 -110.5q92 0 175 38t147 98h11v-211l-65 -29t-68 -26q1 -16 3 -42t2 -55q0 -149 -82 -241.5t-227 -92.5q-37 0 -87 6t-90 18v160h9q24 -11 63 -22.5t79 -11.5q94 0 138 39.5t44 126.5q0 18 -0.5 38.5t-1.5 45.5q-13 0 -22.5 -1t-24.5 -1z" />
    <glyph glyph-name="eacute" unicode="&#x2013;" horiz-adv-x="1078" 
d="M621 -26q-267 0 -414.5 150.5t-147.5 427.5q0 273 143 434.5t374 161.5q104 0 184 -30t140 -94t92 -156.5t32 -226.5v-102h-774q0 -195 98 -298t271 -103q62 0 121.5 14t107.5 36q51 23 86 44.5t58 40.5h11v-205l-82 -32.5t-88 -30.5q-55 -15 -99.5 -23t-112.5 -8z
M841 683q-2 76 -18 131t-46 93q-33 42 -84.5 64t-127.5 22q-75 0 -127.5 -22.5t-95.5 -65.5q-42 -44 -64 -97.5t-28 -124.5h591zM889 1676l-273 -374h-149l179 374h243z" />
    <glyph glyph-name="egrave" unicode="&#x2014;" horiz-adv-x="1078" 
d="M621 -26q-267 0 -414.5 150.5t-147.5 427.5q0 273 143 434.5t374 161.5q104 0 184 -30t140 -94t92 -156.5t32 -226.5v-102h-774q0 -195 98 -298t271 -103q62 0 121.5 14t107.5 36q51 23 86 44.5t58 40.5h11v-205l-82 -32.5t-88 -30.5q-55 -15 -99.5 -23t-112.5 -8z
M841 683q-2 76 -18 131t-46 93q-33 42 -84.5 64t-127.5 22q-75 0 -127.5 -22.5t-95.5 -65.5q-42 -44 -64 -97.5t-28 -124.5h591zM685 1302h-149l-273 374h243z" />
    <glyph glyph-name="ecircumflex" unicode="&#x2122;" horiz-adv-x="1078" 
d="M621 -26q-267 0 -414.5 150.5t-147.5 427.5q0 273 143 434.5t374 161.5q104 0 184 -30t140 -94t92 -156.5t32 -226.5v-102h-774q0 -195 98 -298t271 -103q62 0 121.5 14t107.5 36q51 23 86 44.5t58 40.5h11v-205l-82 -32.5t-88 -30.5q-55 -15 -99.5 -23t-112.5 -8z
M841 683q-2 76 -18 131t-46 93q-33 42 -84.5 64t-127.5 22q-75 0 -127.5 -22.5t-95.5 -65.5q-42 -44 -64 -97.5t-28 -124.5h591zM915 1297h-159l-185 256l-184 -256h-155l228 379h227z" />
    <glyph glyph-name="edieresis" unicode="&#x203a;" horiz-adv-x="1174" 
d="M1071 958l-510 -446v196l331 294l-331 294v196l510 -445v-89zM619 960l-488 -419v188l317 273l-317 273v188l488 -418v-85z" />
    <glyph glyph-name="iacute" unicode="&#x153;" horiz-adv-x="468" 
d="M328 0h-188v1117h188v-1117zM546 1676l-273 -374h-149l179 374h243z" />
    <glyph glyph-name="igrave" unicode="&#x178;" horiz-adv-x="468" 
d="M328 0h-188v1117h188v-1117zM425 1302h-149l-273 374h243z" />
    <glyph glyph-name="icircumflex" unicode="&#xa0;" horiz-adv-x="468" 
d="M328 0h-188v1117h188v-1117zM521 1297h-151l-139 263l-138 -263h-147l174 379h227z" />
    <glyph glyph-name="idieresis" unicode="&#xa1;" horiz-adv-x="468" 
d="M328 0h-188v1117h188v-1117zM506 1304h-189v195h189v-195zM151 1304h-189v195h189v-195z" />
    <glyph glyph-name="ntilde" unicode="&#xa2;" horiz-adv-x="1142" 
d="M1014 0h-188v636q0 77 -7.5 143.5t-28.5 106.5q-23 42 -64 62.5t-112 20.5q-70 0 -144.5 -37.5t-145.5 -97.5v-834h-188v1117h188v-124q84 75 166 115t173 40q165 0 258 -108.5t93 -314.5v-725zM978 1632q-10 -156 -74.5 -234t-171.5 -78q-52 0 -96 19t-86 59
q-44 41 -76 62.5t-63 21.5q-49 0 -68.5 -45t-23.5 -121h-140q7 154 76 232.5t169 78.5q51 0 94 -19.5t86 -57.5q43 -39 77.5 -59.5t63.5 -20.5q47 0 68.5 45t24.5 117h140z" />
    <glyph glyph-name="oacute" unicode="&#xa3;" horiz-adv-x="1112" 
d="M1055 558q0 -282 -136 -435.5t-362 -153.5q-233 0 -366.5 158.5t-133.5 430.5q0 280 137.5 435t362.5 155q226 0 362 -154.5t136 -435.5zM861 558q0 217 -79 322.5t-225 105.5q-147 0 -226.5 -105.5t-79.5 -322.5q0 -210 79.5 -318.5t226.5 -108.5q145 0 224.5 106.5
t79.5 320.5zM871 1676l-273 -374h-149l179 374h243z" />
    <glyph glyph-name="ograve" unicode="&#xa4;" horiz-adv-x="1112" 
d="M1055 558q0 -282 -136 -435.5t-362 -153.5q-233 0 -366.5 158.5t-133.5 430.5q0 280 137.5 435t362.5 155q226 0 362 -154.5t136 -435.5zM861 558q0 217 -79 322.5t-225 105.5q-147 0 -226.5 -105.5t-79.5 -322.5q0 -210 79.5 -318.5t226.5 -108.5q145 0 224.5 106.5
t79.5 320.5zM670 1302h-149l-273 374h243z" />
    <glyph glyph-name="ocircumflex" unicode="&#xa5;" horiz-adv-x="1112" 
d="M1055 558q0 -282 -136 -435.5t-362 -153.5q-233 0 -366.5 158.5t-133.5 430.5q0 280 137.5 435t362.5 155q226 0 362 -154.5t136 -435.5zM861 558q0 217 -79 322.5t-225 105.5q-147 0 -226.5 -105.5t-79.5 -322.5q0 -210 79.5 -318.5t226.5 -108.5q145 0 224.5 106.5
t79.5 320.5zM901 1297h-159l-185 256l-184 -256h-155l228 379h227z" />
    <glyph glyph-name="odieresis" unicode="&#xa7;" horiz-adv-x="1112" 
d="M1055 558q0 -282 -136 -435.5t-362 -153.5q-233 0 -366.5 158.5t-133.5 430.5q0 280 137.5 435t362.5 155q226 0 362 -154.5t136 -435.5zM861 558q0 217 -79 322.5t-225 105.5q-147 0 -226.5 -105.5t-79.5 -322.5q0 -210 79.5 -318.5t226.5 -108.5q145 0 224.5 106.5
t79.5 320.5zM867 1304h-201v195h201v-195zM454 1304h-201v195h201v-195z" />
    <glyph glyph-name="otilde" unicode="&#xa8;" horiz-adv-x="1112" 
d="M1055 558q0 -282 -136 -435.5t-362 -153.5q-233 0 -366.5 158.5t-133.5 430.5q0 280 137.5 435t362.5 155q226 0 362 -154.5t136 -435.5zM861 558q0 217 -79 322.5t-225 105.5q-147 0 -226.5 -105.5t-79.5 -322.5q0 -210 79.5 -318.5t226.5 -108.5q145 0 224.5 106.5
t79.5 320.5zM960 1632q-10 -156 -74.5 -234t-171.5 -78q-52 0 -96 19t-86 59q-44 41 -76 62.5t-63 21.5q-49 0 -68.5 -45t-23.5 -121h-140q7 154 76 232.5t169 78.5q51 0 94 -19.5t86 -57.5q43 -39 77.5 -59.5t63.5 -20.5q47 0 68.5 45t24.5 117h140z" />
    <glyph glyph-name="uacute" unicode="&#xa9;" horiz-adv-x="1142" 
d="M1006 0h-188v124q-87 -76 -165 -115.5t-174 -39.5q-73 0 -137.5 24t-112.5 76t-74.5 131t-26.5 192v725h188v-636q0 -89 6.5 -147.5t29.5 -102.5q23 -43 62.5 -63t113.5 -20q69 0 147 39t143 96v834h188v-1117zM871 1676l-273 -374h-149l179 374h243z" />
    <glyph glyph-name="ugrave" unicode="&#xaa;" horiz-adv-x="1142" 
d="M1006 0h-188v124q-87 -76 -165 -115.5t-174 -39.5q-73 0 -137.5 24t-112.5 76t-74.5 131t-26.5 192v725h188v-636q0 -89 6.5 -147.5t29.5 -102.5q23 -43 62.5 -63t113.5 -20q69 0 147 39t143 96v834h188v-1117zM687 1302h-149l-273 374h243z" />
    <glyph glyph-name="ucircumflex" unicode="&#xab;" horiz-adv-x="1142" 
d="M1006 0h-188v124q-87 -76 -165 -115.5t-174 -39.5q-73 0 -137.5 24t-112.5 76t-74.5 131t-26.5 192v725h188v-636q0 -89 6.5 -147.5t29.5 -102.5q23 -43 62.5 -63t113.5 -20q69 0 147 39t143 96v834h188v-1117zM908 1297h-159l-185 256l-184 -256h-155l228 379h227z" />
    <glyph glyph-name="udieresis" unicode="&#xac;" horiz-adv-x="1142" 
d="M1006 0h-188v124q-87 -76 -165 -115.5t-174 -39.5q-73 0 -137.5 24t-112.5 76t-74.5 131t-26.5 192v725h188v-636q0 -89 6.5 -147.5t29.5 -102.5q23 -43 62.5 -63t113.5 -20q69 0 147 39t143 96v834h188v-1117zM879 1304h-201v195h201v-195zM466 1304h-201v195h201v-195z
" />
    <glyph glyph-name="dagger" unicode="&#xae;" horiz-adv-x="1118" 
d="M983 1034l-363 5l5 -904h-132l5 904l-363 -5v129l363 -5l-5 398h132l-5 -398l363 5v-129z" />
    <glyph glyph-name="degree" unicode="&#xaf;" horiz-adv-x="964" 
d="M863 1135q0 -160 -110 -270t-271 -110q-159 0 -270 109t-111 271q0 160 110 270t271 110t271 -110t110 -270zM706 1135q0 96 -64 162t-160 66t-160 -66t-64 -162q0 -98 65.5 -163t158.5 -65q96 0 160 66.5t64 161.5z" />
    <glyph glyph-name="cent" unicode="&#xb0;" horiz-adv-x="1118" 
d="M557 2q-215 25 -329 169t-114 386q0 238 118 386t325 172v360h114v-359q87 -3 167.5 -26.5t136.5 -52.5v-200h-10q-62 51 -132 89t-162 51v-836q49 5 98.5 23t83.5 38q36 21 64 41.5t48 37.5h10v-198q-65 -30 -135.5 -53.5t-168.5 -28.5v-362h-114v363zM557 146v825
q-116 -21 -183 -125.5t-67 -288.5q0 -188 68.5 -289.5t181.5 -121.5z" />
    <glyph glyph-name="sterling" unicode="&#xb1;" horiz-adv-x="1118" 
d="M1031 0h-942v207q111 33 156.5 128t45.5 278h-161v138h161v320q0 201 116 324t301 123q97 0 166 -15.5t127 -32.5v-206h-10q-58 41 -129 64t-135 23q-123 0 -183.5 -77t-60.5 -222v-301h364v-138h-364v-61q0 -117 -58.5 -212.5t-163.5 -157.5v-11h770v-171z" />
    <glyph glyph-name="section" unicode="&#xb4;" horiz-adv-x="1118" 
d="M759 401q24 35 37.5 67.5t13.5 86.5q0 49 -14.5 85t-39.5 59q-24 23 -56 38.5t-74 28.5l-77 22.5t-99 30.5q-20 -12 -41.5 -30t-47.5 -51q-20 -26 -36.5 -70t-16.5 -89q0 -81 38 -129t146 -81l77.5 -23.5l97.5 -30.5q19 12 44 33t48 53zM182 -133q26 -13 64.5 -29
t74.5 -28q47 -15 87 -22.5t101 -7.5q114 0 190.5 46.5t76.5 137.5q0 54 -18.5 87.5t-59.5 59.5q-42 25 -103.5 42.5l-134.5 38.5q-88 25 -146.5 51t-105.5 69q-45 41 -67 95t-22 126q0 94 49 178.5t150 146.5v7q-91 50 -130.5 121t-39.5 161q0 168 128 270t352 102
q85 0 157 -13t161 -44v-194h-10q-90 45 -167.5 66t-161.5 21q-112 0 -189.5 -45.5t-77.5 -133.5q0 -57 20.5 -93t59.5 -59q39 -24 99.5 -43t137.5 -39q184 -50 262.5 -128.5t78.5 -212.5q0 -108 -54.5 -189t-144.5 -135v-7q87 -46 128.5 -116t41.5 -164q0 -74 -31.5 -145
t-89.5 -119q-62 -53 -148.5 -82t-209.5 -29q-79 0 -157 14t-161 44v194h10z" />
    <glyph glyph-name="bullet" unicode="&#xb5;" horiz-adv-x="931" 
d="M817 662q0 -145 -103.5 -248t-248.5 -103t-248 103t-103 248t103 248t248 103t248.5 -103t103.5 -248z" />
    <glyph glyph-name="paragraph" unicode="&#xb6;" horiz-adv-x="1118" 
d="M982 -363h-140v1722h-187v-1722h-140v956q-206 5 -332 129t-126 328q0 207 130 323t373 116h422v-1852z" />
    <glyph glyph-name="germandbls" unicode="&#xb7;" horiz-adv-x="1123" 
d="M1068 481q0 -218 -135 -361.5t-351 -143.5q-25 0 -62.5 3t-59.5 7v166h10q28 -8 59 -12.5t61 -4.5q77 0 131.5 27.5t87.5 74.5q35 51 49.5 111t14.5 141q0 169 -103 248.5t-304 79.5v157q152 0 233.5 57.5t81.5 190.5q0 33 -10 68.5t-34 63.5q-24 29 -62 46.5t-97 17.5
q-53 0 -96 -14.5t-81 -54.5q-36 -37 -56.5 -103t-20.5 -160v-1086h-188v1080q0 130 34 218t95 150q60 60 142.5 89t174.5 29q168 0 279.5 -85t111.5 -240q0 -112 -71 -201t-184 -121v-9q164 -37 257 -147t93 -282z" />
    <glyph glyph-name="registered" unicode="&#xb8;" horiz-adv-x="1902" 
d="M1816 655q0 -358 -253.5 -611.5t-611.5 -253.5t-611.5 253.5t-253.5 611.5t253.5 611t611.5 253t611.5 -253t253.5 -611zM1701 655q0 313 -219.5 533.5t-529.5 220.5t-529.5 -220.5t-219.5 -533.5t219.5 -534t529.5 -221t529.5 221t219.5 534zM1448 215h-227l-283 355
h-123v-355h-165v915h279q94 0 148.5 -7t110.5 -39q60 -34 87 -82t27 -123q0 -100 -55.5 -164t-144.5 -100zM1120 868q0 37 -12 64t-42 46q-25 16 -56 21.5t-80 5.5h-115v-309h98q48 0 90 9.5t68 32.5t37.5 53t11.5 77z" />
    <glyph glyph-name="copyright" unicode="&#xba;" horiz-adv-x="1902" 
d="M1816 655q0 -358 -253.5 -611.5t-611.5 -253.5t-611.5 253.5t-253.5 611.5t253.5 611t611.5 253t611.5 -253t253.5 -611zM1701 655q0 313 -219.5 533.5t-529.5 220.5t-529.5 -220.5t-219.5 -533.5t219.5 -534t529.5 -221t529.5 221t219.5 534zM1274 255
q-67 -30 -134 -52.5t-158 -22.5q-209 0 -330 123.5t-121 356.5q0 230 125 356.5t326 126.5q83 0 159 -22t133 -51v-181h-16q-43 38 -119 72.5t-153 34.5q-123 0 -196.5 -82t-73.5 -254q0 -162 70 -247.5t200 -85.5q84 0 159 36.5t113 70.5h16v-179z" />
    <glyph glyph-name="trademark" unicode="&#xbb;" horiz-adv-x="1794" 
d="M1634 785h-124v616h-20l-204 -453h-85l-206 460h-25v-623h-123v704h238l161 -382l161 382h227v-704zM692 1372h-229v-587h-127v587h-229v117h585v-117z" />
    <glyph glyph-name="acute" unicode="&#xbf;" horiz-adv-x="1118" 
d="M871 1676l-273 -374h-149l179 374h243z" />
    <glyph glyph-name="dieresis" unicode="&#xc0;" horiz-adv-x="1118" 
d="M867 1304h-201v195h201v-195zM454 1304h-201v195h201v-195z" />
    <glyph glyph-name="notequal" unicode="&#xc1;" horiz-adv-x="1490" 
d="M1298 362h-568l-105 -335h-153l105 335h-385v156h434l84 268h-518v156h566l105 335h153l-105 -335h387v-156h-436l-83 -268h519v-156z" />
    <glyph glyph-name="AE" unicode="&#xc2;" horiz-adv-x="1870" 
d="M1802 0h-912v557h-505l-217 -557h-207l603 1489h1238v-176h-716v-408h666v-176h-666v-553h716v-176zM890 723v601h-194l-245 -601h439z" />
    <glyph glyph-name="Oslash" unicode="&#xc3;" horiz-adv-x="1449" 
d="M1383 744q0 -368 -180 -571.5t-479 -203.5q-110 0 -204.5 29t-171.5 82l-132 -196h-148l189 278q-90 99 -140.5 245t-50.5 337q0 368 180.5 572t477.5 204q114 0 203.5 -27.5t169.5 -82.5l115 171h148l-171 -251q91 -100 142.5 -243.5t51.5 -342.5zM995 1260
q-52 44 -120 66.5t-150 22.5q-208 0 -331.5 -154t-123.5 -451q0 -135 26 -239.5t73 -180.5zM1179 744q0 138 -27.5 246t-73.5 179l-628 -937q57 -46 120.5 -69t154.5 -23q206 0 330 155.5t124 448.5z" />
    <glyph glyph-name="infinity" unicode="&#xc4;" horiz-adv-x="1862" 
d="M1752 663q0 -229 -113.5 -367.5t-316.5 -138.5q-127 0 -234 80.5t-168 218.5q-77 -153 -176.5 -226t-236.5 -73q-182 0 -289.5 137t-107.5 348q0 236 117.5 371t312.5 135q127 0 234 -80.5t168 -218.5q75 150 177 224.5t236 74.5q182 0 289.5 -137t107.5 -348zM873 729
q-60 117 -144.5 175.5t-174.5 58.5q-131 0 -202.5 -82t-71.5 -239q0 -142 62.5 -220.5t167.5 -78.5q85 0 143 37.5t124 153.5q25 44 49.5 92t46.5 103zM1582 663q0 144 -63 221.5t-167 77.5q-88 0 -145 -39t-123 -152q-33 -55 -52.5 -97.5l-42.5 -97.5q58 -116 143.5 -175
t175.5 -59q131 0 202.5 81.5t71.5 239.5z" />
    <glyph glyph-name="plusminus" unicode="&#xc5;" horiz-adv-x="1490" 
d="M1328 159h-1166v158h500v422h-500v158h500v505h166v-505h500v-158h-500v-422h500v-158z" />
    <glyph glyph-name="lessequal" unicode="&#xc6;" horiz-adv-x="1490" 
d="M1275 305l-1074 483v120l1074 483v-181l-812 -362l812 -362v-181zM1275 0h-1074v160h1074v-160z" />
    <glyph glyph-name="greaterequal" unicode="&#xc7;" horiz-adv-x="1490" 
d="M1289 788l-1074 -483v181l812 362l-812 362v181l1074 -483v-120zM1289 0h-1074v160h1074v-160z" />
    <glyph glyph-name="yen" unicode="&#xc8;" horiz-adv-x="1118" 
d="M1059 1489l-408 -811v-100h342v-138h-340v-440h-188v440h-340v138h342v79l-411 832h210l294 -639l298 639h201z" />
    <glyph glyph-name="mu1" unicode="&#xc9;" horiz-adv-x="1163" 
d="M1027 0h-172v116h-6q-60 -63 -120.5 -98t-150.5 -35q-92 0 -145 35t-109 97v-527h-188v1529h188v-842q42 -50 105 -80.5t149 -30.5q90 0 151.5 29t109.5 82v842h188v-1117z" />
    <glyph glyph-name="partialdiff" unicode="&#xca;" horiz-adv-x="1118" 
d="M1033 837q0 -68 -7.5 -153.5t-25.5 -170.5t-48 -170t-74 -153q-82 -123 -178.5 -172t-205.5 -49q-190 0 -308.5 123.5t-118.5 331.5q0 228 130.5 372.5t326.5 144.5q87 0 163 -26t151 -91q2 26 2.5 53t0.5 58q0 216 -75 317.5t-221 101.5q-79 0 -165 -31t-162 -87h-13
v194q79 44 179.5 66.5t187.5 22.5q140 0 236.5 -56t155.5 -177q41 -86 55 -191t14 -258zM832 678q-56 46 -129 73.5t-143 27.5q-134 0 -213.5 -89t-79.5 -263q0 -146 63.5 -222t169.5 -76q143 0 230 143t102 406z" />
    <glyph glyph-name="summation" unicode="&#xcb;" horiz-adv-x="1303" 
d="M1228 -189h-1102v191l626 668l-616 631v188h1053v-176h-807l601 -598v-72l-628 -656h873v-176z" />
    <glyph glyph-name="product" unicode="&#xcc;" horiz-adv-x="1393" 
d="M1237 1489v-1678h-198v1502h-685v-1502h-198v1678h1081z" />
    <glyph glyph-name="pi1" unicode="&#xcd;" horiz-adv-x="1154" 
d="M1018 0h-188v955h-506v-955h-188v1117h882v-1117z" />
    <glyph glyph-name="integral" unicode="&#xce;" horiz-adv-x="1118" 
d="M1048 1369h-10q-29 10 -80.5 18.5t-80.5 8.5q-127 0 -175.5 -59.5t-48.5 -211.5v-1123q0 -210 -105.5 -317.5t-283.5 -107.5q-48 0 -94 4.5t-96 14.5v178h10q38 -11 82 -19t75 -8q127 0 175.5 59.5t48.5 211.5v1123q0 210 105 317.5t284 107.5q58 0 105 -5.5t89 -13.5
v-178z" />
    <glyph glyph-name="ordfeminine" unicode="&#xcf;" horiz-adv-x="1010" 
d="M874 566h-166v91l-51 -38.5t-63 -37.5q-41 -19 -80.5 -29.5t-109.5 -10.5q-124 0 -207 83.5t-83 214.5q0 104 43 169.5t123 103.5q75 36 189 51t239 21v19q0 52 -16.5 84t-48.5 50q-29 17 -72 22.5t-89 5.5q-78 0 -158.5 -23.5t-119.5 -37.5h-15v170q44 13 131.5 29
t162.5 16q192 0 291.5 -76.5t99.5 -248.5v-628zM708 802v243q-65 -4 -151 -12t-137 -23q-60 -17 -97 -55.5t-37 -105.5q0 -75 44 -114t131 -39q76 0 136.5 33t110.5 73z" />
    <glyph glyph-name="ordmasculine" unicode="&#xd1;" horiz-adv-x="1010" 
d="M926 1030q0 -234 -117 -362t-303 -128q-193 0 -307 131.5t-114 358.5q0 233 117 361.5t304 128.5t303.5 -127t116.5 -363zM746 1030q0 173 -64.5 256.5t-175.5 83.5t-176 -82.5t-65 -257.5q0 -169 64 -254.5t177 -85.5q111 0 175.5 85.5t64.5 254.5z" />
    <glyph glyph-name="Ohm" unicode="&#xd2;" horiz-adv-x="1438" 
d="M1403 0h-559v387q61 38 120.5 83.5t99.5 101.5q45 62 68.5 133t23.5 188q0 95 -26.5 179t-80.5 145q-53 61 -136 96.5t-190 35.5q-109 0 -191 -35t-140 -98q-53 -58 -81.5 -144.5t-28.5 -178.5q0 -109 26.5 -187.5t70.5 -134.5q45 -57 104 -101.5t119 -82.5v-387h-559
v174h393v124q-73 42 -138 101.5t-115 134.5q-50 76 -78.5 166.5t-28.5 192.5q0 139 43.5 250t128.5 198q81 83 204 131t271 48t268 -46.5t203 -131.5q82 -84 125 -198.5t43 -250.5q0 -103 -27.5 -193.5t-74.5 -164.5t-111 -134t-139 -103v-124h393v-174z" />
    <glyph glyph-name="ae" unicode="&#xd3;" horiz-adv-x="1802" 
d="M817 298q-19 54 -29 119.5t-10 140.5q-95 -3 -189.5 -8.5t-169.5 -26.5q-74 -20 -121 -66t-47 -127q0 -95 56 -141.5t167 -46.5q91 0 184 44t159 112zM1340 138q65 0 125.5 14.5t106.5 35.5q51 23 86 44.5t58 40.5h11v-205l-82.5 -32.5t-88.5 -30.5q-55 -15 -99.5 -23
t-114.5 -8q-161 0 -276 52t-189 155l-64.5 -59.5t-91.5 -68.5q-65 -38 -134.5 -60t-179.5 -22q-146 0 -247.5 97t-101.5 249q0 129 53 204t150 117q92 39 231.5 52t293.5 16v58q0 65 -21.5 108t-60.5 67q-36 22 -87.5 31.5t-116.5 9.5q-81 0 -176.5 -26.5t-152.5 -51.5h-15
v191q49 14 151.5 33.5t193.5 19.5q160 0 260 -48t153 -136q66 81 165 133.5t217 52.5q224 0 338.5 -134.5t114.5 -372.5v-82h-788q0 -114 30 -195.5t83 -132.5q53 -50 120 -71.5t146 -21.5zM1567 703q-5 59 -20.5 112.5t-47.5 92.5q-31 38 -85 61.5t-127 23.5
q-78 0 -129.5 -21.5t-94.5 -62.5q-40 -38 -64.5 -92.5t-34.5 -113.5h603z" />
    <glyph glyph-name="oslash" unicode="&#xd4;" horiz-adv-x="1112" 
d="M1055 558q0 -282 -136 -435t-362 -153q-79 0 -145 20.5t-124 56.5l-123 -194h-124l168 261q-72 76 -112 187t-40 257q0 280 137.5 434.5t362.5 154.5q75 0 142 -20t124 -57l108 170h125l-152 -236q71 -77 111 -186t40 -260zM735 932q-34 26 -78 40t-100 14
q-147 0 -228 -107.5t-81 -320.5q0 -97 14.5 -169.5t43.5 -126.5zM864 558q0 99 -14.5 173t-42.5 125l-429 -669q38 -29 79.5 -42.5t99.5 -13.5q145 0 226 106.5t81 320.5z" />
    <glyph glyph-name="questiondown" unicode="&#xd5;" horiz-adv-x="970" 
d="M632 1278h-204v211h204v-211zM861 40q-79 -30 -167 -50t-195 -20q-205 0 -323 104.5t-118 275.5q0 94 30 168t89 141q53 59 122.5 106.5l144.5 95.5v228h179v-305l-131.5 -81t-115.5 -89q-51 -48 -82.5 -109t-31.5 -140q0 -113 71 -168.5t185 -55.5q99 0 191 34.5
t141 68.5h11v-204z" />
    <glyph glyph-name="exclamdown" unicode="&#xd6;" horiz-adv-x="680" 
d="M442 1278h-204v211h204v-211zM452 0h-224l28 1079h166z" />
    <glyph glyph-name="logicalnot" unicode="&#xd8;" horiz-adv-x="1490" 
d="M1323 57h-171v545h-995v160h1166v-705z" />
    <glyph glyph-name="radical" unicode="&#xd9;" horiz-adv-x="1490" 
d="M1554 1789l-790 -1940h-104l-342 993h-237v139h393l265 -797l653 1605h162z" />
    <glyph glyph-name="florin" unicode="&#xda;" horiz-adv-x="1118" 
d="M1087 1320h-10q-27 10 -78.5 23.5t-89.5 13.5q-112 0 -162 -60.5t-72 -213.5l-29 -199h292v-138h-310l-70 -511q-32 -231 -137 -334t-286 -103q-39 0 -86.5 4.5t-97.5 13.5v181h10q28 -10 77.5 -23.5t90.5 -13.5q112 0 163 61t71 213l72 512h-178v138h196l27 198
q17 123 54 206.5t92 136.5q52 49 125.5 71.5t151.5 22.5q50 0 91 -4.5t93 -13.5v-181z" />
    <glyph glyph-name="approxequal" unicode="&#xdb;" horiz-adv-x="1490" 
d="M1298 1104q-19 -195 -100.5 -293.5t-235.5 -98.5q-69 0 -136.5 37t-120.5 83q-28 24 -90.5 65t-105.5 41q-72 0 -105 -47t-59 -172h-155q21 181 104 279t233 98q66 0 134.5 -36.5t122.5 -82.5q36 -30 94.5 -68.5t101.5 -38.5q69 0 106 53.5t55 180.5h157zM1299 588
q-23 -185 -102.5 -282t-235.5 -97q-66 0 -134.5 37t-122.5 83q-37 31 -95 68.5t-101 37.5q-72 0 -107.5 -55.5t-53.5 -177.5h-157q17 192 102 291.5t234 99.5q71 0 138.5 -37.5t118.5 -81.5q31 -26 90 -66.5t106 -40.5q70 0 104 50t59 171h157z" />
    <glyph glyph-name="glyph168" unicode="&#xdc;" horiz-adv-x="1268" 
d="M1278 0h-1288l522 1489h244zM1010 172l-381 1120l-380 -1120h761z" />
    <glyph glyph-name="guillemotleft" unicode="&#xdf;" horiz-adv-x="1174" 
d="M1043 191l-488 419v85l488 418v-188l-317 -273l317 -273v-188zM613 162l-510 446v89l510 445v-196l-331 -294l331 -294v-196z" />
    <glyph glyph-name="guillemotright" unicode="&#xe0;" horiz-adv-x="1174" 
d="M1071 608l-510 -446v196l331 294l-331 294v196l510 -445v-89zM619 610l-488 -419v188l317 273l-317 273v188l488 -418v-85z" />
    <glyph glyph-name="ellipsis" unicode="&#xe1;" horiz-adv-x="1674" 
d="M1497 0h-204v223h204v-223zM939 0h-204v223h204v-223zM381 0h-204v223h204v-223z" />
    <glyph glyph-name="Agrave" unicode="&#xe2;" horiz-adv-x="1228" 
d="M-10 0l502 1489h244l502 -1489h-209l-135 416h-569l-135 -416h-200zM839 585l-230 702l-229 -702h459zM769 1675h-149l-273 374h243z" />
    <glyph glyph-name="Atilde" unicode="&#xe3;" horiz-adv-x="1228" 
d="M-10 0l502 1489h244l502 -1489h-209l-135 416h-569l-135 -416h-200zM839 585l-230 702l-229 -702h459zM1010 1965q-10 -156 -74.5 -234t-171.5 -78q-52 0 -96 19t-86 59q-44 41 -76 62.5t-63 21.5q-49 0 -68.5 -45t-23.5 -121h-140q7 154 76 232.5t169 78.5
q51 0 94 -19.5t86 -57.5q43 -39 77.5 -59.5t63.5 -20.5q47 0 68.5 45t24.5 117h140z" />
    <glyph glyph-name="Otilde" unicode="&#xe4;" horiz-adv-x="1449" 
d="M1204 1318q85 -98 132 -243t47 -331q0 -181 -46 -327t-133 -245q-91 -104 -212.5 -153.5t-267.5 -49.5q-151 0 -272 51t-208 152q-86 99 -132 244t-46 328q0 188 46.5 330t132.5 244q86 99 207.5 150.5t271.5 51.5q152 0 274 -53t206 -149zM1177 744q0 148 -32 262
t-90 189q-59 77 -142.5 115.5t-187.5 38.5q-108 0 -188.5 -37.5t-142.5 -116.5q-59 -76 -90.5 -191t-31.5 -260q0 -293 123 -448.5t330 -155.5t329.5 155.5t122.5 448.5zM1110 1985q-10 -156 -74.5 -234t-171.5 -78q-52 0 -96 19t-86 59q-44 41 -76 62.5t-63 21.5
q-49 0 -68.5 -45t-23.5 -121h-140q7 154 76 232.5t169 78.5q51 0 94 -19.5t86 -57.5q43 -39 77.5 -59.5t63.5 -20.5q47 0 68.5 45t24.5 117h140z" />
    <glyph glyph-name="OE" unicode="&#xe5;" horiz-adv-x="2000" 
d="M1932 0h-1031q-184 0 -308 26t-225 92q-144 95 -223 253.5t-79 374.5q0 209 84.5 370.5t220.5 252.5q89 60 209.5 90t318.5 30h1033v-176h-723v-408h673v-176h-673v-553h723v-176zM1012 171v1147h-119q-148 0 -241.5 -22.5t-172.5 -75.5q-103 -68 -155 -188t-52 -289
q0 -172 57 -293.5t169 -189.5q83 -50 173.5 -69.5t219.5 -19.5h121z" />
    <glyph glyph-name="oe" unicode="&#xe6;" horiz-adv-x="1861" 
d="M1625 683q-4 157 -71 233.5t-202 76.5q-128 0 -214.5 -82t-98.5 -228h586zM856 558q0 217 -78.5 322.5t-223.5 105.5q-148 0 -225.5 -110.5t-77.5 -317.5q0 -210 78.5 -318.5t224.5 -108.5q144 0 223 107.5t79 319.5zM1403 138q62 0 121.5 14t107.5 36q51 23 86 44.5
t58 40.5h11v-205l-82 -32.5t-88 -30.5q-55 -15 -99.5 -23t-112.5 -8q-147 0 -264.5 52.5t-188.5 152.5q-67 -103 -164.5 -156.5t-233.5 -53.5q-231 0 -364 158t-133 431q0 278 135 434t362 156q131 0 234.5 -55t167.5 -156q67 101 172.5 156t234.5 55q215 0 330 -133
t115 -374v-102h-769q0 -193 97 -297t267 -104z" />
    <glyph glyph-name="endash" unicode="&#xe7;" horiz-adv-x="1118" 
d="M1122 572h-1126v160h1126v-160z" />
    <glyph glyph-name="emdash" unicode="&#xe8;" horiz-adv-x="1862" 
d="M1866 572h-1870v160h1870v-160z" />
    <glyph glyph-name="quotedblleft" unicode="&#xe9;" horiz-adv-x="822" 
d="M725 997h-134l-261 559h238zM331 997h-134l-261 559h238z" />
    <glyph glyph-name="quotedblright" unicode="&#xea;" horiz-adv-x="822" 
d="M896 1556l-261 -559h-134l157 559h238zM502 1556l-261 -559h-134l157 559h238z" />
    <glyph glyph-name="quoteleft" unicode="&#xeb;" horiz-adv-x="432" 
d="M335 997h-138l-261 559h242z" />
    <glyph glyph-name="quoteright" unicode="&#xec;" horiz-adv-x="432" 
d="M496 1556l-261 -559h-138l157 559h242z" />
    <glyph glyph-name="divide" unicode="&#xed;" horiz-adv-x="1490" 
d="M864 1012h-238v275h238v-275zM1333 572h-1176v160h1176v-160zM864 17h-238v275h238v-275z" />
    <glyph glyph-name="lozenge" unicode="&#xee;" horiz-adv-x="1490" 
d="M1371 654l-626 -710l-626 710l626 710zM1153 654l-408 476l-408 -476l408 -474z" />
    <glyph glyph-name="ydieresis" unicode="&#xef;" horiz-adv-x="1020" 
d="M1014 1117l-601 -1529h-201l200 466l-406 1063h203l305 -827l304 827h196zM833 1304h-201v195h201v-195zM420 1304h-201v195h201v-195z" />
    <glyph glyph-name="Ydieresis" unicode="&#xf1;" horiz-adv-x="1180" 
d="M1193 1489l-503 -830v-659h-198v638l-503 851h220l384 -657l390 657h210zM900 1677h-201v195h201v-195zM487 1677h-201v195h201v-195z" />
    <glyph glyph-name="fraction" unicode="&#xf2;" horiz-adv-x="886" 
d="M916 1489l-780 -1489h-165l780 1489h165z" />
    <glyph glyph-name="Euro" unicode="&#xf3;" horiz-adv-x="1118" 
d="M945 662l-27 -138h-620q44 -170 146 -268q116 -112 290 -112q187 0 324 92h14v-193q-170 -70 -339 -70q-274 0 -444 158q-154 143 -203 393h-114l28 138h69q-3 40 -3 81q0 29 1 57h-95l28 138h83q46 262 207 414q174 164 446 164q178 0 336 -71v-195h-16q-141 97 -322 97
q-184 0 -302 -123q-101 -106 -140 -286h709l-27 -138h-700q-2 -28 -2 -57q0 -41 3 -81h670z" />
    <glyph glyph-name="guilsinglleft" unicode="&#xf4;" horiz-adv-x="784" 
d="M633 172l-510 436v89l510 435v-199l-331 -281l331 -281v-199z" />
    <glyph glyph-name="guilsinglright" unicode="&#xf5;" horiz-adv-x="784" 
d="M661 608l-510 -436v199l331 281l-331 281v199l510 -435v-89z" />
    <glyph glyph-name="fi" unicode="&#xf6;" horiz-adv-x="1092" 
d="M954 0h-188v964h-422v-964h-188v961h-127v156h127v57q0 182 97 287t250 105q52 0 94.5 -5.5t70.5 -9.5v-172h-10q-16 6 -53 14.5t-79 8.5q-105 0 -146.5 -54.5t-41.5 -172.5v-58h616v-1117zM954 1304h-202v195h202v-195z" />
    <glyph glyph-name="fl" unicode="&#xf7;" horiz-adv-x="1086" 
d="M948 0h-188v1404q-27 3 -66.5 5t-63.5 2q-162 0 -227 -53.5t-65 -193.5v-47h243v-156h-237v-961h-188v961h-127v156h127v49q0 103 32 177t90 125q55 48 142.5 73t187.5 25q60 0 131 -7l111 -11l98 8v-1556z" />
    <glyph glyph-name="daggerdbl" unicode="&#xf8;" horiz-adv-x="1118" 
d="M983 507l-363 5l5 -388h-132l5 388l-363 -5v129l363 -5v418l-363 -5v129l363 -5l-5 388h132l-5 -388l363 5v-129l-363 5v-418l363 5v-129z" />
    <glyph glyph-name="glyph194" unicode="&#xf9;" horiz-adv-x="620" 
d="M429 516h-239v273h239v-273z" />
    <glyph glyph-name="quotesinglbase" unicode="&#xfa;" horiz-adv-x="432" 
d="M386 283l-261 -559h-138l157 559h242z" />
    <glyph glyph-name="quotedblbase" unicode="&#xfb;" horiz-adv-x="814" 
d="M781 283l-261 -559h-134l157 559h238zM387 283l-261 -559h-134l157 559h238z" />
    <glyph glyph-name="perthousand" unicode="&#xfc;" horiz-adv-x="2848" 
d="M807 1076q0 -225 -90.5 -333.5t-261.5 -108.5q-174 0 -263.5 110t-89.5 331q0 224 91 333t262 109q174 0 263 -110t89 -331zM1473 1489l-780 -1489h-165l780 1489h165zM1897 413q0 -225 -90.5 -333.5t-261.5 -108.5q-174 0 -263.5 110t-89.5 331q0 224 91 333t262 109
q174 0 263 -110t89 -331zM629 1076q0 152 -35.5 230t-138.5 78t-139 -79t-36 -230q0 -150 34 -229t141 -79q103 0 138.5 79t35.5 230zM1719 413q0 152 -35.5 230t-138.5 78t-139 -79t-36 -230q0 -150 34 -229t141 -79q103 0 138.5 79t35.5 230zM2741 413
q0 -225 -90.5 -333.5t-261.5 -108.5q-174 0 -263.5 110t-89.5 331q0 224 91 333t262 109q174 0 263 -110t89 -331zM2563 413q0 152 -35.5 230t-138.5 78t-139 -79t-36 -230q0 -150 34 -229t141 -79q103 0 138.5 79t35.5 230z" />
    <glyph glyph-name="Acircumflex" unicode="&#xff;" horiz-adv-x="1228" 
d="M-10 0l502 1489h244l502 -1489h-209l-135 416h-569l-135 -416h-200zM839 585l-230 702l-229 -702h459zM940 1650h-159l-185 256l-184 -256h-155l228 379h227z" />
    <glyph glyph-name="Ecircumflex" unicode="&#x2260;" horiz-adv-x="1149" 
d="M151 0v1489h931v-176h-733v-408h683v-176h-683v-553h733v-176h-931zM961 1670h-159l-185 256l-184 -256h-155l228 379h227z" />
    <glyph glyph-name="Aacute" unicode="&#x20a0;" horiz-adv-x="1228" 
d="M-10 0l502 1489h244l502 -1489h-209l-135 416h-569l-135 -416h-200zM839 585l-230 702l-229 -702h459zM866 2049l-273 -374h-149l179 374h243z" />
    <glyph glyph-name="Edieresis" unicode="&#x160;" horiz-adv-x="1149" 
d="M151 0v1489h931v-176h-733v-408h683v-176h-683v-553h733v-176h-931zM966 1677h-201v195h201v-195zM553 1677h-201v195h201v-195z" />
    <glyph glyph-name="Egrave" unicode="&#x161;" horiz-adv-x="1149" 
d="M151 0v1489h931v-176h-733v-408h683v-176h-683v-553h733v-176h-931zM754 1675h-149l-273 374h243z" />
    <glyph glyph-name="Iacute" unicode="&#xa6;" horiz-adv-x="764" 
d="M671 0h-578v152h190v1185h-190v152h578v-152h-190v-1185h190v-152zM661 2049l-273 -374h-149l179 374h243z" />
    <glyph glyph-name="Icircumflex" unicode="&#xb2;" horiz-adv-x="764" 
d="M671 0h-578v152h190v1185h-190v152h578v-152h-190v-1185h190v-152zM729 1670h-159l-185 256l-184 -256h-155l228 379h227z" />
    <glyph glyph-name="Idieresis" unicode="&#xb3;" horiz-adv-x="764" 
d="M671 0h-578v152h190v1185h-190v152h578v-152h-190v-1185h190v-152zM694 1677h-201v195h201v-195zM281 1677h-201v195h201v-195z" />
    <glyph glyph-name="Igrave" unicode="&#xb9;" horiz-adv-x="764" 
d="M671 0h-578v152h190v1185h-190v152h578v-152h-190v-1185h190v-152zM533 1675h-149l-273 374h243z" />
    <glyph glyph-name="Oacute" unicode="&#xbc;" horiz-adv-x="1449" 
d="M1204 1318q85 -98 132 -243t47 -331q0 -181 -46 -327t-133 -245q-91 -104 -212.5 -153.5t-267.5 -49.5q-151 0 -272 51t-208 152q-86 99 -132 244t-46 328q0 188 46.5 330t132.5 244q86 99 207.5 150.5t271.5 51.5q152 0 274 -53t206 -149zM1177 744q0 148 -32 262
t-90 189q-59 77 -142.5 115.5t-187.5 38.5q-108 0 -188.5 -37.5t-142.5 -116.5q-59 -76 -90.5 -191t-31.5 -260q0 -293 123 -448.5t330 -155.5t329.5 155.5t122.5 448.5zM1002 2049l-273 -374h-149l179 374h243z" />
    <glyph glyph-name="Ocircumflex" unicode="&#xbd;" horiz-adv-x="1449" 
d="M1204 1318q85 -98 132 -243t47 -331q0 -181 -46 -327t-133 -245q-91 -104 -212.5 -153.5t-267.5 -49.5q-151 0 -272 51t-208 152q-86 99 -132 244t-46 328q0 188 46.5 330t132.5 244q86 99 207.5 150.5t271.5 51.5q152 0 274 -53t206 -149zM1177 744q0 148 -32 262
t-90 189q-59 77 -142.5 115.5t-187.5 38.5q-108 0 -188.5 -37.5t-142.5 -116.5q-59 -76 -90.5 -191t-31.5 -260q0 -293 123 -448.5t330 -155.5t329.5 155.5t122.5 448.5zM1055 1670h-159l-185 256l-184 -256h-155l228 379h227z" />
    <glyph glyph-name="Ograve" unicode="&#xbe;" horiz-adv-x="1449" 
d="M1204 1318q85 -98 132 -243t47 -331q0 -181 -46 -327t-133 -245q-91 -104 -212.5 -153.5t-267.5 -49.5q-151 0 -272 51t-208 152q-86 99 -132 244t-46 328q0 188 46.5 330t132.5 244q86 99 207.5 150.5t271.5 51.5q152 0 274 -53t206 -149zM1177 744q0 148 -32 262
t-90 189q-59 77 -142.5 115.5t-187.5 38.5q-108 0 -188.5 -37.5t-142.5 -116.5q-59 -76 -90.5 -191t-31.5 -260q0 -293 123 -448.5t330 -155.5t329.5 155.5t122.5 448.5zM851 1675h-149l-273 374h243z" />
    <glyph glyph-name="Uacute" unicode="&#xd0;" horiz-adv-x="1343" 
d="M671 -31q-131 0 -229 34.5t-167 102.5q-78 78 -110 186.5t-32 267.5v929h198v-929q0 -103 13 -173.5t51 -126.5q40 -60 108.5 -91t167.5 -31q93 0 165 31t112 91q37 57 50.5 126t13.5 169v934h198v-929q0 -155 -31.5 -266t-110.5 -188q-71 -69 -165.5 -103t-231.5 -34z
M995 2049l-273 -374h-149l179 374h243z" />
    <glyph glyph-name="Ucircumflex" unicode="&#xd7;" horiz-adv-x="1343" 
d="M671 -31q-131 0 -229 34.5t-167 102.5q-78 78 -110 186.5t-32 267.5v929h198v-929q0 -103 13 -173.5t51 -126.5q40 -60 108.5 -91t167.5 -31q93 0 165 31t112 91q37 57 50.5 126t13.5 169v934h198v-929q0 -155 -31.5 -266t-110.5 -188q-71 -69 -165.5 -103t-231.5 -34z
M1006 1670h-159l-185 256l-184 -256h-155l228 379h227z" />
    <glyph glyph-name="Ugrave" unicode="&#xdd;" horiz-adv-x="1343" 
d="M671 -31q-131 0 -229 34.5t-167 102.5q-78 78 -110 186.5t-32 267.5v929h198v-929q0 -103 13 -173.5t51 -126.5q40 -60 108.5 -91t167.5 -31q93 0 165 31t112 91q37 57 50.5 126t13.5 169v934h198v-929q0 -155 -31.5 -266t-110.5 -188q-71 -69 -165.5 -103t-231.5 -34z
M854 1675h-149l-273 374h243z" />
    <glyph glyph-name="dotlessi" unicode="&#xde;" horiz-adv-x="468" 
d="M328 0h-188v1117h188v-1117z" />
    <glyph glyph-name="circumflex" unicode="&#xf0;" horiz-adv-x="1118" 
d="M901 1297h-159l-185 256l-184 -256h-155l228 379h227z" />
    <glyph glyph-name="tilde" unicode="&#xfd;" horiz-adv-x="1118" 
d="M960 1632q-10 -156 -74.5 -234t-171.5 -78q-52 0 -96 19t-86 59q-44 41 -76 62.5t-63 21.5q-49 0 -68.5 -45t-23.5 -121h-140q7 154 76 232.5t169 78.5q51 0 94 -19.5t86 -57.5q43 -39 77.5 -59.5t63.5 -20.5q47 0 68.5 45t24.5 117h140z" />
    <glyph glyph-name="glyph216" unicode="&#xfe;" horiz-adv-x="1118" 
d="M936 1335h-754v154h754v-154z" />
    <glyph glyph-name="breve" unicode="&#x25cc;" horiz-adv-x="1079" 
d="M643 43q0 20 13.5 35.5t33.5 15.5q21 0 35 -15.5t14 -35.5t-14 -33.5t-35 -13.5q-20 0 -33.5 13.5t-13.5 33.5zM645 944q0 21 14.5 36t34.5 15q21 0 35 -15t14 -36q0 -20 -14 -33.5t-35 -13.5q-20 0 -34.5 13.5t-14.5 33.5zM618 76q0 -21 -14 -34t-35 -13q-20 0 -34.5 13
t-14.5 34q0 20 14.5 34.5t34.5 14.5q21 0 35 -14.5t14 -34.5zM516 150q0 -21 -14.5 -35.5t-34.5 -14.5q-21 0 -35 14.5t-14 35.5q0 20 14 34.5t35 14.5q20 0 34.5 -14.5t14.5 -34.5zM446 258q0 -20 -14 -34.5t-35 -14.5q-20 0 -34.5 14.5t-14.5 34.5q0 21 14.5 35t34.5 14
q21 0 35 -14t14 -35zM408 375q0 -21 -14.5 -35t-35.5 -14q-20 0 -34.5 14t-14.5 35q0 20 14.5 34.5t34.5 14.5q21 0 35.5 -14.5t14.5 -34.5zM399 494q0 -21 -14 -34.5t-35 -13.5q-20 0 -34.5 13.5t-14.5 34.5q0 20 14.5 35.5t34.5 15.5q21 0 35 -15.5t14 -35.5zM408 612
q0 -20 -14.5 -34.5t-35.5 -14.5q-20 0 -34.5 14.5t-14.5 34.5q0 21 14.5 35.5t34.5 14.5q21 0 35.5 -14.5t14.5 -35.5zM449 729q0 -20 -14.5 -34.5t-35.5 -14.5q-20 0 -34.5 14.5t-14.5 34.5q0 21 14.5 35t34.5 14q21 0 35.5 -14t14.5 -35zM514 838q0 -21 -14.5 -35.5
t-34.5 -14.5q-21 0 -34 14.5t-13 35.5q0 20 13 34.5t34 14.5q20 0 34.5 -14.5t14.5 -34.5zM616 913q0 -20 -14 -33.5t-35 -13.5q-20 0 -34.5 13.5t-14.5 33.5q0 21 14.5 36.5t34.5 15.5q21 0 35 -15.5t14 -36.5zM762 76q0 20 14.5 34.5t34.5 14.5t34.5 -14.5t14.5 -34.5
q0 -21 -14.5 -34t-34.5 -13t-34.5 13t-14.5 34zM864 150q0 20 14.5 34.5t34.5 14.5q21 0 35.5 -14.5t14.5 -34.5q0 -21 -14.5 -35.5t-35.5 -14.5q-20 0 -34.5 14.5t-14.5 35.5zM934 258q0 21 14.5 35t34.5 14q21 0 35 -14t14 -35q0 -20 -14 -34.5t-35 -14.5
q-20 0 -34.5 14.5t-14.5 34.5zM973 375q0 20 14 34.5t35 14.5q20 0 34.5 -14.5t14.5 -34.5q0 -21 -14.5 -35t-34.5 -14q-21 0 -35 14t-14 35zM981 494q0 20 14.5 35.5t34.5 15.5q21 0 35 -15.5t14 -35.5q0 -21 -14 -34.5t-35 -13.5q-20 0 -34.5 13.5t-14.5 34.5zM973 612
q0 21 14 35.5t35 14.5q20 0 34.5 -14.5t14.5 -35.5q0 -20 -14.5 -34.5t-34.5 -14.5q-21 0 -35 14.5t-14 34.5zM932 729q0 21 14.5 35t34.5 14t34.5 -14t14.5 -35q0 -20 -14.5 -34.5t-34.5 -14.5t-34.5 14.5t-14.5 34.5zM866 838q0 20 13.5 33.5t33.5 13.5q21 0 36.5 -13.5
t15.5 -33.5q0 -21 -15.5 -35.5t-36.5 -14.5q-20 0 -33.5 14.5t-13.5 35.5zM766 913q0 21 13.5 36.5t33.5 15.5q21 0 35 -15.5t14 -36.5q0 -20 -14 -33.5t-35 -13.5q-20 0 -33.5 13.5t-13.5 33.5z" />
    <glyph glyph-name="dotaccent" unicode="&#x200b;" 
 />
    <glyph glyph-name="ring" unicode="&#x200c;" horiz-adv-x="63" 
d="M0 0v1610h63v-1610h-63z" />
    <glyph glyph-name="cedilla" unicode="&#x200d;" horiz-adv-x="61" 
d="M184 1499l-123 123v-1622h-61v1620l-118 -121l-41 45l151 152l-151 151l41 45l151 -153l151 153l43 -45l-153 -151l153 -152z" />
    <glyph glyph-name="hungarumlaut" unicode="&#x1780;" horiz-adv-x="1083" 
d="M977 1229q0 -27 -30 -100q-30 -79 -48 -79q-20 0 -123 90q-103 91 -107 91q-17 0 -89 -63q-71 -62 -77 -62q-29 0 -219 103q-103 -63 -103 -85q0 -6 50 -24q51 -18 51 -35q0 -25 -24 -32q-14 19 -87 39q-73 19 -73 30q0 34 79 170t103 136q19 0 142 -61q125 -61 143 -61
q13 0 89 61t83 61t102 -84q94 -84 108 -84q17 6 23.5 6t6.5 -17zM909 0h-187v853q0 40 -14.5 71t-41 51.5t-62 31t-77.5 10.5q-86 0 -144 -37q-67 -46 -67 -127v-853h-189v808q0 116 149 185q121 57 251 57q135 0 244 -55q138 -71 138 -187v-808z" />
    <glyph glyph-name="ogonek" 
d="M-199 -739h-188v496q0 113 -194 113q-219 0 -219 -113v-496h-189v520q0 95 189 119q29 4 94 6t168 2q339 0 339 -127v-520z" />
    <glyph glyph-name="caron" 
d="M-199 -1404h-188v414q0 113 -194 113q-219 0 -219 -113v-414h-189v438q0 95 189 119q29 4 94 6t168 2q339 0 339 -127v-438z" />
    <glyph glyph-name="Lslash" horiz-adv-x="1669" 
d="M909 4h-187v853q0 40 -14.5 71t-41 51.5t-62 31t-77.5 10.5q-85 0 -144 -38q-67 -45 -67 -126v-853h-189v807q0 117 149 186q119 58 251 58q130 0 244 -56q138 -69 138 -188v-807zM1396 1312q71 -122 71 -222v-1090h-198v1033q10 205 -132 233q-35 12 -66 10
q-117 -6 -198 -75l-64 -48l-44 -19l-46 -7q-58 4 -144 38q-9 0 -74 28q-49 16 -71 21q-20 4 -57 9q-19 2 -33 3t-24 1q-121 -24 -159 -74q-13 -20 -11 -29q76 -20 87 -25q13 -7 102 -7l-34 -50q-32 -25 -59.5 -26t-46.5 15l-68.5 36.5t-57.5 28.5q11 71 160 184
q152 113 225 113q111 0 188 -74q76 -73 133 -73q217 147 374 147q131 0 211 -56z" />
    <glyph glyph-name="lslash" horiz-adv-x="1671" 
d="M909 4h-187v853q0 40 -14.5 71t-41 51.5t-62 31t-77.5 10.5q-85 0 -144 -38q-67 -45 -67 -126v-853h-189v807q0 117 149 186q119 58 251 58q130 0 244 -56q138 -69 138 -188v-807zM1568 1667q0 -217 -172 -355q71 -122 71 -222v-1090h-198v1033q10 205 -132 233
q-35 12 -66 10q-117 -6 -198 -75l-64 -48l-44 -19l-46 -7q-58 4 -144 38q-9 0 -74 28q-49 16 -71 21q-20 4 -57 9q-19 2 -33 3t-24 1q-121 -24 -159 -74q-13 -20 -11 -29q76 -20 87 -25q13 -7 102 -7l-34 -50q-32 -25 -59.5 -26t-46.5 15l-68.5 36.5t-57.5 28.5
q11 71 160 184q152 113 225 113q111 0 188 -74q76 -73 133 -73q217 147 374 147q131 0 211 -56q42 40 74 128q27 78 27 142q0 37 -12 75q-19 49 -51 49q-15 0 -52 -21q-38 -20 -67 -20q-46 0 -75 41q-25 34 -25 83q0 52 48 87q46 34 109 34q113 0 177 -85q55 -73 55 -183z
" />
    <glyph glyph-name="Scaron" unicode="&#x1781;" horiz-adv-x="1083" 
d="M890 1053q0 -144 -157 -238q-43 -28 -287 -126q-156 -65 -156 -127v-301q0 -105 32 -152q39 -60 138 -60q100 0 168 63q68 65 68 165v342q123 74 187 161v-467q0 -104 -25 -157q-71 -156 -451 -156q-108 0 -196 49q-110 59 -110 157v346q0 90 161 158l148.5 57.5
l148.5 57.5q160 82 160 213q0 105 -81 203t-184 98q-61 0 -123 -65t-62 -124q0 -67 92 -84q93 -17 93 -79q0 -46 -59 -81q-49 -28 -103 -28q-97 0 -148 77q-46 67 -46 170q0 154 143 228q106 55 281 55q154 0 261 -101t107 -254z" />
    <glyph glyph-name="scaron" 
d="M-200 -270q0 -140 -331 -245l-273 -66q-10 -7 -10 -21q0 -50 95 -50q111 0 232 61q72 40 174 117q79 64 96 64q13 0 13 -13q0 -19 -32 -75q-48 -78 -96.5 -133.5t-100.5 -87.5q-104 -66 -262 -66q-111 0 -190 46q-104 57 -104 180q0 42 132 42q116 0 278 57
q208 67 208 164q0 117 -227 117q-68 0 -135 -30q-89 -38 -89 -103q0 -47 33 -47q12 0 29 7t27 7q34 0 34 -34q0 -77 -160 -77q-141 0 -141 135q0 116 152 178q112 45 234 45q127 0 239 -26q175 -46 175 -146z" />
    <glyph glyph-name="Zcaron" 
d="M-200 -949q0 -124 -331 -216l-136.5 -27l-136.5 -29q-10 -6 -10 -20q0 -43 95 -43q108 0 232 53q35 17 78.5 43t95.5 61q81 54 96 54q13 0 13 -11q0 -16 -32 -64q-94 -138 -197 -195q-104 -57 -262 -57q-111 0 -190 40q-104 51 -104 157q0 36 132 36q113 0 278 49
q208 61 208 146q0 100 -227 100q-70 0 -135 -25q-89 -33 -89 -89q0 -41 33 -41q11 0 28.5 5t27.5 5q34 0 34 -27q0 -68 -160 -68q-141 0 -141 117q0 101 152 155q115 40 234 40q131 0 239 -21q175 -42 175 -128z" />
    <glyph glyph-name="zcaron" horiz-adv-x="1678" 
d="M1457 1329q30 -41 30 -100v-1229h-198v1114q0 89 -50 154q-54 57 -154 65q-56 -6 -138 -45q-89 -76 -95 -74q38 -74 38 -161q0 -144 -157 -238q-43 -28 -287 -126q-156 -65 -156 -127v-301q0 -105 32 -152q39 -60 138 -60q100 0 168 63q68 65 68 165v342q123 74 187 161
v-467q0 -104 -25 -157q-71 -156 -451 -156q-108 0 -196 49q-110 59 -110 157v346q0 90 161 158l297 115q160 82 160 213q0 105 -81 203t-184 98q-61 0 -123 -65t-62 -124q0 -67 92 -84q93 -17 93 -79q0 -46 -59 -81q-49 -28 -103 -28q-97 0 -148 77q-46 67 -46 170
q0 154 143 228q106 55 281 55q157 0 260 -100l25 -24q32 32 110 69q120 57 178 57q48 5 90 5q154 0 232 -60z" />
    <glyph glyph-name="brokenbar" horiz-adv-x="1684" 
d="M1630 1678q0 -210 -171 -349q32 -41 32 -100v-1229h-200v1114q0 89 -50 154q-57 57 -156 65q-56 -6 -138 -45q-89 -76 -95 -74q38 -74 38 -161q0 -144 -157 -238q-43 -28 -287 -126q-156 -65 -156 -127v-301q0 -105 32 -152q39 -60 138 -60q100 0 168 63q68 65 68 165
v342q123 74 187 161v-467q0 -104 -25 -157q-71 -156 -451 -156q-108 0 -196 49q-110 59 -110 157v346q0 90 161 158l297 115q160 82 160 213q0 105 -81 203t-184 98q-61 0 -123 -65t-62 -124q0 -67 92 -84q93 -17 93 -79q0 -46 -59 -81q-49 -28 -103 -28q-97 0 -148 77
q-46 67 -46 170q0 154 143 228q106 55 281 55q157 0 260 -100l25 -24q32 32 110 69q120 57 178 57q222 0 322 -55q42 42 71 123q29 82 29 138q0 36 -17 76q-16 49 -51 49q-15 0 -55 -21q-41 -21 -70 -21q-53 0 -81 42q-27 36 -27 83q0 54 51 87q52 34 115 34q118 0 186 -83
q62 -77 62 -184z" />
    <glyph glyph-name="Eth" unicode="&#x1782;" horiz-adv-x="1083" 
d="M947 1248q0 -25 -30 -98q-29 -80 -48 -80t-122 90q-104 90 -107 90q-19 0 -89 -63q-71 -62 -77 -62q-26 0 -220 104q-102 -65 -102 -85q0 -6 50 -24t50 -36q0 -23 -23 -31q-15 20 -88 39q-72 19 -72 30q0 34 79 170q80 137 102 137q13 0 143 -62q125 -61 142 -61
q13 0 89 61q77 62 83 62q7 0 102 -84q94 -84 108 -84q18 5 24 5t6 -18zM881 19h-187v853q0 81 -56 123t-139 42q-85 0 -144 -38q-67 -46 -67 -127v-601q69 73 126 73q87 0 87 -85q0 -37 -21 -68q-19 -31 -54 -31q-21 0 -46 19t-47 19q-65 0 -138 -70q-60 -57 -96 -128v827
q0 117 149 186q121 57 251 57q135 0 244 -55q138 -69 138 -188v-808z" />
    <glyph glyph-name="eth" 
d="M-197 -711h-188v464q0 113 -194 113q-221 0 -221 -113v-270q88 61 168 61q101 0 101 -89q0 -39 -19 -70q-19 -34 -56 -34q-19 0 -51 23t-80 23q-74 0 -144 -30q-87 -35 -108 -93v503q0 95 189 119q29 4 94 6t170 2q339 0 339 -127v-488z" />
    <glyph glyph-name="Yacute" 
d="M-197 -1414h-188v395q0 113 -194 113q-221 0 -221 -113v-200q90 60 168 60q101 0 101 -88q0 -40 -19 -71q-19 -34 -56 -34q-19 0 -51 23t-80 23q-74 0 -144 -30q-87 -35 -108 -93v434q0 95 189 118q29 4 94 6t170 2q339 0 339 -126v-419z" />
    <glyph glyph-name="yacute" horiz-adv-x="1671" 
d="M909 19h-187v853q0 40 -14.5 71t-41 52t-62 31.5t-77.5 10.5q-85 0 -144 -38q-67 -46 -67 -127v-601q67 73 126 73q87 0 87 -85q0 -37 -21 -68q-19 -31 -54 -31q-21 0 -46 19t-47 19q-66 0 -139 -70q-59 -57 -95 -128v827q0 117 149 186q121 57 251 57q135 0 244 -55
q138 -69 138 -188v-808zM1396 1327q71 -122 71 -221v-1091h-198v1033q10 205 -132 234q-35 12 -66 10q-117 -6 -198 -75l-64 -48l-44 -19l-46 -6q-29 2 -65 11.5t-79 25.5q-9 0 -74 28q-50 17 -71 22q-10 2 -24 3.5l-33 3.5t-33 3t-24 1q-122 -23 -159 -73q-13 -18 -11 -29
q76 -20 87 -25q13 -7 102 -7l-34 -49q-32 -26 -59.5 -27t-46.5 14q-74 42 -126 66q11 71 160 183q152 113 225 113q112 0 188 -73q76 -72 133 -72q217 145 374 145q132 0 211 -55z" />
    <glyph glyph-name="Thorn" horiz-adv-x="1671" 
d="M909 19h-187v853q0 40 -14.5 71t-41 52t-62 31.5t-77.5 10.5q-85 0 -144 -38q-67 -46 -67 -127v-601q67 73 126 73q87 0 87 -85q0 -37 -21 -68q-19 -31 -54 -31q-21 0 -46 19t-47 19q-66 0 -139 -70q-59 -57 -95 -128v827q0 117 149 186q121 57 251 57q135 0 244 -55
q138 -69 138 -188v-808zM1568 1684q0 -218 -172 -357q71 -122 71 -221v-1091h-198v1033q10 205 -132 234q-35 12 -66 10q-117 -6 -198 -75l-64 -48l-44 -19l-46 -6q-29 2 -65 11.5t-79 25.5q-9 0 -74 28q-50 17 -71 22q-10 2 -24 3.5l-33 3.5t-33 3t-24 1q-122 -23 -159 -73
q-13 -18 -11 -29q76 -20 87 -25q13 -7 102 -7l-34 -49q-32 -26 -59.5 -27t-46.5 14q-74 42 -126 66q11 71 160 183q152 113 225 113q112 0 188 -73q76 -72 133 -72q217 145 374 145q132 0 211 -55q42 41 74 127q27 79 27 142q0 37 -12 75q-20 50 -51 50q-15 0 -52 -21
q-38 -21 -67 -21q-47 0 -75 42q-25 34 -25 83q0 54 48 87t109 33q113 0 177 -85q55 -73 55 -181z" />
    <glyph glyph-name="thorn" unicode="&#x1783;" horiz-adv-x="1778" 
d="M1768 1371q-42 -170 -170 -170q-14 0 -34.5 2t-46.5 6t-45.5 6t-32.5 2q-86 0 -130 -71q17 4 43 4q75 0 139 -26q81 -35 81 -97v-784q0 -118 -138 -188q-110 -55 -244 -55q-155 0 -295 89q-56 -38 -148 -64q-88 -25 -163 -25q-128 0 -245 57q-142 70 -142 186v897
q-37 -34 -73 -34q-55 0 -55 70q0 43 68 117q68 76 64 115q13 -42 98 -109t85 -98v-1003q0 -81 62 -125q52 -39 138 -39q82 0 141 39q65 44 65 125v783q0 10 3 33q3 22 3 32q0 81 -85 81q-15 0 -36 -3q7 32 92 141l80.5 99.5t33.5 43.5q60 -66 149 -66q46 0 145 29
q-42 -170 -171 -170q-14 0 -34 2t-46 6t-45.5 6t-32.5 2q-87 0 -131 -71q10 2 21 3t22 1q75 0 139 -26q82 -34 82 -97v-784q0 -81 66 -145q64 -64 145 -64q82 0 138 41q56 42 56 123v783q0 10 3 33q3 22 3 32q0 81 -85 81q-17 0 -36 -3q6 32 91 141l82 99.5t33 43.5
q58 -66 148 -66q47 0 145 29zM197 1165v164q-4 -21 -58 -70q-53 -50 -53 -86q0 -49 38 -49q32 0 73 41z" />
    <glyph glyph-name="minus" horiz-adv-x="494" 
d="M483 1371q-42 -170 -170 -170q-14 0 -34.5 2t-46.5 6t-45 6t-32 2q-87 0 -131 -71q42 7 70.5 10t47.5 3q147 0 147 -128l-2 -1498q0 -118 -127 -178q-96 -46 -230 -46q-215 0 -257 62q-29 -45 -139 -56q-20 -4 -162 -4q-282 0 -282 123v295q-3 -69 -60 -69q-64 0 -64 69
q0 28 14 59q8 16 137 56q138 40 162 57v-445q0 -69 45 -93q31 -14 108 -14q145 0 145 107v416h189v-438q0 -91 132 -91q102 0 142 22q59 32 59 123v1493q0 10 3 33q3 22 3 32q0 79 -86 79h-16t-18 -1q4 29 90 139l81 101t34 44q58 -66 148 -66q46 0 145 29z" />
    <glyph glyph-name="multiply" horiz-adv-x="494" 
d="M483 1371q-42 -170 -170 -170q-14 0 -34 2t-47 6q-23 4 -42 6t-35 2q-87 0 -131 -71q74 13 118 13q147 0 147 -128v-2221q0 -117 -129 -177q-98 -46 -230 -46q-215 0 -257 62q-32 -48 -139 -56q-14 -2 -53.5 -3t-108.5 -1q-282 0 -282 123v215q-3 -68 -60 -68
q-64 0 -64 68q0 29 14 60q10 18 137 55q133 40 162 57v-365q0 -69 45 -94q25 -13 108 -13q145 0 145 107v336h189v-358q0 -91 132 -91q98 0 142 21q59 32 59 123v2216l6 65q0 79 -86 79h-17h-8t-9 -1q1 26 90 139l20 23q85 108 95 122q58 -66 148 -66q46 0 145 29z" />
    <glyph glyph-name="onesuperior" horiz-adv-x="2356" 
d="M197 1171v164q-1 -18 -58 -70q-53 -48 -53 -85q0 -51 38 -51q32 0 73 42zM2155 1157v-1157h-174v1021q0 123 -85 150q-60 16 -115 23t-104 7q-70 0 -125 -10t-97 -24l-6 -2l-42 -18t-23 -11l-30 -16l-2 -4q78 0 139 -26q81 -33 81 -97v-744q0 -121 -138 -188
q-109 -55 -244 -55q-155 0 -295 89q-28 -20 -65.5 -35t-82.5 -28q-92 -26 -163 -26q-129 0 -245 58q-142 66 -142 185v897q-40 -34 -73 -34q-55 0 -55 69q0 44 66 116t66 113v4q15 -45 98 -110q85 -67 85 -97v-1003q0 -81 62 -125q55 -39 138 -39q82 0 141 39q65 44 65 125
v783l6 66q0 81 -85 81q-8 0 -16.5 -1.5l-19.5 -3.5q7 32 92 141q106 130 114 144q60 -66 149 -66q46 0 145 29q-42 -170 -171 -170q-14 0 -33.5 1.5t-47.5 5.5q-47 9 -77 9q-87 0 -131 -71q10 1 22 2t21 1q78 0 139 -26q82 -33 82 -96v-784q0 -83 64 -144q68 -65 147 -65
q83 0 138 40q56 41 56 124v811q-10 35 -33 57.5t-57 22.5q-5 0 -25 -5q6 30 76 88l61 51q24 15 66.5 47.5l105.5 80.5l39 34q9 5 20.5 9.5t25.5 6.5q117 -34 207.5 -72t156.5 -83q128 -99 128 -95z" />
    <glyph glyph-name="twosuperior" horiz-adv-x="1080" 
d="M851 1171q25 -13 25 -1171h-174v1021q0 123 -85 148q-57 18 -114 25t-111 7q-128 0 -214 -34q-27 -12 -46 -19.5t-27 -11.5l-28 -16q-7 -4 -4 -4q78 0 139 -26q81 -33 81 -97v-1494q0 -30 -9.5 -56.5t-25.5 -48.5t-37 -39.5t-43 -29.5q-2 0 -5 -2.5t-18 -11.5
q-30 -14 -52.5 -22.5t-37.5 -12.5q-29 -9 -57 -9q-15 0 -33 1t-45 1q-215 0 -257 62q-32 -47 -139 -56q-14 -2 -53.5 -3t-108.5 -1q-282 0 -282 123v305q-5 -60 -60 -60q-64 0 -64 70q0 29 14 59q10 18 137 56q133 39 162 57v-465q0 -69 45 -93q26 -14 108 -14
q145 0 145 107v435h189v-457q0 -91 132 -91q49 0 90.5 5t62.5 25q0 -1 3 1t7 5.5t7 7t3 5.5v2h2v2q26 38 26 92l6 2v1565q-18 67 -79 80q-9 0 -16.5 -1.5t-16.5 -3.5q6 33 73 88l62 51q23 15 65.5 47.5l105.5 80.5l39 34q20 12 47 16q90 -36 154.5 -64.5t116.5 -55.5
t97.5 -54.5z" />
    <glyph glyph-name="threesuperior" horiz-adv-x="1083" 
d="M726 1242l150 -85v-1157h-174v1021q0 123 -85 148q-41 13 -75 15q-34 1 -91 9l-32 2h-75q-10 2 -16 2q-55 0 -110.5 -13t-112.5 -48l-28 -16q-7 -4 -4 -4q78 0 139 -26q81 -33 81 -97v-2167q0 -56 -38 -109q-38 -52 -95 -75q-18 -9 -37 -17t-36 -14t-30.5 -9.5
t-20.5 -3.5h-106q-10 -2 -18 -2q-200 0 -239 62q-32 -48 -139 -56q-14 -2 -53.5 -3t-108.5 -1q-282 0 -282 123v263q-5 -57 -60 -57q-64 0 -64 68q0 29 14 60q10 18 137 55q133 40 162 57v-424q0 -69 45 -93q26 -14 108 -14q145 0 145 107v395h189v-417q0 -91 132 -91
q95 0 146 30q51 29 61 116v2239q-18 67 -79 80q-9 0 -16.5 -1.5t-16.5 -3.5q6 33 73 88l62 51q23 15 65.5 47.5l105.5 80.5l39 34q20 12 47 16l81 -39l53 -25l33.5 -15.5t23.5 -11.5l54.5 -26z" />
    <glyph glyph-name="onehalf" horiz-adv-x="2369" 
d="M197 1171v164q-1 -18 -58 -70q-53 -48 -53 -85q0 -51 38 -51q32 0 73 42zM2215 1584q0 -209 -151 -347l-10 -8t-9 -6l17 -13q36 -20 48 -30l20 -9q25 -13 25 -1171h-174v1021q0 123 -85 150q-15 5 -39 8.5t-53 5.5l-40 6l-34 2q-39 4 -66 5t-49 1q-18 0 -33.5 -1.5
t-29.5 -3.5q-28 -4 -79 -21l-24 -8l-42 -18t-23 -11l-30 -16l-2 -4q78 0 139 -26q81 -33 81 -97v-744q0 -121 -138 -188q-109 -55 -244 -55q-155 0 -295 89q-28 -20 -65.5 -35t-82.5 -28q-92 -26 -163 -26q-129 0 -245 58q-142 66 -142 185v897q-40 -34 -73 -34
q-55 0 -55 69q0 44 66 116t66 113v4q15 -45 98 -110q85 -67 85 -97v-1003q0 -81 62 -125q55 -39 138 -39q82 0 141 39q65 44 65 125v783l6 66q0 81 -85 81q-8 0 -16.5 -1.5l-19.5 -3.5q7 32 92 141q106 130 114 144q60 -66 149 -66q46 0 145 29q-42 -170 -171 -170
q-14 0 -33.5 1.5t-47.5 5.5q-47 9 -77 9q-87 0 -131 -71q10 1 22 2t21 1q78 0 139 -26q82 -33 82 -96v-784q0 -83 64 -144q68 -65 147 -65q83 0 138 40q56 41 56 124v811q-18 67 -79 80q-9 0 -17.5 -1.5t-18.5 -3.5q6 30 76 88l61 51q24 15 66.5 47.5l105.5 80.5l39 34
q9 5 20.5 9.5t25.5 6.5l113 -56q22 -7 41.5 -17.5t39.5 -19.5q22 -8 63.5 -28l104.5 -53q0 13 4 30q17 22 32.5 52t28.5 70q26 80 26 138q0 37 -14 76q-13 49 -45 49q-6 0 -19 -6.5l-29 -14t-33 -14t-30 -6.5q-45 0 -71 41q-24 36 -24 83q0 52 45 87q46 34 101 34
q105 0 164 -83q54 -77 54 -185z" />
    <glyph glyph-name="onequarter" horiz-adv-x="1083" 
d="M936 1584q0 -209 -151 -347l-10 -8t-9 -6l17 -13q36 -20 48 -30l20 -9q25 -13 25 -1171h-174v1021q0 123 -85 150q-11 3 -26.5 6t-32.5 5.5t-35 4.5t-34 4l-38 2q-39 2 -66 3t-49 1q-18 0 -33.5 -1.5t-32.5 -4.5t-38.5 -9l-51.5 -15h-2q-27 -12 -46 -19.5t-27 -11.5
l-28 -16q-7 -4 -4 -4q78 0 139 -26q81 -33 81 -97v-1464q0 -30 -13 -63q-13 -37 -29 -51q-30 -39 -91 -70q-15 -8 -34 -16t-37 -14t-32.5 -9.5t-20.5 -3.5h-106q-10 -2 -18 -2q-200 0 -239 60q-32 -47 -139 -55q-14 -2 -53.5 -2.5t-108.5 -0.5q-282 0 -282 122v231
q-4 -55 -60 -55q-64 0 -64 68q0 29 14 60q11 17 137 55q68 20 108 35t54 23v-396q0 -68 45 -92q26 -14 108 -14q145 0 145 106v366h189v-387q0 -91 132 -91q99 0 142 22l9 7q28 28 39.5 57.5t16.5 59.5v1536q-18 67 -79 80q-9 0 -16.5 -1.5t-16.5 -3.5q6 33 73 88l62 51
q23 15 65.5 47.5l105.5 80.5l39 34q20 12 47 16l102 -52q42 -14 89 -39q20 -8 62 -28.5l108 -54.5q0 13 4 30q17 22 32.5 52t28.5 70q26 80 26 138q0 37 -14 76q-13 49 -45 49q-6 0 -19 -6.5l-29 -14t-33 -14t-30 -6.5q-46 0 -72 41q-23 38 -23 83q0 52 45 87q46 34 101 34
q105 0 164 -83q54 -77 54 -185z" />
    <glyph glyph-name="threequarters" horiz-adv-x="1083" 
d="M934 1584q0 -209 -151 -347l-10 -8t-9 -6l18 -13q37 -20 47 -30l20 -9q25 -13 25 -1171h-174v1021q0 123 -85 150q-15 5 -39 8.5t-53 5.5q-17 1 -36 6l-38 2q-39 2 -66 3t-49 1q-18 0 -33.5 -1.5t-32.5 -4.5t-38.5 -9l-51.5 -15h-2q-27 -12 -46 -19.5t-28 -11.5l-27 -16
q-7 -4 -4 -4q78 0 139 -26q81 -33 81 -97v-2177q0 -36 -22.5 -76t-58.5 -73.5t-82 -55.5t-94 -22q-10 0 -17 4q-41 -6 -87 -6q-215 0 -257 61q-32 -48 -139 -55q-14 -2 -53.5 -3t-108.5 -1q-282 0 -282 122v256q-4 -61 -60 -61q-64 0 -64 69q0 29 14 60q11 17 137 55
q133 39 162 57v-414q0 -71 45 -93q26 -14 108 -14q145 0 145 107v385h189v-407q0 -91 132 -91q91 0 145 30q54 28 56 114l3 2v2249q-17 67 -78 80q-9 0 -16.5 -1.5t-16.5 -3.5q6 33 73 88l63 51q22 15 64.5 47.5l105.5 80.5l39 34q20 12 48 16l101 -52q42 -14 89 -39
q20 -8 62 -28.5l108 -54.5q0 13 4 30q37 46 62 122q25 74 25 138q0 37 -14 76q-13 49 -45 49q-6 0 -19 -6.5l-29 -14t-33 -14t-30 -6.5q-46 0 -72 41q-23 38 -23 83q0 52 45 87q46 34 101 34q105 0 164 -83q54 -77 54 -185z" />
    <glyph glyph-name="franc" unicode="&#x1784;" horiz-adv-x="1186" 
d="M979 0q-95 96 -264 212q-91 60 -173 106t-158 80v-398q-15 52 -86 105l-72.5 51t-28.5 22v449q-43 -34 -73 -34q-55 0 -55 70q0 45 66 119q66 73 66 113v3q15 -46 98 -111q85 -64 85 -96v-244q94 -37 192.5 -93t213.5 -137v659q0 70 -61 113q-107 -59 -253 -59
q-143 0 -231 70t-104 214q-2 21 -3 82t-1 164q34 -47 75 -63q84 -32 114 -51v-49q0 -56 2.5 -110t16.5 -96t44.5 -68t86.5 -26q106 0 176 40q-139 76 -139 200q0 63 54 116q55 55 121 55q38 0 75 -13t66 -36t47 -56.5t18 -73.5q0 -92 -74 -172l46.5 -18.5t34.5 -15.5
q22 -10 41.5 -23t36.5 -26v-974zM725 1104q28 46 28 101q0 21 -4 40.5t-11.5 34.5t-17 23.5t-21.5 8.5q-39 0 -39 -64q0 -96 65 -144zM197 655v162q-4 -21 -58 -69q-53 -51 -53 -85q0 -51 38 -51q30 0 73 43z" />
    <glyph glyph-name="Gbreve" 
d="M-191 -379q0 -66 -126 -157q-103 -72 -192 -107t-161 -35q-376 0 -376 234q0 62 22 111.5t61.5 84t93 53t116.5 18.5q82 0 151 -23q90 -36 90 -106q0 -20 -9.5 -40.5t-24.5 -36.5t-34.5 -26t-40.5 -10q-66 0 -66 32q0 8 5.5 18t5.5 16q0 40 -45 63q-41 18 -83 18
q-115 0 -115 -99q0 -71 91 -120q79 -45 154 -45q107 0 259 60q181 72 181 159q0 33 17 33q26 0 26 -95z" />
    <glyph glyph-name="gbreve" 
d="M-191 -1110q0 -66 -126 -157q-103 -72 -192 -107t-161 -35q-376 0 -376 233q0 62 22 112t61.5 84.5t93 53t116.5 18.5q88 0 151 -25q90 -35 90 -104q0 -21 -9.5 -41.5t-24.5 -36.5t-34.5 -25.5t-40.5 -9.5q-66 0 -66 32q0 8 5.5 18t5.5 16q0 39 -45 63q-41 18 -83 18
q-115 0 -115 -100q0 -71 91 -120q80 -44 154 -44q107 0 259 60q181 70 181 158q0 33 17 33q26 0 26 -94z" />
    <glyph glyph-name="Idotaccent" horiz-adv-x="1782" 
d="M1554 1329q31 -37 31 -100v-1229h-199v1114q0 92 -50 154q-55 55 -156 65q-56 -11 -139 -59q-56 -44 -151 -87q-17 -71 -70 -130l46.5 -18.5t34.5 -15.5q22 -10 41.5 -23t36.5 -26v-974q-95 96 -264 212q-91 60 -173 106t-158 80v-398q-15 52 -86 105l-72.5 51t-28.5 22
v449q-43 -34 -73 -34q-55 0 -55 70q0 45 66 119q66 73 66 113v3q15 -46 98 -111q85 -64 85 -96v-244q94 -37 192.5 -93t213.5 -137v659q0 70 -61 113q-107 -59 -253 -59q-193 0 -285 83q-71 67 -90 201q-2 21 -2.5 82t-0.5 164q33 -47 75 -63q85 -32 113 -51q0 -181 12 -224
q35 -125 178 -125q106 0 176 40q-139 76 -139 200q0 63 54 116q55 55 121 55q75 0 138 -45q45 -36 62 -93q34 40 124 83q124 57 178 57q220 0 323 -55zM725 1104q28 46 28 101q0 21 -4 40.5t-11.5 34.5t-17 23.5t-21.5 8.5q-39 0 -39 -64q0 -96 65 -144zM197 655v160
q-6 -18 -58 -67q-53 -51 -53 -85q0 -51 38 -51q30 0 73 43z" />
    <glyph glyph-name="Scedilla" horiz-adv-x="1782" 
d="M1724 1678q0 -208 -170 -349q31 -37 31 -100v-1229h-199v1114q0 114 -53 161t-127 47q-41 0 -84 -10.5t-84.5 -29t-79.5 -43t-68 -52.5q-17 -71 -70 -130l46.5 -18.5t34.5 -15.5q22 -10 41.5 -23t36.5 -26v-974q-95 96 -264 212q-91 60 -173 106t-158 80v-398
q-15 52 -86 105l-72.5 51t-28.5 22v449q-43 -34 -73 -34q-55 0 -55 70q0 45 66 119q66 73 66 113v3q15 -46 98 -111q85 -64 85 -96v-244q94 -37 192.5 -93t213.5 -137v659q0 70 -61 113q-107 -59 -253 -59q-193 0 -285 83q-71 67 -90 201q-2 21 -2.5 82t-0.5 164
q33 -47 75 -63q85 -32 113 -51q0 -181 12 -224q35 -125 178 -125q106 0 176 40q-139 76 -139 200q0 63 54 116q55 55 121 55q75 0 138 -45q45 -36 62 -93q34 40 124 83q124 57 178 57q220 0 323 -55q43 47 68 123q30 79 30 138q0 34 -15 76q-18 49 -52 49q-16 0 -55 -21
q-38 -21 -70 -21q-56 0 -81 42q-27 37 -27 83q0 26 14 48.5t37 38.5t53 25t62 9q117 0 186 -83q61 -73 61 -184zM725 1104q28 46 28 101q0 21 -4 40.5t-11.5 34.5t-17 23.5t-21.5 8.5q-39 0 -39 -64q0 -96 65 -144zM197 655v160q-6 -18 -58 -67q-53 -51 -53 -85
q0 -51 38 -51q30 0 73 43z" />
    <glyph glyph-name="scedilla" unicode="&#x1785;" horiz-adv-x="1186" 
d="M1034 1229q0 -27 -30 -100q-28 -79 -48 -79q-18 0 -122 92q-101 89 -107 89q-21 0 -88 -64q-67 -61 -78 -61q-30 0 -220 103q-208 -46 -217 -69h17q73 0 153 -56q81 -57 81 -127v-763q0 -81 60 -123q49 -37 134 -37q87 0 142 37q70 46 70 123v546q-26 -24 -57 -24
q-70 0 -70 73q0 46 68 111q62 65 62 107v4q16 -47 99 -111q86 -68 86 -97v-561q0 -119 -149 -187q-114 -55 -251 -55q-114 0 -234 55q-148 67 -148 160v699l4 75q0 125 -97 125q-8 0 -14 -0.5t-11 -1.5q0 31 118 164q120 132 150 132q21 0 143 -60q122 -62 142 -62
q15 0 89 62q75 60 83 60q6 0 101 -83q93 -81 109 -85q7 6 18 6q12 0 12 -17zM781 782v173q0 -29 -56 -79t-56 -89q0 -55 48 -55q11 0 22.5 4t20.5 10.5t15 15.5t6 20z" />
    <glyph glyph-name="Cacute" 
d="M-96 -592q0 -25 -42 -62q-44 -39 -62 -39q-21 0 -55 58q-11 21 -23 40.5t-22 40.5q-194 -200 -321 -200q-142 0 -234 59q-123 76 -123 235q0 14 93 83q92 71 92 112q0 17 -23 17q-18 0 -37 -16l-4 10q0 26 11 50.5t28.5 43.5t39 30.5t43.5 11.5q119 0 119 -94
q0 -79 -83 -153q-5 -2 -20.5 -9.5t-45.5 -24.5q-51 -23 -51 -31v-6q25 -65 80 -111q56 -47 111 -47q188 0 291 106l-63 89q-33 58 -33 111q0 147 109 147q124 0 124 -198q0 -56 -12 -87q-4 -9 -14.5 -25l-27.5 -44q55 -78 123 -78q32 0 32 -19zM-272 -310q0 33 -13 63
q-14 33 -34 33q-17 0 -32 -25q-16 -25 -16 -45q0 -75 67 -142q28 56 28 116z" />
    <glyph glyph-name="cacute" 
d="M-96 -1262q0 -22 -42 -55q-37 -34 -62 -34q-23 0 -55 51l-22.5 35t-22.5 37q-193 -179 -321 -179q-142 0 -234 54q-123 69 -123 210q0 9 93 74q92 59 92 98q0 15 -23 15q-20 0 -37 -13l-4 9q0 23 11 45t28.5 39t39 27t43.5 10q119 0 119 -84q0 -70 -83 -136
q-5 -2 -20.5 -9t-45.5 -22q-51 -21 -51 -28v-4q26 -60 80 -100q52 -42 111 -42q188 0 291 96q-15 21 -31 40l-32 38q-33 53 -33 100q0 130 109 130q124 0 124 -177q0 -48 -12 -76q-12 -21 -42 -63q58 -69 123 -69q32 0 32 -17zM-272 -1011q0 28 -13 56q-14 30 -34 30
q-17 0 -32 -22q-16 -20 -16 -40q0 -65 67 -126q28 47 28 102z" />
    <glyph glyph-name="Ccaron" horiz-adv-x="1778" 
d="M1507 1348q74 -125 74 -223v-1125h-213v1096q0 182 -142 206q-37 10 -62 10h-10q-126 -6 -213 -75l-72 -48l-45 -20l-51 -6q-32 2 -70.5 12t-84.5 26q-7 0 -81 28q-61 19 -77 21q-12 2 -29 4l-34.5 4t-33.5 3.5t-26 1.5q-131 -26 -172 -74q-10 -11 -18.5 -23t-15.5 -26
h10q24 0 48 -6q24 -3 42 -10q44 -17 106 -74v-4q38 -41 38 -89v-763q0 -81 60 -123q49 -37 134 -37q87 0 142 37q70 46 70 123v546q-26 -24 -57 -24q-70 0 -70 73q0 46 68 111q62 65 62 107v4q16 -47 99 -111q86 -68 86 -97v-561q0 -119 -149 -187q-114 -55 -251 -55
q-114 0 -234 55q-148 67 -148 160v774q0 88 -43 113q-28 10 -64 12l-11 -2q0 15 1 17q25 79 172 187q164 113 244 113q121 0 204 -74q85 -73 144 -73q235 147 403 147q144 0 230 -56zM781 782v168q-4 -28 -56 -74q-56 -50 -56 -89q0 -55 48 -55q11 0 22.5 4t20.5 10.5
t15 15.5t6 20z" />
    <glyph glyph-name="ccaron" horiz-adv-x="1769" 
d="M1692 1703q0 -217 -185 -355q74 -125 74 -223v-1125h-213v1096q0 182 -142 206q-37 10 -62 10h-10q-126 -6 -213 -75l-72 -48l-45 -20l-51 -6q-32 2 -70.5 12t-84.5 26q-7 0 -81 28q-61 19 -77 21q-12 2 -29 4l-34.5 4t-33.5 3.5t-26 1.5q-131 -26 -172 -74
q-10 -11 -18.5 -23t-15.5 -26h10q24 0 48 -6q24 -3 42 -10q44 -17 106 -74v-4q38 -41 38 -89v-763q0 -81 60 -123q49 -37 134 -37q87 0 142 37q70 46 70 123v546q-26 -24 -57 -24q-70 0 -70 73q0 46 68 111q62 65 62 107v4q16 -47 99 -111q86 -68 86 -97v-561
q0 -119 -149 -187q-114 -55 -251 -55q-114 0 -234 55q-148 67 -148 160v774q0 88 -43 113q-28 10 -64 12l-11 -2q0 15 1 17q25 79 172 187q164 113 244 113q121 0 204 -74q85 -73 144 -73q235 147 403 147q144 0 230 -56q46 37 82 126q29 82 29 143q0 37 -14 76
q-19 49 -55 49q-15 0 -58 -22q-38 -20 -71 -20q-54 0 -84 42q-27 37 -27 83q0 52 53 87q52 34 119 34q126 0 193 -85q58 -76 58 -183zM781 782v168q-4 -28 -56 -74q-56 -50 -56 -89q0 -55 48 -55q11 0 22.5 4t20.5 10.5t15 15.5t6 20z" />
    <glyph glyph-name="dmacron" unicode="&#x1786;" horiz-adv-x="1198" 
d="M1056 1229q0 -27 -30 -100q-30 -79 -47 -79q-21 0 -123 90q-103 91 -107 91q-16 0 -89 -64q-70 -61 -78 -61q-29 0 -219 103q-211 -48 -217 -69h17q73 0 153 -56q81 -57 81 -127v-510q94 -37 193.5 -93t211.5 -137v523q-33 -30 -67 -30q-13 0 -24.5 7t-19.5 18t-13 24.5
t-5 27.5q0 45 68 113q66 64 66 107v4q13 -44 98 -111t85 -97v-803q-51 51 -120.5 107.5t-160.5 113.5q-168 111 -312 177v-398q0 44 -85 99l-105.5 70t-52.5 41q-85 79 -85 184q0 101 120 101h20v419l3 75q0 125 -96 125q-8 0 -14.5 -0.5t-11.5 -1.5v2q0 31 119 162
q120 132 150 132q20 0 142 -60q126 -62 143 -62q12 0 89 62q76 60 83 60q12 0 103 -85q95 -83 107 -83q13 6 17 6q13 0 13 -17zM802 782v171q0 -28 -55 -77t-55 -89q0 -21 15 -41.5t36 -20.5q22 0 40.5 17t18.5 40zM209 206v247h-22q-79 0 -79 -75q0 -53 47 -103
q49 -50 54 -69z" />
    <glyph glyph-name="macron" 
d="M-197 -774q-45 61 -111.5 123t-151.5 126q-85 61 -158 106.5t-143 75.5v-431q0 59 -85 96q-66 29 -105.5 49.5t-52.5 33.5q-85 67 -85 204q0 148 140 153v85h188v-131q172 -76 376 -261v182q-34 -34 -79 -34q-49 0 -49 80q0 53 69 128q63 70 63 125v4q14 -56 103 -123
q81 -65 81 -101v-490zM-385 -296v151q0 -26 -53 -76q-53 -51 -53 -91q0 -57 35 -57q21 0 46 25t25 48zM-949 -597v299q-101 -6 -101 -115q0 -67 52 -118q49 -52 49 -66z" />
    <glyph glyph-name="periodcentered" 
d="M-197 -1443q-45 63 -111.5 123.5t-151.5 123.5t-158 108t-143 74v-429q0 59 -85 96q-132 60 -158 83q-85 67 -85 202q0 146 140 151v87h188v-130q85 -38 178 -103t198 -156v179q-35 -33 -79 -33q-49 0 -49 79q0 51 69 126q63 70 63 125v4q14 -56 103 -123q81 -63 81 -98
v-489zM-385 -966v148q0 -24 -53 -74q-53 -51 -53 -92q0 -57 35 -57q20 0 46 26q25 25 25 49zM-949 -1243v296q-101 -5 -101 -113q0 -67 52 -119q49 -49 49 -64z" />
    <glyph glyph-name="Abreve" horiz-adv-x="1797" 
d="M1528 1348q76 -121 76 -223v-1125h-214v1096q0 182 -143 206q-36 10 -61 10h-9q-128 -6 -215 -75l-70 -48l-46 -20l-52 -6q-31 2 -69.5 12t-84.5 26q-7 0 -81 28q-62 20 -77 21q-12 2 -29 4l-34.5 4t-33.5 3.5t-26 1.5q-131 -26 -172 -74q-22 -22 -33 -49h9q24 0 48 -6
l20 -4t21 -6q44 -17 107 -74v-4q38 -41 38 -89v-510q94 -37 193.5 -93t211.5 -137v523q-33 -30 -67 -30q-13 0 -24.5 7t-19.5 18t-13 24.5t-5 27.5q0 45 68 113q66 64 66 107v4q13 -44 98 -111t85 -97v-803q-51 51 -120.5 107.5t-160.5 113.5q-168 111 -312 177v-392
q-6 44 -85 93l-105.5 70t-52.5 41q-85 79 -85 184q0 101 120 101h20v419l3 75q0 86 -51 115q-11 4 -24 6t-29 4l-18 -2v8q0 10 6 18q25 79 168 178q164 113 243 113q121 0 204 -74q85 -73 145 -73q235 147 404 147q143 0 229 -56zM209 453h-22q-79 0 -79 -75q0 -53 47 -103
q48 -50 54 -69v247zM802 782v168q-4 -28 -55 -74q-55 -49 -55 -89q0 -21 15 -41.5t36 -20.5q22 0 40.5 17t18.5 40z" />
    <glyph glyph-name="abreve" horiz-adv-x="1793" 
d="M1715 1703q0 -217 -187 -355q76 -121 76 -223v-1125h-214v1096q0 182 -143 206q-36 10 -61 10h-9q-128 -6 -215 -75l-70 -48l-46 -20l-52 -6q-31 2 -69.5 12t-84.5 26q-7 0 -81 28q-62 20 -77 21q-12 2 -29 4l-34.5 4t-33.5 3.5t-26 1.5q-131 -26 -172 -74
q-22 -22 -33 -49h9q24 0 48 -6l20 -4t21 -6q44 -17 107 -74v-4q38 -41 38 -89v-510q94 -37 193.5 -93t211.5 -137v523q-33 -30 -67 -30q-13 0 -24.5 7t-19.5 18t-13 24.5t-5 27.5q0 45 68 113q66 64 66 107v4q13 -44 98 -111t85 -97v-803q-51 51 -120.5 107.5t-160.5 113.5
q-168 111 -312 177v-392q-6 44 -85 93l-105.5 70t-52.5 41q-85 79 -85 184q0 101 120 101h20v419l3 75q0 86 -51 115q-11 4 -24 6t-29 4l-18 -2v8q0 10 6 18q25 79 168 178q164 113 243 113q121 0 204 -74q85 -73 145 -73q235 147 404 147q143 0 229 -56q45 39 81 126
q30 79 30 143q0 40 -15 76q-19 49 -55 49q-14 0 -57 -22q-38 -20 -71 -20q-53 0 -83 42q-28 37 -28 83q0 52 53 87q52 34 120 34q124 0 191 -85q60 -77 60 -183zM209 453h-22q-79 0 -79 -75q0 -53 47 -103q48 -50 54 -69v247zM802 782v168q-4 -28 -55 -74q-55 -49 -55 -89
q0 -21 15 -41.5t36 -20.5q22 0 40.5 17t18.5 40z" />
    <glyph glyph-name="Aogonek" unicode="&#x1787;" horiz-adv-x="1186" 
d="M969 0q-52 51 -121 107.5t-160 113.5q-85 58 -162.5 101.5t-150.5 75.5v-398q-16 55 -83 99q-92 66 -105 79v736l4 75q0 125 -97 125q-8 0 -14 -0.5t-11 -1.5q9 69 147 182q139 114 212 114q103 0 198 -77q97 -79 149 -79q64 0 106 46t42 110q0 51 -18 62q-29 87 -64 87
q-13 0 -55 -43q-38 -44 -96 -44q-47 0 -81 39q-34 37 -34 86q0 25 13.5 48.5t34.5 41.5t48 29t54 11q99 0 180 -89q64 -73 64 -228q0 -92 -52 -177q-57 -102 -144 -102q-113 0 -248 51q-128 49 -226 49q-113 0 -175 -89h17q73 0 153 -56q81 -57 81 -127v-510
q94 -37 192.5 -93t213.5 -137v719l60.5 17.5t41.5 16.5q48 19 86 63v-1033z" />
    <glyph glyph-name="aogonek" 
d="M-43 -340q0 -55 -55 -110q-45 -46 -95 -65q-68 -246 -267 -246q-42 0 -89 68q-49 67 -55 67q-4 0 -62 -69q-57 -70 -112 -70q-213 0 -213 293q0 115 45 219q52 121 132 121q44 0 91 -51q45 -56 45 -109q0 -40 -28 -40l-70 32q-44 0 -44 -75q0 -214 89 -214q47 0 103 56
q55 55 63 55q3 0 44 -45q38 -47 108 -47q113 0 141 70q-68 5 -113 57t-45 137q0 75 34 124q33 50 88 50q70 0 99 -110q20 -74 20 -162v-26q16 8 65 63q46 46 66 46q15 0 15 -19zM-251 -413q0 33 -3 63.5t-8 59.5q-16 88 -48 88q-16 0 -26 -40q-11 -44 -11 -66q0 -33 35 -71
q24 -23 61 -34z" />
    <glyph glyph-name="Dcaron" 
d="M-43 -1042q0 -47 -55 -96q-42 -36 -95 -56q-67 -209 -267 -209q-42 0 -91 59q-47 57 -53 57q-7 0 -62 -59q-57 -61 -112 -61q-213 0 -213 252q0 99 45 188q53 104 132 104q45 0 91 -45q45 -45 45 -92q0 -35 -28 -35l-70 28q-44 0 -44 -66q0 -182 89 -182q48 0 103 48
q56 47 63 47q3 0 44 -40q39 -40 108 -40q113 0 141 61q-69 4 -113 48q-45 45 -45 118q0 64 34 107q33 43 88 43q71 0 99 -95q20 -63 20 -139v-23q22 11 65 54q46 40 66 40q15 0 15 -16zM-251 -1104q0 28 -3 54.5t-8 51.5q-17 73 -48 73q-8 0 -14.5 -9.5t-11.5 -23t-8 -29.5
t-3 -28q0 -31 35 -59q22 -21 61 -30z" />
    <glyph glyph-name="dcaron" horiz-adv-x="1769" 
d="M1544 1329q32 -41 32 -100v-1229h-200v1114q0 97 -51.5 156t-154.5 63q-51 -6 -138 -45q-45 -14 -75.5 -40.5t-57.5 -53t-56 -46t-70 -19.5q-113 0 -248 51q-128 49 -226 49q-113 0 -175 -89h17q73 0 153 -56q81 -57 81 -127v-510q94 -37 192.5 -93t213.5 -137v719
l60.5 17.5t41.5 16.5q48 19 86 63v-1033q-52 51 -121 107.5t-160 113.5q-85 58 -162.5 101.5t-150.5 75.5v-398q-16 55 -83 99q-92 66 -105 79v736l4 75q0 125 -97 125q-8 0 -14 -0.5t-11 -1.5q9 69 147 182q70 57 122.5 85.5t101.5 28.5q42 0 86.5 -18.5t99.5 -58.5
q97 -79 149 -79q64 0 106 46t42 110q0 52 -18 121q-29 87 -64 87q-13 0 -55 -43q-38 -44 -96 -44q-47 0 -81 39q-34 37 -34 86q0 26 13.5 49.5t34.5 41.5t48 28.5t54 10.5q99 0 180 -89q64 -73 64 -287q0 -17 -3 -36.5t-8 -42.5q11 6 21.5 12.5t22.5 11.5q63 28 129.5 41.5
t132.5 13.5q69 0 131 -13.5t107 -39.5z" />
    <glyph glyph-name="Dslash" horiz-adv-x="1769" 
d="M1715 1678q0 -208 -171 -349q32 -41 32 -100v-1229h-200v1114q0 92 -50 154q-55 55 -156 65q-51 -6 -138 -45q-45 -14 -75.5 -40.5t-57.5 -53t-56 -46t-70 -19.5q-48 0 -110.5 15.5t-127.5 34.5t-127 34.5t-109 15.5q-113 0 -175 -89h17q73 0 153 -56q81 -57 81 -127
v-510q94 -37 192.5 -93t213.5 -137v719l60.5 17.5t41.5 16.5q48 19 86 63v-1033q-52 51 -121 107.5t-160 113.5q-85 58 -162.5 101.5t-150.5 75.5v-398q-16 55 -83 99q-92 66 -105 79v736l4 75q0 125 -97 125q-8 0 -14 -0.5t-11 -1.5v4q0 36 46 85q23 25 49.5 49t57.5 47
t61.5 43t59.5 36q62 32 85 32q103 0 198 -77q97 -79 149 -79q64 0 106 46t42 110q0 52 -18 121q-29 87 -64 87q-13 0 -55 -43q-38 -44 -96 -44q-47 0 -81 39q-34 37 -34 86q0 26 13.5 49.5t34.5 41.5t48 28.5t54 10.5q99 0 180 -89q64 -73 64 -287q0 -17 -3 -36.5t-8 -42.5
q11 6 21.5 12.5t22.5 11.5q124 57 178 57q222 0 322 -55q45 48 70 123q30 79 30 138q0 31 -17 76q-16 49 -51 49q-15 0 -55 -21q-38 -21 -70 -21q-56 0 -81 42q-27 37 -27 83q0 26 14 48.5t37 38.5t53 25t62 9q115 0 186 -83q62 -74 62 -184z" />
    <glyph glyph-name="Eogonek" unicode="&#x1788;" horiz-adv-x="2273" 
d="M2262 1369q-40 -172 -170 -172q-14 0 -32.5 2t-46.5 6t-47 5.5t-32 1.5q-85 0 -130 -68q5 1 9.5 1.5t9.5 0.5h24q82 0 144 -28q75 -35 75 -95v-780q0 -117 -130 -184q-113 -59 -251 -59q-174 0 -301 85q-115 -85 -293 -85q-134 0 -257 59q-142 70 -142 184v969
q0 40 -14.5 70.5t-40.5 51t-62 31t-78 10.5q-87 0 -143 -38q-68 -44 -68 -125v-941q0 6 6 13.5t15 13.5t20 10.5t22 4.5q15 0 27 -7t20.5 -18t13 -25t4.5 -27q0 -42 -69 -121q-63 -71 -63 -111v-4q-17 46 -99 111q-85 67 -85 97v959q0 111 143 183q117 58 256 58
q140 0 252 -58q130 -72 130 -183v-969q0 -164 212 -164q87 0 140.5 40.5t53.5 123.5v783q0 6 3 29q3 22 3 36q0 79 -85 79h-18h-8.5t-9.5 -1q2 29 75 116q101 116 131 168q58 -66 148 -66q43 0 145 29q-41 -170 -171 -170q-13 0 -32 2t-47 6q-27 3 -46 5.5t-32 2.5
q-88 0 -132 -71q10 2 21 3t23 1q82 0 145 -28q75 -35 75 -95v-784q0 -94 67 -154q61 -55 145 -55q42 0 78 10t61.5 30.5t40 51t14.5 72.5v780q0 5 3 28q3 22 3 36q0 82 -85 82q-21 0 -36 -4q1 30 75 117l78 96.5t53 73.5q58 -70 148 -70q46 0 144 32zM349 291q-12 0 -23 -5
t-20 -12t-14.5 -16t-5.5 -16v-165q4 21 59 70q52 51 52 85q0 59 -48 59z" />
    <glyph glyph-name="eogonek" horiz-adv-x="494" 
d="M483 1371q-42 -170 -170 -170q-14 0 -34 2t-47 6q-23 4 -42 6t-35 2q-87 0 -131 -71q35 5 62.5 8t47.5 3q153 0 153 -132v-1535q0 -115 -131 -169q-86 -37 -109 -37q-196 0 -244 63q-87 -57 -118 -57q-144 0 -202 19q-113 36 -113 143v272q0 72 -46 93q-15 6 -33 9.5
t-36 3.5q-42 0 -71 -17q-39 -29 -39 -101v-150q1 -8 1.5 -15.5t0.5 -13.5v-20q5 41 62 41q30 0 48 -23.5t18 -53.5q0 -41 -68 -97q-64 -52 -64 -92v-4q-17 46 -100 89q-85 43 -85 75v297q0 123 277 123q51 0 90 -3t69 -7q164 -24 164 -113v-331q0 -60 42 -79q25 -12 92 -12
q20 0 20 103v436h188v-440q0 -111 147 -111q52 0 52 133v1537l6 65q0 79 -86 79h-17h-8t-9 -1q6 31 90 141l82.5 101t32.5 42q58 -66 148 -66q46 0 145 29zM-743 -523q0 56 -48 56q-66 0 -66 -99l4 -76q0 21 55 52t55 67z" />
    <glyph glyph-name="Ecaron" horiz-adv-x="494" 
d="M483 1371q-42 -170 -170 -170q-14 0 -34.5 2t-46.5 6t-45 6t-32 2q-87 0 -131 -71q35 5 62.5 8t47.5 3q153 0 153 -132v-2229q0 -114 -131 -168q-92 -38 -148 -42q-158 5 -205 68q-87 -57 -178 -68q-77 10 -142 30q-113 36 -113 142v244q0 70 -46 92q-31 14 -70.5 14
t-69.5 -18q-39 -26 -39 -101v-120q1 -17 1.5 -29.5t0.5 -19.5q4 42 62 42q30 0 48 -24t18 -54q0 -40 -68 -96t-64 -98q-15 44 -100 90q-85 45 -85 74v269q0 123 277 123q51 0 90 -2.5t69 -7.5q164 -24 164 -113v-301q0 -59 29 -88q28 -12 68 -12q57 6 57 111v407h188v-411
q0 -111 114 -111q85 0 85 133v2230q0 10 3 33q3 22 3 32q0 79 -86 79h-16t-18 -1q6 31 90 141l82 99.5t33 43.5q58 -66 148 -66q46 0 145 29zM-743 -1216q0 55 -48 55q-66 0 -66 -98q0 -7 0.5 -17.5t1.5 -24.5t1.5 -24t0.5 -17v6q-2 22 54 54t56 66z" />
    <glyph glyph-name="ecaron" horiz-adv-x="2868" 
d="M2604 1180l21 -9q25 -13 25 -1171h-174v1021q1 5 1.5 10.5t0.5 12.5q0 58 -36 89.5t-89 46t-112.5 17t-106.5 2.5h-24q-18 0 -33.5 -1.5t-29.5 -3.5q-28 -4 -79 -21l-24 -8l-42 -18t-23 -11l-30 -16l-2 -4q77 0 138 -26q81 -33 81 -97v-746q0 -117 -130 -183
q-113 -60 -251 -60q-174 0 -301 85q-115 -85 -293 -85q-137 0 -257 60q-142 70 -142 183v970q0 39 -14.5 69t-40.5 51t-62 31.5t-78 10.5q-88 0 -143 -37q-68 -45 -68 -125v-938q4 11 19 21q23 17 44 17q15 0 27 -7t20.5 -18t13 -25t4.5 -27q0 -42 -69 -121
q-63 -71 -63 -111v-4q-17 46 -99 111q-85 67 -85 97v959q0 111 143 182q123 59 256 59q139 0 252 -59q130 -70 130 -182v-969q0 -164 212 -164q87 0 140.5 40.5t53.5 123.5v783q0 6 3 29q3 22 3 36q0 79 -85 79h-18q-4 0 -8.5 -0.5t-9.5 -1.5q1 30 75 117q101 116 131 168
q58 -66 148 -66q43 0 145 29q-41 -170 -171 -170q-13 0 -32 2l-47 5q-27 5 -46 7t-32 2q-88 0 -132 -71q11 2 21.5 2.5t22.5 0.5q82 0 145 -28q75 -33 75 -94v-784q0 -94 67 -154q61 -55 145 -55v2q34 0 68 8.5t61.5 26.5t45 46t19.5 67v827q-18 67 -79 80q-9 0 -17.5 -1.5
t-18.5 -3.5q6 30 75 88q68 54 113 86l49.5 38l53.5 42l57 47q20 12 45 16l140 -61.5t118 -57.5t100.5 -54.5t88.5 -53.5zM349 295q-12 0 -23 -5t-20 -12.5t-14.5 -16.5t-5.5 -16v-162q2 17 59 68q52 51 52 85q0 59 -48 59z" />
    <glyph glyph-name="Lacute" horiz-adv-x="1081" 
d="M851 1173q25 -13 25 -1171h-174v1021q0 123 -85 148q-55 16 -113.5 24t-116.5 8q-63 0 -117.5 -9t-91.5 -25q-27 -12 -46 -19.5t-27 -11.5l-28 -16q-7 -4 -4 -4q78 0 139 -26q81 -33 81 -97v-1494q0 -69 -38 -110.5t-99 -69.5q-86 -37 -161 -37q-144 0 -192 63
q-101 -53 -154 -63q-5 -1 -9.5 -1.5t-8.5 -0.5h-20q-77 0 -128 27q-113 36 -113 143v272q0 72 -46 93q-15 6 -33 9.5t-36 3.5q-42 0 -71 -17q-39 -29 -39 -101v-150q1 -8 1.5 -14.5t0.5 -12.5v-20q7 39 62 39q30 0 48 -23.5t18 -53.5q0 -41 -68 -97q-64 -52 -64 -92v-4
q-17 46 -100 89q-85 43 -85 75v297q0 123 277 123q51 0 90 -3t69 -7q164 -24 164 -113v-331q0 -60 42 -79q20 -20 43 -20q6 0 14 2q55 6 55 109v436h188v-440q0 -109 104 -109h10q81 0 91 139v1565q-18 67 -79 79q-9 0 -16.5 -0.5t-16.5 -3.5q34 49 72.5 84.5t81.5 68
l90.5 67t100.5 81.5q20 12 47 15l82 -38l52.5 -25l33 -16l23.5 -11zM-743 -523q0 56 -48 56q-66 0 -66 -99q0 -5 0.5 -14t1.5 -19t1.5 -20.5t0.5 -17.5q5 19 55 47q55 31 55 67z" />
    <glyph glyph-name="lacute" horiz-adv-x="1087" 
d="M851 1173q25 -13 25 -1171h-174v1021q0 123 -85 150q-32 7 -174 18q-89 6 -137 6q-13 0 -21.5 -0.5t-13.5 -1.5q-17 -3 -40.5 -9.5t-52.5 -16.5q-27 -12 -46 -19.5t-27 -11.5l-28 -16q-7 -4 -4 -4q78 0 139 -26q81 -33 81 -97v-2186q0 -31 -10 -58q-18 -90 -127 -133
l-35 -11l-104 -23l-42 -2t-45 -1q-101 0 -147 63q-90 -60 -168 -61q-87 3 -153 24q-112 34 -112 142v242q0 74 -85 105q-12 0 -20 1t-13 1q-10 0 -20 -4t-28 -14q-39 -27 -39 -101v-119q1 -8 1.5 -14.5t0.5 -11.5v-20q8 38 62 38q30 0 48 -23.5t18 -53.5q0 -41 -68 -97
q-64 -54 -64 -94v-3q-17 45 -100 88q-85 43 -85 76v268q0 123 277 123q20 0 54 -3t85 -7q164 -24 164 -113v-302q0 -59 41 -79q25 -12 62 -12q51 0 51 104v406h189v-410q0 -111 49 -111q67 0 106 21q7 4 13 10q24 19 40 50q10 20 10 51l3 2q3 6 3 20v2254q-18 67 -79 79
q-9 0 -16.5 -0.5t-16.5 -3.5q6 33 73 88l229 185l43 28q20 12 47 15q418 -206 446 -228zM-743 -1216q0 55 -48 55q-66 0 -66 -98v-17q0 -5 0.5 -11.5t1.5 -13.5q1 -5 1.5 -8.5t0.5 -6.5v-13q5 21 55 46q55 31 55 67z" />
    <glyph glyph-name="Lcaron" horiz-adv-x="2868" 
d="M2710 1584q0 -209 -151 -347q-6 -4 -10.5 -8t-8.5 -6l17 -13q16 -7 44 -25q14 -9 26.5 -16t22.5 -12v-1157h-174v1021q0 123 -85 150q-15 4 -49 9q-16 2 -45 5t-72 6l-42 2q-24 2 -42.5 4t-34.5 2q-28 0 -58.5 -6t-79.5 -20l-24 -8l-42 -18t-23 -11l-30 -16l-2 -4
q77 0 138 -26q81 -33 81 -97v-746q0 -117 -130 -183q-113 -60 -251 -60q-174 0 -301 85q-115 -85 -293 -85q-137 0 -257 60q-142 70 -142 183v970q0 39 -14.5 69t-40.5 51t-62 31.5t-78 10.5q-88 0 -143 -37q-68 -45 -68 -125v-938q4 11 19 21q23 17 44 17q15 0 27 -7
t20.5 -18t13 -25t4.5 -27q0 -42 -69 -121q-63 -71 -63 -111v-4q-17 46 -99 111q-85 67 -85 97v959q0 111 143 182q123 59 256 59q139 0 252 -59q130 -70 130 -182v-969q0 -164 212 -164q87 0 140.5 40.5t53.5 123.5v783q0 6 3 29q3 22 3 36q0 79 -85 79h-18q-4 0 -8.5 -0.5
t-9.5 -1.5q1 30 75 117q101 116 131 168q58 -66 148 -66q43 0 145 29q-41 -170 -171 -170q-13 0 -32 2l-47 5q-27 5 -46 7t-32 2q-88 0 -132 -71q11 2 21.5 2.5t22.5 0.5q82 0 145 -28q75 -33 75 -94v-784q0 -94 67 -154q30 -27 68.5 -40t78.5 -13q77 0 136 41
q26 19 41 44.5t15 62.5v827q-18 67 -79 80q-9 0 -17.5 -1.5t-18.5 -3.5q6 30 75 88l61 51q24 15 66.5 47.5l105.5 80.5l40 34q20 12 45 16l92.5 -40.5t67.5 -32l51 -26.5l44.5 -23.5l47.5 -24t59 -27.5q0 13 4 30q36 43 62 122q25 74 25 138q0 43 -13 76q-13 49 -46 49
q-6 0 -19 -6.5l-28.5 -14t-32 -14t-31.5 -6.5q-44 0 -70 41q-24 36 -24 83q0 52 45 87q43 34 100 34q106 0 165 -83q54 -77 54 -185zM349 295q-12 0 -23 -5t-20 -12.5t-14.5 -16.5t-5.5 -16v-162q2 17 59 68q52 51 52 85q0 59 -48 59z" />
    <glyph glyph-name="lcaron" horiz-adv-x="1081" 
d="M936 1586q0 -209 -151 -348q-5 -3 -10 -7t-9 -6l17 -13l31 -17t37 -22q25 -13 25 -1171h-174v1021q0 123 -85 148q-46 16 -110.5 24t-130.5 8q-57 0 -110 -8t-88 -26q-27 -12 -46 -19.5t-27 -11.5l-28 -16q-7 -4 -4 -4q78 0 139 -26q81 -33 81 -97v-1484q1 -57 -26 -99.5
t-70.5 -70.5t-98 -42.5t-107.5 -15.5q-57 0 -105.5 16t-82.5 48q-87 -57 -158 -57q-144 0 -202 19q-113 36 -113 142v302q0 71 -45 94q-18 7 -18 11q0 2 8 2q-79 0 -111 -17q-40 -28 -40 -101v-180q1 -8 1.5 -14t0.5 -11v-20q8 38 64 38q30 0 47.5 -24t17.5 -54
q0 -41 -67 -96q-66 -54 -66 -94v-4q-15 46 -98 90q-85 43 -85 74v328q0 123 276 123q40 0 74.5 -3t64.5 -7q164 -24 164 -113v-360q0 -61 42 -80q25 -12 93 -12q59 0 59 103v466h188v-470q0 -58 27 -76q25 -19 56 -19q23 0 42.5 6t23.5 10q24 19 40 49q6 12 11 33.5t5 40.5
v1551q-18 67 -79 79q-9 0 -16.5 -0.5t-16.5 -3.5q6 33 73 88l60 47.5l51 38.5l50 38l54 42l57 47q20 12 47 15l76 -35l51 -23q22 -11 45 -25.5t46.5 -27.5t47 -22t46.5 -9q33 0 62.5 26t51.5 95q26 81 26 138q0 37 -14 76q-13 49 -45 49q-6 0 -19 -6.5l-29 -14.5t-33 -14.5
t-30 -6.5q-47 0 -72 42q-23 38 -23 83q0 52 45 87q46 34 101 34q105 0 164 -83q54 -77 54 -185zM-763 -513q0 56 -47 56q-68 0 -68 -99v-18q0 -5 0.5 -11t1.5 -13q1 -5 1.5 -9t0.5 -6v-12q6 19 56 45q55 31 55 67z" />
    <glyph glyph-name="Ldot" horiz-adv-x="1081" 
d="M936 1586q0 -209 -151 -348q-5 -3 -10 -7t-9 -6l17 -13q19 -10 31 -18t17 -13l20 -8q25 -13 25 -1171h-174v1021q0 123 -85 148q-113 32 -225 32q-122 0 -214 -34q-27 -12 -46 -19.5t-27 -11.5l-28 -16q-7 -4 -4 -4q78 0 139 -26q81 -33 81 -97v-2186q0 -47 -24 -88.5
t-64.5 -73t-94 -50t-111.5 -18.5q-55 0 -112.5 16.5t-103.5 48.5q-85 -58 -119 -58q-141 0 -202 21q-112 34 -112 142v242q0 71 -45 94q-13 4 -13 9q0 4 23 4q-83 0 -111 -18q-40 -27 -40 -101v-119q1 -8 1.5 -14.5t0.5 -11.5v-20q8 38 64 38q29 0 46.5 -23.5t17.5 -53.5
q0 -42 -66 -97q-66 -54 -66 -94v-3q-15 45 -99 88q-85 43 -85 76v268q0 123 277 123q30 0 60 -3t59 -7q164 -24 164 -113v-302q0 -59 41 -79q25 -12 94 -12q19 0 19 104v406h189v-410q0 -56 32 -79t70 -23q29 0 53 12q7 4 13 10q24 19 40 50q6 11 11 33t5 40v2254
q-18 67 -79 79q-9 0 -16.5 -0.5t-16.5 -3.5q6 33 73 88l62 51q23 15 65.5 47.5l105.5 80.5l39 34q20 12 47 15l82.5 -38l61 -28l47.5 -21.5t41 -19.5l41.5 -21l49.5 -26q10 -4 19 -9t19 -10q0 3 1 11t3 19q17 22 32.5 52t28.5 70q26 81 26 138q0 37 -14 76q-13 49 -45 49
q-6 0 -19 -6.5l-29 -14.5t-33 -14.5t-30 -6.5q-47 0 -72 42q-23 38 -23 83q0 52 45 87q46 34 101 34q105 0 164 -83q54 -77 54 -185zM-723 -1216q0 55 -47 55q-68 0 -68 -98v-17q0 -5 0.5 -11.5t1.5 -13.5q1 -5 1.5 -8.5t0.5 -6.5v-13q6 20 56 46q55 31 55 67z" />
    <glyph glyph-name="ldot" unicode="&#x1789;" horiz-adv-x="1814" 
d="M1619 2h-187v1104q0 91 -44 153q-50 72 -137 72q-85 0 -176 -45q-106 -51 -106 -131v-1155h-188v1201q0 63 -27 107q-28 55 -87 55q-9 0 -20.5 -6.5t-30.5 -26.5t-46 -56.5t-67 -97.5q-21 -15 -49 -15q-35 0 -97 38q-63 39 -97 39q-67 0 -136 -98h17q73 0 153 -56
q81 -57 81 -127v-706q6 42 64 42q15 0 26.5 -7t20 -18t13 -25t4.5 -28q0 -41 -68 -118q-64 -67 -64 -112v-4q-14 43 -99 110t-85 97v726l4 75q0 125 -97 125q-8 0 -14 -0.5t-11 -1.5q10 91 66 183q68 113 143 113q34 0 64.5 -11t58.5 -28t53.5 -38l50.5 -41l39 36l38 37
q52 45 89 45q120 0 185 -41q61 -38 113 -150q16 67 120 129q97 57 171 57q359 0 359 -182v-1219zM1579 -391q0 -129 -201 -196q-149 -47 -311 -47q-118 0 -281 36q-76 15 -159.5 38.5t-174.5 55.5q-265 94 -265 155q0 91 25 91q19 0 19 -34q0 -88 370 -152q292 -54 470 -54
q64 0 120.5 7.5t113.5 20.5q160 42 160 129q0 92 -115 92q-39 0 -81 -15q-49 -19 -49 -61q12 -23 12 -32q0 -30 -66 -30q-40 0 -74 34t-34 73q0 68 91 99q64 24 150 24q123 0 197 -54q83 -63 83 -180zM486 215q0 56 -47 56q-11 0 -22 -4.5t-20.5 -11.5t-15.5 -16t-6 -18
v-166q0 22 53 70q58 51 58 90z" />
    <glyph glyph-name="Nacute" horiz-adv-x="1814" 
d="M1619 3h-187v1103q0 91 -44 153q-49 73 -137 73q-85 0 -176 -45q-106 -52 -106 -131v-1156h-188v1202q0 62 -27 106q-29 56 -87 56q-9 0 -20.5 -6.5t-30 -26.5t-46 -57t-67.5 -98q-23 -14 -49 -14q-35 0 -97 38q-63 39 -97 39q-67 0 -136 -99h17q74 0 153 -55
q81 -59 81 -127v-706q6 42 64 42q15 0 26.5 -7t20 -18.5t13 -25.5t4.5 -27q0 -41 -68 -118q-64 -70 -64 -113v-4q-14 43 -99 111q-85 66 -85 96v727l4 74q0 126 -97 126q-16 0 -25 -3q10 92 66 184q68 113 143 113q34 0 64.5 -11.5t58.5 -29t53.5 -38l50.5 -39.5
q20 17 39 35t38 38q52 45 89 45q120 0 185 -41q60 -37 113 -151q16 67 120 129q97 58 171 58q359 0 359 -183v-1218zM486 216q0 55 -47 55q-11 0 -22 -4.5t-20.5 -11t-15.5 -15.5t-6 -18v-166q0 20 53 70q58 51 58 90z" />
    <glyph glyph-name="nacute" 
d="M-197 -444q0 -136 -143 -198q-92 -43 -239 -43q-112 0 -259 117q-146 113 -184 113q-16 0 -36 -17t-25 -17q-26 0 -26 59q0 55 24 100q28 58 71 58q53 0 214 -143q154 -142 271 -142h29q5 -1 9.5 -1.5t8.5 -0.5h12q212 0 212 178q0 111 -101 111q-81 0 -81 -66
q0 -13 7.5 -28t7.5 -25q0 -39 -71 -39q-17 0 -31.5 8t-25.5 21.5t-17.5 31t-6.5 37.5q0 76 69 117q53 32 125 32q186 0 186 -263z" />
    <glyph glyph-name="Ncaron" 
d="M-200 -1170q0 -131 -141 -195q-102 -41 -238 -41q-111 0 -257 113t-182 113q-16 0 -33 -17q-20 -17 -27 -17q-25 0 -25 57q0 51 23 100q27 55 70 55q54 0 212 -138q158 -140 269 -140h27q5 -1 10 -1h9h11q210 0 210 174q0 109 -99 109q-79 0 -79 -65q0 -15 7 -28.5
t7 -23.5q0 -40 -70 -40q-33 0 -57 30t-24 68q0 78 67 115q56 29 125 29q185 0 185 -257z" />
    <glyph glyph-name="ncaron" 
d="M-197 -491h-180v193q0 75 -8 89q-15 34 -85 34q-204 0 -204 -85v-236h-183v273q0 74 -83 74q-63 0 -125 -89q-16 -13 -36 -13q-31 0 -101 30q-71 28 -99 28q-41 0 -81 -63q3 1 21 1q151 0 151 -110q4 33 44 33q24 0 40 -17.5t16 -35.5q0 -36 -53 -83q-51 -47 -51 -59
q-30 22 -122 51q-54 13 -54 68q0 78 -7 91q-13 43 -62 43l-18 -2q6 49 67 110q60 66 117 66q106 0 228 -104q121 102 174 102q177 0 217 -109q19 40 100 75q70 30 132 30q67 0 148 -24q97 -31 97 -77v-284zM-230 -646q0 -71 -143 -109q-103 -28 -224 -28q-125 0 -330 38
q-255 48 -255 109q0 35 14 43q7 -4 7 -17q0 -83 414 -83h77q20 0 40.5 0.5t42.5 1.5h30q16 -2 30.5 -3t26.5 -1q166 0 166 61q0 60 -53 60q-77 0 -77 -36q0 -9 7 -16.5t7 -13.5q0 -14 -18 -14q-42 0 -42 59q0 12 10 25t26 24t37 18t42 7q45 0 76 -6t51 -20.5t29 -38.5t9 -60
zM-1131 -406q0 45 -32 45q-43 0 -43 -41v-92q0 19 38 39q37 21 37 49z" />
    <glyph glyph-name="Odblacute" 
d="M-197 -1164h-180v194q0 71 -8 89q-15 34 -85 34q-204 0 -204 -86v-235h-183v272q0 74 -83 74q-63 0 -125 -89q-18 -12 -36 -12q-28 0 -101 29q-71 28 -99 28q-40 0 -81 -62q10 2 21 2q151 0 151 -112q4 34 44 34q24 0 40 -17.5t16 -36.5q0 -35 -53 -83q-51 -47 -51 -59
q-30 24 -122 51q-54 15 -54 68q0 78 -7 91q-13 43 -62 43l-18 -2q6 50 67 111q60 65 117 65q106 0 228 -104q121 102 174 102q176 0 217 -108q19 40 100 74q70 30 132 30q64 0 148 -23q97 -31 97 -77v-285zM-230 -1299q0 -71 -143 -109q-107 -27 -224 -27q-125 0 -330 38
q-255 46 -255 108q0 35 14 43q7 -4 7 -17q0 -83 414 -83h77q20 0 40.5 0.5t42.5 1.5h30q16 -2 30.5 -3t26.5 -1q166 0 166 61q0 60 -53 60q-77 0 -77 -36q0 -8 7 -16t7 -14q0 -13 -18 -13q-42 0 -42 59q0 12 10 24.5t26 23.5t37 18t42 7q45 0 76 -6t51 -20.5t29 -38.5t9 -60
zM-1131 -1071q0 45 -32 45q-43 0 -43 -41v-91q0 19 38 39q37 19 37 48z" />
    <glyph glyph-name="odblacute" horiz-adv-x="2437" 
d="M2197 1329q32 -41 32 -100v-1229h-200v1114q0 92 -50 154q-55 55 -156 65q-51 -6 -138 -45q-22 -20 -39.5 -33t-28.5 -20q2 -10 2 -14v-1219h-187v1104q0 91 -44 153q-50 72 -137 72q-85 0 -176 -45q-106 -51 -106 -131v-1155h-188v1201q0 63 -27 107q-28 55 -87 55
q-9 0 -20.5 -6.5t-30.5 -26.5t-46 -56.5t-67 -97.5q-21 -15 -49 -15q-35 0 -97 38q-63 39 -97 39q-67 0 -136 -98h17q73 0 153 -56q81 -57 81 -127v-704q6 40 64 40q15 0 26.5 -7t20 -18t13 -25t4.5 -28q0 -41 -68 -118q-64 -67 -64 -112v-4q-14 43 -99 110t-85 97v726l4 75
q0 125 -97 125q-8 0 -14 -0.5t-11 -1.5q10 91 66 183q68 113 143 113q34 0 64.5 -11t58.5 -28t53.5 -38l50.5 -41l39 36l38 37q52 45 89 45q120 0 185 -41q61 -38 113 -150q16 67 120 129q97 57 171 57q249 0 323 -87l34 18.5t38 18.5q124 57 178 57q222 0 322 -55z
M1579 -391q0 -129 -201 -196q-149 -47 -311 -47q-118 0 -281 36q-76 15 -159.5 38.5t-174.5 55.5q-265 94 -265 155q0 91 25 91q19 0 19 -34q0 -88 370 -152q292 -54 470 -54q64 0 120.5 7.5t113.5 20.5q160 42 160 129q0 92 -115 92q-39 0 -81 -15q-49 -19 -49 -61
q12 -23 12 -32q0 -30 -66 -30q-40 0 -74 34t-34 73q0 68 91 99q64 24 150 24q123 0 197 -54q83 -63 83 -180zM486 215q0 56 -47 56q-11 0 -22 -4.5t-20.5 -11.5t-15.5 -16t-6 -18v-162q2 20 53 66q58 51 58 90z" />
    <glyph glyph-name="Racute" horiz-adv-x="2424" 
d="M2197 1330q32 -41 32 -101v-1229h-200v1115q0 91 -50 153q-56 55 -156 66q-51 -6 -138 -45q-22 -21 -39.5 -33.5l-28.5 -20.5q2 -10 2 -14v-1218h-187v1103q0 91 -44 153q-49 73 -137 73q-85 0 -176 -45q-106 -52 -106 -131v-1156h-188v1202q0 62 -27 106q-29 56 -87 56
q-9 0 -20.5 -6.5t-30 -26.5t-46 -57t-67.5 -98q-23 -14 -49 -14q-35 0 -97 38q-63 39 -97 39q-67 0 -136 -99h17q74 0 153 -55q81 -59 81 -127v-704q6 40 64 40q15 0 26.5 -7t20 -18.5t13 -25.5t4.5 -27q0 -41 -68 -118q-64 -70 -64 -113v-4q-14 43 -99 111q-85 66 -85 96
v727l4 74q0 126 -97 126q-16 0 -25 -3q10 92 66 184q68 113 143 113q34 0 64.5 -11.5t58.5 -29t53.5 -38l50.5 -39.5q20 17 39 35t38 38q52 45 89 45q120 0 185 -41q60 -37 113 -151q16 67 120 129q97 58 171 58q250 0 323 -88q17 10 34 19t38 18q122 58 178 58
q218 0 322 -56zM486 216q0 55 -47 55q-11 0 -22 -4.5t-20.5 -11t-15.5 -15.5t-6 -18v-162q2 20 53 66q58 51 58 90z" />
    <glyph glyph-name="racute" horiz-adv-x="2437" 
d="M2367 1678q0 -208 -170 -349q32 -41 32 -100v-1229h-200v1114q0 92 -50 154q-55 55 -156 65q-51 -6 -138 -45q-22 -20 -39.5 -33t-28.5 -20q2 -10 2 -14v-1219h-187v1104q0 91 -44 153q-50 72 -137 72q-85 0 -176 -45q-106 -51 -106 -131v-1155h-188v1201q0 63 -27 107
q-28 55 -87 55q-9 0 -20.5 -6.5t-30.5 -26.5t-46 -56.5t-67 -97.5q-21 -15 -49 -15q-35 0 -97 38q-63 39 -97 39q-67 0 -136 -98h17q73 0 153 -56q81 -57 81 -127v-704q6 40 64 40q15 0 26.5 -7t20 -18t13 -25t4.5 -28q0 -41 -68 -118q-64 -67 -64 -112v-4q-14 43 -99 110
t-85 97v726l4 75q0 125 -97 125q-8 0 -14 -0.5t-11 -1.5q10 91 66 183q68 113 143 113q34 0 64.5 -11t58.5 -28t53.5 -38l50.5 -41l39 36l38 37q52 45 89 45q120 0 185 -41q61 -38 113 -150q16 67 120 129q97 57 171 57q249 0 323 -87l34 18.5t38 18.5q124 57 178 57
q222 0 322 -55q44 49 70 123q30 79 30 138q0 31 -17 76q-16 49 -51 49q-15 0 -55 -21q-38 -21 -70 -21q-56 0 -81 42q-28 37 -28 83q0 26 14.5 48.5t38 38.5t53 25t60.5 9q116 0 187 -83q61 -73 61 -184zM1579 -391q0 -129 -201 -196q-149 -47 -311 -47q-118 0 -281 36
q-76 15 -159.5 38.5t-174.5 55.5q-265 94 -265 155q0 91 25 91q19 0 19 -34q0 -88 370 -152q292 -54 470 -54q64 0 120.5 7.5t113.5 20.5q160 42 160 129q0 92 -115 92q-39 0 -81 -15q-49 -19 -49 -61q12 -23 12 -32q0 -30 -66 -30q-40 0 -74 34t-34 73q0 68 91 99
q64 24 150 24q123 0 197 -54q83 -63 83 -180zM486 215q0 56 -47 56q-11 0 -22 -4.5t-20.5 -11.5t-15.5 -16t-6 -18v-162q2 20 53 66q58 51 58 90z" />
    <glyph glyph-name="Rcaron" horiz-adv-x="2437" 
d="M2367 1678q0 -208 -170 -348q32 -41 32 -101v-1229h-200v1115q0 91 -50 153q-56 55 -156 66q-51 -6 -138 -45q-22 -21 -39.5 -33.5l-28.5 -20.5q2 -10 2 -14v-1218h-187v1103q0 91 -44 153q-49 73 -137 73q-85 0 -176 -45q-106 -52 -106 -131v-1156h-188v1202
q0 62 -27 106q-29 56 -87 56q-9 0 -20.5 -6.5t-30 -26.5t-46 -57t-67.5 -98q-23 -14 -49 -14q-35 0 -97 38q-63 39 -97 39q-67 0 -136 -99h17q74 0 153 -55q81 -59 81 -127v-704q6 40 64 40q15 0 26.5 -7t20 -18.5t13 -25.5t4.5 -27q0 -41 -68 -118q-64 -70 -64 -113v-4
q-14 43 -99 111q-85 66 -85 96v727l4 74q0 126 -97 126q-16 0 -25 -3q10 92 66 184q68 113 143 113q34 0 64.5 -11.5t58.5 -29t53.5 -38l50.5 -39.5q18 13 37.5 33t40.5 39t43 32.5t45 13.5q120 0 185 -41q60 -37 113 -151q16 67 120 129q97 58 171 58q250 0 323 -88
q17 10 34 19t38 18q122 58 178 58q218 0 322 -56q44 50 70 123q30 79 30 139q0 32 -17 75q-17 50 -51 50q-15 0 -55 -22q-38 -20 -70 -20q-56 0 -81 42q-28 37 -28 83q0 25 14.5 47.5t38 38.5t53 25.5t60.5 9.5q116 0 187 -83q61 -73 61 -185zM486 216q0 55 -47 55
q-11 0 -22 -4.5t-20.5 -11t-15.5 -15.5t-6 -18v-162q2 20 53 66q58 51 58 90z" />
    <glyph glyph-name="rcaron" unicode="&#x178a;" horiz-adv-x="1083" 
d="M883 1237l3 -25q0 -90 -79 -172q-113 -110 -313 -110q-176 0 -297 93q-99 81 -99 164q0 74 50 142q55 79 142 79q130 0 130 -81q0 -117 -45 -117q-15 0 -28 15q-93 0 -93 -58q0 -54 72 -106q73 -54 168 -54q140 0 181 65q21 28 21 111v188q38 11 62.5 19t35.5 13
q49 20 89 65v-231zM883 0q-46 48 -110.5 100t-152.5 112q-91 60 -173 106t-157 80v-398q-17 52 -87 105q-51 35 -75.5 53.5t-26.5 19.5v734q34 -41 88 -63q14 -11 101 -30v-372q121 -45 221 -98t185 -113v583q72 20 98 32q26 11 48 28t41 39v-918z" />
    <glyph glyph-name="Sacute" 
d="M-197 -711h-188v426q0 76 -75 100q-41 12 -138 12q-202 0 -202 -103v-237q1 9 7.5 17t16 14t20 9.5t19.5 3.5q29 0 47 -24.5t18 -54.5q0 -46 -67 -101q-65 -59 -65 -101v-4q-14 45 -101 97q-84 43 -84 75v329q0 90 179 113q46 6 251 6q362 0 362 -128v-449zM-689 -550
q0 60 -48 60q-11 0 -22 -4.5t-20 -12.5t-15 -18t-6 -20v-130q0 22 55 56q56 32 56 69z" />
    <glyph glyph-name="sacute" 
d="M-197 -1367h-188v375q0 78 -75 101q-41 12 -138 12q-202 0 -202 -103v-187q1 9 7.5 17t16 14t20 9.5t19.5 3.5q29 0 47 -24.5t18 -54.5q0 -46 -67 -101q-65 -59 -65 -101v-4q-14 45 -101 98q-84 43 -84 74v280q0 89 179 113q46 6 251 6q362 0 362 -128v-400zM-689 -1206
q0 60 -48 60q-11 0 -22 -4.5t-20 -12t-15 -17.5t-6 -20v-131q0 22 55 55q56 32 56 70z" />
    <glyph glyph-name="Tcedilla" horiz-adv-x="1684" 
d="M1459 1329q32 -41 32 -100v-1229h-200v1114q0 92 -50 154q-55 55 -156 65q-51 -6 -138 -45l-64 -42l3 -34q0 -90 -79 -172q-113 -110 -313 -110q-176 0 -297 93q-99 81 -99 164q0 74 50 142q55 79 142 79q130 0 130 -81q0 -117 -45 -117q-15 0 -28 15q-93 0 -93 -58
q0 -54 72 -106q73 -54 168 -54q140 0 181 65q21 28 21 111v208q72 20 98 32q49 19 89 65v-153q9 4 16.5 9.5t17.5 8.5q124 57 178 57q222 0 322 -55zM883 0q-46 48 -110.5 100t-152.5 112q-91 60 -173 106t-157 80v-398q-17 52 -87 105q-51 35 -75.5 53.5t-26.5 19.5v734
q34 -41 88 -63q14 -11 101 -30v-372q121 -45 221 -98t185 -113v583q72 20 98 32q26 11 48 28t41 39v-918z" />
    <glyph glyph-name="tcedilla" horiz-adv-x="1684" 
d="M1630 1678q0 -208 -171 -349q32 -41 32 -100v-1229h-200v1114q0 92 -50 154q-55 55 -156 65q-51 -6 -138 -45l-64 -42l3 -34q0 -90 -79 -172q-113 -110 -313 -110q-176 0 -297 93q-99 81 -99 164q0 74 50 142q55 79 142 79q130 0 130 -81q0 -117 -45 -117q-15 0 -28 15
q-93 0 -93 -58q0 -54 72 -106q73 -54 168 -54q140 0 181 65q21 28 21 111v208q72 20 98 32q49 19 89 65v-153q9 4 16.5 9.5t17.5 8.5q124 57 178 57q222 0 322 -55q44 49 70 123q30 79 30 138q0 31 -17 76q-16 49 -51 49q-15 0 -55 -21q-38 -21 -70 -21q-56 0 -81 42
q-27 37 -27 83q0 26 14 48.5t37 38.5t53 25t62 9q115 0 186 -83q62 -74 62 -184zM883 0q-46 48 -110.5 100t-152.5 112q-91 60 -173 106t-157 80v-398q-17 52 -87 105q-51 35 -75.5 53.5t-26.5 19.5v734q34 -41 88 -63q14 -11 101 -30v-372q121 -45 221 -98t185 -113v583
q72 20 98 32q26 11 48 28t41 39v-918z" />
    <glyph glyph-name="Tcaron" unicode="&#x178b;" horiz-adv-x="1186" 
d="M1190 1436q0 -235 -186 -235q-14 0 -33 2t-47 6l-44.5 5.5t-33.5 2.5q-87 0 -131 -71q10 2 21 3t22 1q78 0 139 -26q82 -34 82 -97v-787q0 -117 -147 -187q-120 -53 -250 -53q-127 0 -245 57q-140 71 -140 186v897q-40 -34 -73 -34q-55 0 -55 70q0 43 64 116
q64 67 64 113v3q15 -43 101 -111t86 -96v-1003q0 -82 60 -125q55 -39 138 -39q87 0 142 37q66 42 66 123v787l6 65q0 81 -85 81q-8 0 -16.5 -1t-19.5 -2q2 29 92 139l19 23q85 108 95 122q64 -69 143 -69q111 0 111 113q0 93 -62 93q-13 0 -55 -44q-37 -43 -97 -43
q-45 0 -80 38q-34 37 -34 84q0 56 53 98q46 36 106 36q224 0 224 -278zM197 1159v164q-2 -16 -58 -69q-53 -51 -53 -87q0 -49 38 -49q29 0 73 41z" />
    <glyph glyph-name="tcaron" 
d="M-193 -205q0 -18 -6.5 -34.5t-17 -29t-24.5 -19.5t-29 -7q-14 0 -30 9q16 -63 16 -122q0 -98 -50 -196q-56 -114 -130 -114q-40 0 -110 58q-74 62 -88 108l-28 -50l-27 -45q-38 -62 -93 -62q-65 0 -111 70q-49 64 -49 146q0 20 1 48.5t2 68.5q-86 23 -86 81q0 54 49 94
q46 42 91 42q19 0 39 -6t37 -17.5t28 -28t11 -37.5v-43q55 5 118 17t135 28q205 46 205 87q0 12 -7.5 16t-7.5 6q0 22 28 38q20 11 43 11q91 0 91 -117zM-343 -384q0 64 -54 117q-210 -85 -403 -109q0 -159 59 -159q44 0 107 66l32 33l34 36l1 -6q4 -37 59 -75
q49 -37 85 -37q80 0 80 134zM-863 -262q0 48 -20 48q-30 0 -30 -38q0 -47 50 -49v39z" />
    <glyph glyph-name="Uring" 
d="M-193 -917q0 -17 -6.5 -32t-17 -26.5t-24.5 -18t-29 -6.5q-13 0 -30 10q16 -60 16 -116q0 -89 -50 -180q-55 -107 -130 -107q-40 0 -110 56q-72 56 -88 97l-28 -44l-27 -42q-38 -57 -93 -57q-65 0 -111 64q-49 62 -49 136q0 19 1 44t2 62q-86 21 -86 77q0 50 49 89
q49 37 91 37q37 0 76 -23q39 -24 39 -61v-41q55 7 118 17.5t135 26.5q205 43 205 81q0 10 -7.5 13.5t-7.5 5.5q0 20 28 35q20 10 43 10q91 0 91 -107zM-343 -1083q0 63 -54 107q-210 -79 -403 -101q0 -144 59 -144q44 0 107 59q15 16 32 32l34 31l1 -3q2 -35 59 -70
q52 -37 85 -37q80 0 80 126zM-844 -969q0 43 -19 43q-30 0 -30 -34q0 -46 49 -47v38z" />
    <glyph glyph-name="uring" horiz-adv-x="1780" 
d="M1554 1329q31 -37 31 -100v-1229h-199v1114q0 92 -50 154q-55 55 -156 65q-2 0 -8 -2q-39 -130 -168 -130q-14 0 -33 2t-47 6l-44.5 5.5t-33.5 2.5q-87 0 -131 -71q10 2 21 3t22 1q78 0 139 -26q82 -34 82 -97v-787q0 -117 -147 -187q-120 -53 -250 -53q-127 0 -245 57
q-140 71 -140 186v897q-40 -34 -73 -34q-55 0 -55 70q0 43 64 116q64 67 64 113v3q15 -43 101 -111t86 -96v-1003q0 -82 60 -125q55 -39 138 -39q87 0 142 37q66 42 66 123v787l6 65q0 81 -85 81q-8 0 -16.5 -1t-19.5 -2q2 29 92 139l19 23q85 108 95 122q64 -69 143 -69
q111 0 111 113q0 93 -62 93q-13 0 -55 -44q-37 -43 -97 -43q-45 0 -80 38q-34 37 -34 84q0 56 53 98q46 36 106 36q224 0 224 -238q0 -18 -1 -33.5t-3 -32.5h4q220 0 323 -55zM197 1159v163q-6 -19 -58 -68q-53 -51 -53 -87q0 -49 38 -49q29 0 73 41z" />
    <glyph glyph-name="Udblacute" horiz-adv-x="1780" 
d="M1724 1678q0 -208 -170 -349q31 -37 31 -100v-1229h-199v1114q0 92 -50 154q-55 55 -156 65q-2 0 -8 -2q-39 -130 -168 -130q-14 0 -33 2t-47 6l-44.5 5.5t-33.5 2.5q-87 0 -131 -71q10 2 21 3t22 1q78 0 139 -26q82 -34 82 -97v-787q0 -117 -147 -187q-120 -53 -250 -53
q-127 0 -245 57q-140 71 -140 186v897q-40 -34 -73 -34q-55 0 -55 70q0 43 64 116q64 67 64 113v3q15 -43 101 -111t86 -96v-1003q0 -82 60 -125q55 -39 138 -39q87 0 142 37q66 42 66 123v787l6 65q0 81 -85 81q-8 0 -16.5 -1t-19.5 -2q2 29 92 139l19 23q85 108 95 122
q64 -69 143 -69q111 0 111 113q0 93 -62 93q-13 0 -55 -44q-37 -43 -97 -43q-45 0 -80 38q-34 37 -34 84q0 56 53 98q46 36 106 36q224 0 224 -238q0 -18 -1 -33.5t-3 -32.5h4q220 0 323 -55q43 47 68 123q30 79 30 138q0 34 -15 76q-18 49 -52 49q-16 0 -55 -21
q-38 -21 -70 -21q-56 0 -81 42q-27 37 -27 83q0 26 14 48.5t37 38.5t53 25t62 9q117 0 186 -83q61 -73 61 -184zM197 1159v163q-6 -19 -58 -68q-53 -51 -53 -87q0 -49 38 -49q29 0 73 41z" />
    <glyph glyph-name="udblacute" unicode="&#x178c;" horiz-adv-x="1083" 
d="M879 -113q0 -107 -59 -187q-65 -89 -168 -89q-72 0 -127 36q-61 37 -61 109q0 33 22.5 58t56.5 25q39 0 49 -22q15 -24 54 -24q48 0 48 105v30q0 8 -0.5 17.5t-1.5 20.5v66q-107 -32 -289 -32q-107 0 -196 47q-109 60 -109 159v346q0 85 137 148l106 40l106 40
t100.5 45.5t88.5 54.5q139 97 139 168q0 175 -131 175q-40 0 -95 -45q-53 -44 -81 -44q-25 0 -93 35q-68 38 -103 38q-15 0 -29 -7.5t-24.5 -19.5t-17 -27.5t-6.5 -30.5q0 -26 20 -44.5t45 -18.5l111 8q16 0 30.5 -6.5t25 -17.5t17 -25.5t6.5 -30.5q0 -42 -41 -68
q-41 -24 -83 -24q-93 0 -163 75q-65 74 -65 170q0 62 81 166q82 102 147 102q34 0 114 -62q79 -64 97 -64q22 0 79 64q57 62 85 62q64 0 121 -88q57 -87 57 -155q0 -119 -31 -174q-26 -43 -119 -130q-127 -121 -289 -176l-5 -2q-89 -30 -96 -36q-53 -30 -53 -85v-301
q0 -105 32 -152q37 -60 138 -60q100 0 168 63q68 65 68 165v342q121 73 187 161v-893z" />
    <glyph glyph-name="Zacute" 
d="M-195 -260q0 -38 -58 -78q-7 -3 -31 -16l-63 -35q-145 -79 -340 -79q-55 0 -76 -10q-28 -16 -28 -58q0 -76 42 -76q161 0 313 76q147 74 239 187v-238q0 -91 -52 -142q-57 -60 -161 -60q-102 0 -102 40q0 39 108 39q21 0 21 40v22q0 5 -0.5 11t-1.5 14v51l-94 -30
l-92 -29q-95 -29 -182 -29q-102 0 -150 18q-75 28 -75 97v43q0 76 134 76h79q14 -1 26 -1.5t22 -0.5h34q62 0 185 33q139 37 139 83q0 6 2 16.5t2 13.5q0 80 -91 80q-32 0 -87 -23q-51 -22 -75 -22q-25 0 -94 26q-67 26 -102 26q-30 0 -53.5 -18.5t-23.5 -46.5
q0 -20 20.5 -36t44.5 -16l148 8q24 0 24 -8q0 -10 -36 -35q-65 -48 -142 -48q-78 0 -118 46q-38 41 -38 107q0 63 79 106q71 38 148 38q37 0 115 -32q76 -33 96 -33q25 0 82 33q56 32 83 32q97 0 143 -40q37 -37 37 -122z" />
    <glyph glyph-name="zacute" 
d="M-195 -951q0 -32 -58 -67q-7 -4 -31 -15l-63 -30q-149 -69 -340 -69q-55 0 -76 -9q-28 -14 -28 -47q0 -68 42 -68q155 0 313 67q140 60 239 161v-206q0 -77 -52 -122q-57 -51 -161 -51q-102 0 -102 32q0 34 108 34q21 0 21 37v18q0 5 -0.5 10.5t-1.5 12.5v40l-94 -24
l-92 -25q-88 -25 -182 -25q-102 0 -150 16q-75 22 -75 84v37q0 65 134 65h34q8 0 19.5 -0.5t25.5 -1.5t26 -1.5t22 -0.5h34q65 0 185 30q139 33 139 74l4 25q0 68 -91 68q-37 0 -87 -20q-51 -19 -75 -19q-25 0 -94 23q-68 21 -102 21q-30 0 -53.5 -15.5t-23.5 -38.5
q0 -18 20.5 -32t44.5 -14l148 7q24 0 24 -5q0 -9 -36 -31q-65 -43 -142 -43q-78 0 -118 41q-38 34 -38 90q0 54 79 92q71 33 148 33q37 0 115 -28q73 -28 96 -28q26 0 82 28t83 28q96 0 143 -34q37 -32 37 -104z" />
    <glyph glyph-name="Zdot" horiz-adv-x="1675" 
d="M1455 1329q32 -41 32 -100v-1229h-200v1114q0 92 -50 154q-55 55 -156 65q-51 -6 -138 -45q-22 -16 -43 -29l-36 -22q15 -42 15 -72q0 -119 -31 -174q-26 -43 -119 -130q-127 -121 -289 -176l-5 -2q-89 -30 -96 -36q-53 -30 -53 -85v-301q0 -105 32 -152q37 -60 138 -60
q100 0 168 63q68 65 68 165v342q121 73 187 161v-893q0 -107 -59 -187q-65 -89 -168 -89q-72 0 -127 36q-61 37 -61 109q0 33 22.5 58t56.5 25q39 0 49 -22q15 -24 54 -24q48 0 48 105v30q0 8 -0.5 17.5t-1.5 20.5v66q-107 -32 -289 -32q-107 0 -196 47q-109 60 -109 159
v346q0 85 137 148l106 40l106 40t100.5 45.5t88.5 54.5q139 97 139 168q0 175 -131 175q-40 0 -95 -45q-53 -44 -81 -44q-25 0 -93 35q-68 38 -103 38q-15 0 -29 -7.5t-24.5 -19.5t-17 -27.5t-6.5 -30.5q0 -26 20 -44.5t45 -18.5l111 8q16 0 30.5 -6.5t25 -17.5t17 -25.5
t6.5 -30.5q0 -42 -41 -68q-41 -24 -83 -24q-93 0 -163 75q-65 74 -65 170q0 62 81 166q82 102 147 102q34 0 114 -62q79 -64 97 -64q22 0 79 64q57 62 85 62q64 0 121 -88q2 -4 4 -7t4 -7q16 10 36.5 21.5l46.5 25.5q124 57 178 57q222 0 322 -55z" />
    <glyph glyph-name="zdot" horiz-adv-x="1678" 
d="M1625 1678q0 -208 -170 -349q32 -41 32 -100v-1229h-200v1114q0 92 -50 154q-55 55 -156 65q-51 -6 -138 -45q-22 -16 -43 -29l-36 -22q15 -42 15 -72q0 -119 -31 -174q-26 -43 -119 -130q-127 -121 -289 -176l-5 -2q-89 -30 -96 -36q-53 -30 -53 -85v-301
q0 -105 32 -152q37 -60 138 -60q100 0 168 63q68 65 68 165v342q121 73 187 161v-893q0 -107 -59 -187q-65 -89 -168 -89q-72 0 -127 36q-61 37 -61 109q0 33 22.5 58t56.5 25q39 0 49 -22q15 -24 54 -24q48 0 48 105v30q0 8 -0.5 17.5t-1.5 20.5v66q-107 -32 -289 -32
q-107 0 -196 47q-109 60 -109 159v346q0 85 137 148l106 40l106 40t100.5 45.5t88.5 54.5q139 97 139 168q0 175 -131 175q-40 0 -95 -45q-53 -44 -81 -44q-25 0 -93 35q-68 38 -103 38q-15 0 -29 -7.5t-24.5 -19.5t-17 -27.5t-6.5 -30.5q0 -26 20 -44.5t45 -18.5l111 8
q16 0 30.5 -6.5t25 -17.5t17 -25.5t6.5 -30.5q0 -42 -41 -68q-41 -24 -83 -24q-93 0 -163 75q-65 74 -65 170q0 62 81 166q82 102 147 102q34 0 114 -62q79 -64 97 -64q22 0 79 64q57 62 85 62q64 0 121 -88q2 -4 4 -7t4 -7q16 10 36.5 21.5l46.5 25.5q124 57 178 57
q222 0 322 -55q44 49 70 123q30 79 30 138q0 31 -17 76q-16 49 -51 49q-15 0 -55 -21q-38 -21 -69 -21q-57 0 -82 42q-28 37 -28 83q0 26 14.5 48.5t38 38.5t53.5 25t61 9q115 0 186 -83q61 -73 61 -184z" />
    <glyph glyph-name="Gamma" unicode="&#x178d;" horiz-adv-x="1778" 
d="M1758 1391q-41 -170 -170 -170q-14 0 -34 2t-47 6q-23 4 -42 6t-35 2q-88 0 -131 -72q10 2 21.5 3t22.5 1q82 0 138 -25q81 -35 81 -98v-1046q-101 102 -281 221q-88 58 -165.5 101.5t-146.5 75.5v-398q0 43 -86 99q-132 87 -158 113q-85 79 -85 182q0 42 52 75
q21 12 40 19t41 7h8v719q0 66 -27 111q-28 58 -87 58q-9 0 -20.5 -6.5t-30 -26.5t-46 -57t-67.5 -98q-23 -14 -49 -14q-35 0 -97 38q-61 40 -97 40q-67 0 -136 -100h17q74 0 153 -55q81 -59 81 -126v-697q6 42 65 42q61 0 61 -78q0 -41 -62 -118q-64 -73 -64 -117h-10
q-10 17 -101 105q-77 74 -77 104v715l4 75q0 125 -97 125q-16 0 -25 -3q11 92 66 185q68 113 143 113q35 0 65 -11.5t57.5 -29t53 -38.5t51.5 -40q20 17 39 35t38 38q52 46 89 46q125 0 208 -66q90 -75 90 -194v-722q94 -37 193.5 -93t211.5 -137v782l6 68q0 81 -86 81
q-7 0 -16 -1t-18 -3q4 36 90 140l82.5 101.5t32.5 43.5q59 -68 148 -68q50 0 145 30zM781 208v245h-23q-78 0 -78 -75q0 -53 49 -108q52 -55 52 -62zM478 247q0 52 -41 52q-11 0 -22 -5t-20 -13t-14.5 -18t-5.5 -20v-166q0 19 51 78q52 58 52 92z" />
    <glyph glyph-name="Theta" horiz-adv-x="494" 
d="M483 1371q-42 -170 -170 -170q-14 0 -34 2t-47 6q-23 4 -42 6t-35 2q-87 0 -131 -71q5 1 11 1.5t14 0.5q64 0 143 -32q99 -41 99 -87v-1754q-87 89 -230 176q-140 88 -258 125v-301q0 28 -73 56q-51 22 -85 38t-49 25q-72 49 -72 121q0 93 85 130q-20 50 -87 50
q-65 0 -109 -50q-57 58 -119 58q-87 0 -87 -122v-40q1 -7 1.5 -12.5t0.5 -9.5v-16q1 9 8 16.5t16.5 13.5t20.5 9t21 3q28 0 45.5 -23.5t17.5 -53.5q0 -40 -67 -95q-66 -54 -66 -96v-3q-15 44 -98 88q-85 43 -85 76v219q0 54 68 81q54 22 117 22q143 0 204 -67q44 56 179 56
q203 0 213 -100q135 -37 299 -156v1488q-2 8 -2 16q0 12 2.5 25t2.5 22q0 81 -88 81h-15h-8t-9 -1q1 26 90 139l20 23q85 108 95 122q58 -66 148 -66q46 0 145 29zM-385 -560v148q-51 -24 -51 -90q0 -40 51 -58zM-680 -532q0 55 -47 55q-20 0 -42 -16t-22 -34v-146
q0 22 56 63q55 37 55 78z" />
    <glyph glyph-name="Phi" horiz-adv-x="494" 
d="M483 1371q-42 -170 -170 -170q-14 0 -34 2t-47 6q-23 4 -42 6t-35 2q-87 0 -131 -71q5 1 11 1.5t14 0.5q64 0 143 -32q99 -41 99 -87v-2436q-87 89 -230 176q-136 84 -258 125v-301q0 28 -73 56q-51 22 -85 38t-49 25q-72 49 -72 121q0 93 85 130q-20 50 -87 50
q-65 0 -109 -50q-57 57 -119 57q-87 0 -87 -122v-40q1 -7 1.5 -12t0.5 -9v-17q1 9 7.5 17t16.5 13.5t21 8.5t21 3q28 0 45.5 -23.5t17.5 -52.5q0 -41 -67 -96q-66 -53 -66 -95v-3q-15 44 -98 88q-85 43 -85 76v219q0 52 68 81q54 22 117 22q143 0 204 -67q43 55 179 55
q202 0 213 -99q135 -37 299 -156v2170q-2 8 -2 16q0 12 2.5 25t2.5 22q0 81 -88 81h-15h-8t-9 -1q1 26 90 139l20 23q85 108 95 122q58 -66 148 -66q46 0 145 29zM-385 -1242v148q-51 -24 -51 -91q0 -41 51 -57zM-680 -1214q0 55 -47 55q-20 0 -42 -16t-22 -33v-147
q0 22 56 63q55 37 55 78z" />
    <glyph glyph-name="alpha" horiz-adv-x="2345" 
d="M2119 1193q15 -8 21 -309t6 -882h-174v1040q0 126 -85 151q-15 4 -39.5 7.5t-53 6.5t-58.5 5t-56.5 3.5t-46 2.5t-27.5 1q-16 0 -46 -5t-64 -14t-67 -20t-55 -23v-2q0 -3 14 -8.5l32 -12l35.5 -12.5t25.5 -10q32 -14 50.5 -29.5t30.5 -36.5v-1046q-101 102 -281 221
q-91 58 -167 101.5t-145 75.5v-398q0 43 -86 99q-67 43 -105.5 71t-52.5 42q-85 79 -85 182q0 42 52 75q21 12 40 19t41 7h8v719q0 27 -6.5 56.5t-20 54.5t-35 41.5t-52.5 16.5q-9 0 -21 -6.5t-31 -27t-46 -57.5t-66 -97q-20 -14 -49 -14q-35 0 -97 38q-61 40 -97 40
q-67 0 -136 -100h17q74 0 153 -55q81 -59 81 -126v-693q6 38 65 38q61 0 61 -78q0 -41 -62 -118q-64 -76 -64 -117h-10q-5 10 -30 36t-71 69q-77 74 -77 104v715l4 75q0 125 -97 125q-21 0 -25 -3q10 96 66 185q68 113 143 113q35 0 65 -11.5t57.5 -29t53 -38.5t51.5 -40
q18 13 37.5 33.5t40.5 39.5t43 32.5t45 13.5q125 0 208 -66q90 -75 90 -194v-722q96 -37 194.5 -93t210.5 -137v820q-16 28 -34 44t-33.5 25l-25.5 14.5t-10 13.5q0 12 27 35l39 32l61 49l68.5 53l140.5 109q24 15 48 17l94 -46.5l57 -26.5t37 -16t35.5 -15.5t52 -26
l86.5 -46.5zM781 453h-23q-78 0 -78 -75q0 -53 49 -108l36 -41.5t16 -20.5v245zM478 247q0 52 -41 52q-11 0 -22 -5t-20 -13t-14.5 -18t-5.5 -20v-162q6 21 51 74q52 61 52 92z" />
    <glyph glyph-name="delta" horiz-adv-x="1083" 
d="M868 1159v-1157h-173v1021q0 123 -85 148q-116 32 -230 32q-136 0 -210 -34l-46.5 -19.5t-26.5 -11.5l-27 -16q-7 -4 -4 -4q78 0 138 -26q57 -25 73 -63v-1705q-34 46 -89 89.5t-127 86.5q-72 45 -136 75.5t-122 49.5v-297q-5 26 -73 51l-85 38.5t-49 25.5
q-72 49 -72 121q0 93 85 130q-20 50 -87 50q-65 0 -109 -50q-57 57 -119 57q-87 0 -87 -122v-39q1 -5 1.5 -10t0.5 -10v-16q1 18 24 27q19 13 42 13q14 0 25.5 -7t20 -18t13 -25t4.5 -27q0 -41 -67 -96q-66 -53 -66 -95v-4q-14 45 -98 89q-85 43 -85 76v219q0 54 68 81
q57 22 117 22q143 0 204 -67q44 56 179 56q203 0 213 -100q139 -39 299 -156v1475q-25 67 -85 79q-7 0 -14.5 -0.5t-17.5 -3.5q6 32 72 88l61.5 47.5l51.5 38.5l49 38l54 42l57 47q25 13 48 15zM-680 -483q0 55 -47 55q-20 0 -42 -16t-22 -34v-138q8 23 56 55q55 37 55 78z
M-385 -512v149q-51 -24 -51 -92q0 -39 51 -57z" />
    <glyph glyph-name="epsilon" horiz-adv-x="1087" 
d="M868 1159v-1157h-173v1021q0 126 -85 148q-16 5 -40.5 9t-53.5 7t-59 5t-56 3.5t-45.5 2.5t-27.5 1q-19 0 -34 -1.5t-32 -4.5t-38 -9l-52 -15h-2l-46.5 -19.5t-26.5 -11.5l-27 -16q-7 -4 -4 -4q78 0 138 -26q57 -25 73 -63h14v-2406q-87 89 -230 176q-72 45 -136 75.5
t-122 49.5v-297q-5 26 -73 51q-52 22 -85 38t-49 26q-72 49 -72 121q0 93 85 130q-19 49 -87 49q-66 0 -109 -49q-57 57 -119 57q-87 0 -87 -123v-39q1 -5 1.5 -10t0.5 -10v-16q2 18 24 28q19 12 42 12q14 0 25.5 -6.5t20 -17.5t13 -24.5t4.5 -28.5q0 -40 -67 -95
q-66 -53 -66 -95v-4q-14 45 -98 89q-85 43 -85 75v220q0 52 68 81q57 22 117 22q142 0 204 -68q43 55 179 55q202 0 213 -98q139 -40 299 -157v2110h-5v67q-18 67 -80 79q-7 0 -14.5 -0.5t-17.5 -3.5q6 32 72 88l64 51l64 47.5l106 80.5l39 34q25 13 48 15l81 -38.5
l52.5 -25l33 -15.5l23.5 -11zM-680 -1185q0 55 -47 55q-20 0 -42 -15q-22 -16 -22 -34v-141q6 26 56 58q55 37 55 77zM-385 -1213v148q-51 -23 -51 -91q0 -39 51 -57z" />
    <glyph glyph-name="sigma" horiz-adv-x="2341" 
d="M2205 1607q0 -210 -150 -348q-6 -5 -11.5 -9t-9.5 -6l19 -11q36 -21 47 -32l19 -8q27 -14 27 -1171h-174v1020q0 123 -85 151q-17 4 -40.5 8t-52.5 6q-8 1 -17 2t-19 3l-38 2q-39 3 -65.5 4t-48.5 1q-20 0 -35.5 -1.5t-32 -5t-37.5 -9.5t-52 -14h-2q-28 -11 -46.5 -19.5
t-26.5 -12.5l-27 -15q-7 -4 -4 -4q77 0 138 -26q61 -29 75 -66h6v-1046q-101 102 -281 221q-88 58 -165.5 101.5t-146.5 75.5v-388q-11 39 -86 89q-132 87 -158 113q-85 79 -85 182q0 42 52 75q21 12 40 19t41 7h8v719q0 66 -27 111q-28 58 -87 58q-9 0 -20.5 -6.5
t-30 -26.5t-46 -57t-67.5 -98q-23 -14 -49 -14q-35 0 -97 38q-61 40 -97 40q-67 0 -136 -100h17q74 0 153 -55q81 -59 81 -126v-693q6 38 65 38q61 0 61 -78q0 -41 -62 -118q-64 -73 -64 -117h-10q-10 17 -101 105q-77 74 -77 104v715l4 75q0 125 -97 125q-16 0 -25 -3
q11 92 66 185q68 113 143 113q35 0 65 -11.5t57.5 -29t53 -38.5t51.5 -40q20 17 39 35t38 38q52 46 89 46q125 0 208 -66q90 -75 90 -194v-722q94 -37 193.5 -93t211.5 -137v820q-18 67 -80 79q-17 0 -32 -4q4 31 72 87l64 51l64.5 49l105.5 80l39 33q21 13 48 17l101 -52
q22 -7 44 -17t45 -23q39 -14 170 -83q0 15 4 30q17 22 32.5 52.5t28.5 70.5q26 80 26 138q0 36 -14 75q-14 50 -45 50q-6 0 -19 -6.5l-29 -14t-33 -14t-30 -6.5q-45 0 -72 41q-23 35 -23 83q0 53 45 86q46 34 101 34q105 0 164 -83q54 -74 54 -183zM781 453h-23
q-78 0 -78 -75q0 -53 49 -108l36 -41.5t16 -20.5v245zM478 247q0 52 -41 52q-11 0 -22 -5t-20 -13t-14.5 -18t-5.5 -20v-162q6 21 51 74q52 58 52 92z" />
    <glyph glyph-name="tau" horiz-adv-x="1087" 
d="M928 1586q0 -209 -150 -348q-5 -4 -10.5 -7.5t-10.5 -5.5l37.5 -24t28.5 -20l19 -8q26 -17 26 -14v-1157h-173v1021q-4 123 -85 150q-17 5 -40.5 8.5t-52.5 5.5q-17 1 -36 6l-38 2q-37 5 -64.5 7t-46.5 1t-36 -3t-33 -5t-39 -9.5t-54 -16.5q-29 -11 -47 -19t-26 -12
l-27 -16l-4 -4q74 0 138 -26q57 -25 73 -63h14v-1733q-90 91 -228 176q-72 43 -136 74t-124 50v-296q-5 23 -73 51q-54 22 -87 37.5t-47 26.5q-72 49 -72 119q0 92 85 132q-22 49 -87 49q-66 0 -109 -49q-57 57 -119 57q-87 0 -87 -123v-40q1 -11 1.5 -20t0.5 -15
q5 18 24 28q25 11 42 11q28 0 45.5 -23.5t17.5 -53.5q0 -40 -68 -96t-65 -97q-13 43 -98 89q-85 45 -85 75v219q0 52 68 81q53 22 117 22q141 0 204 -67q46 55 179 55q202 0 213 -98q134 -38 299 -157v1437h-5v67q-18 67 -80 79q-19 0 -32 -4q6 32 72 88l64 51l65 48.5
l105 79.5l39 34q25 13 48 15l101 -51q49 -15 89 -39q39 -13 170 -83q0 13 4 30q36 43 61 122q26 83 26 138q0 36 -14 76q-16 49 -45 49q-15 0 -49 -21q-35 -21 -62 -21q-47 0 -72 42q-23 38 -23 83q0 52 45 87q46 34 101 34q105 0 164 -83q54 -77 54 -185zM-680 -513
q0 56 -47 56q-20 0 -42 -16t-22 -34v-140q6 22 56 57q55 39 55 77zM-385 -540v148q-51 -23 -51 -91q0 -41 51 -57z" />
    <glyph glyph-name="phi" horiz-adv-x="1087" 
d="M928 1586q0 -209 -150 -348q-6 -3 -11.5 -7t-9.5 -6l19 -13l29 -17.5t18 -13.5l19 -8q26 -14 26 -1171h-173v1021q0 123 -85 150q-17 5 -40.5 8.5t-52.5 5.5q-17 1 -36 6l-38 2q-39 2 -66 3t-49 1q-18 0 -33.5 -1.5t-32.5 -4.5t-38.5 -9l-51.5 -15h-2l-46.5 -19.5
t-26.5 -11.5l-27 -16q-7 -4 -4 -4q77 0 138 -26q57 -25 73 -63h14v-2396q-85 88 -230 177q-133 83 -258 124v-297q-5 26 -73 52q-51 21 -85 37t-49 26q-72 49 -72 120q0 94 85 131q-20 50 -87 50q-65 0 -109 -50q-57 58 -119 58q-87 0 -87 -123v-40q1 -5 1.5 -10t0.5 -10
v-15q4 19 24 28q20 11 42 11q28 0 45.5 -23.5t17.5 -53.5q0 -40 -67 -95q-66 -54 -66 -95v-4q-15 45 -98 90q-85 43 -85 74v220q0 52 68 81q54 22 117 22q143 0 204 -67q43 55 179 55q202 0 213 -99q135 -37 299 -156v2099h-5v67q-18 67 -80 79q-7 0 -14.5 -0.5t-17.5 -3.5
q6 32 72 88l64 51l64 47.5l106 80.5l39 34q19 12 48 15l101 -51q46 -14 89 -39q21 -8 63.5 -28.5t106.5 -54.5q0 3 1 11t3 19q36 43 61 122q26 81 26 138q0 37 -14 76q-13 49 -45 49q-6 0 -19 -6.5l-29 -14.5t-33 -14.5t-30 -6.5q-47 0 -72 42q-23 38 -23 83q0 52 45 87
q46 34 101 34q105 0 164 -83q54 -77 54 -185zM-680 -1175q0 55 -47 55q-20 0 -42 -15q-22 -16 -22 -34v-140q6 22 56 57q55 37 55 77zM-385 -1203v149q-51 -24 -51 -91q0 -40 51 -58z" />
    <glyph glyph-name="underscoredbl" unicode="&#x178e;" horiz-adv-x="2273" 
d="M2087 0h-189v1212q0 80 -57 125q-53 38 -137 38q-212 0 -212 -163v-1212q-48 51 -119 105.5t-171 115.5q-88 57 -168 100t-155 77v-398q-15 55 -83 99q-97 69 -104 79v1034q0 80 -58 125q-53 38 -137 38t-143 -38q-68 -44 -68 -125v-941q7 42 63 42q15 0 27 -7t20.5 -18
t13 -25t4.5 -27q0 -44 -69 -119q-63 -71 -63 -113v-4q-16 46 -103 115q-81 63 -81 93v959q0 116 148 186q116 55 251 55t244 -55q138 -68 138 -186v-720q115 -45 219 -102.5t207 -127.5v950q0 116 148 186q116 55 251 55q137 0 243 -55q140 -68 140 -186v-1167zM397 234
q0 57 -48 57q-20 0 -42 -16q-21 -17 -21 -33v-172q0 27 53 75q58 51 58 89z" />
    <glyph glyph-name="exclamdbl" 
d="M-5 -749h-163v459q0 91 -58 119q-39 18 -126 18q-85 0 -117 -20q-51 -29 -51 -117v-459h-162q-40 75 -127 130q-91 59 -113 100l-120.5 -135t-138.5 -142v506q0 88 -57 117q-38 20 -123 20q-172 0 -172 -79v-295q2 44 55 44q12 0 22.5 -7.5t18 -19t11.5 -26t4 -29.5
q0 -45 -59 -122q-56 -77 -56 -121v-4q-12 45 -87 117q-75 70 -75 102v313q0 113 135 148q52 15 213 15q158 0 208 -15q124 -34 124 -148v-307l121 135q3 -6 13.5 -14.5t26 -19.5t34.5 -23l39 -25l36.5 -27t34.5 -27q32 -29 32 -50v358q0 167 301 167h29q8 0 17.5 -0.5
t20.5 -1.5h49q260 0 260 -165v-469zM-1438 -565q0 59 -41 59q-19 0 -36.5 -17t-17.5 -36v-174q0 23 48 76q47 53 47 92z" />
    <glyph glyph-name="nsuperior" 
d="M-5 -1348h-163v370q0 71 -58 96q-42 13 -126 13q-86 0 -117 -15q-51 -24 -51 -94v-370h-162q-20 31 -52 57t-75 49q-90 45 -113 78q-113 -105 -259 -223v409q0 70 -57 94q-37 15 -123 15q-172 0 -172 -63v-238q2 35 55 35q25 0 40.5 -20.5t15.5 -44.5q0 -37 -59 -99
q-56 -62 -56 -97v-4q-12 38 -87 95q-75 58 -75 83v252q0 92 135 120q49 10 213 10q162 0 208 -10q124 -28 124 -120v-247l121 108q11 -10 40.5 -27.5t78.5 -42.5q78 -39 97 -80v289q0 133 301 133h47q9 0 20 -1h49q260 0 260 -132v-378zM-1438 -1200q0 48 -41 48
q-9 0 -19 -3.5t-17.5 -10t-12.5 -14t-5 -15.5v-140q0 19 48 60q47 43 47 75z" />
    <glyph glyph-name="peseta" horiz-adv-x="2862" 
d="M2642 1329q32 -41 32 -100v-1229h-200v1114q0 93 -49 154q-55 55 -157 65q-51 -6 -138 -45l-60 -50q17 -37 17 -71v-1167h-189v1212q0 80 -57 125q-53 38 -137 38q-212 0 -212 -163v-1212q-48 51 -119 105.5t-171 115.5q-88 57 -168 100t-155 77v-398q-15 55 -83 99
q-97 69 -104 79v1034q0 80 -58 125q-53 38 -137 38t-143 -38q-68 -44 -68 -125v-939q10 40 63 40q15 0 27 -7t20.5 -18t13 -25t4.5 -27q0 -44 -69 -119q-63 -71 -63 -113v-4q-16 46 -103 115q-81 63 -81 93v959q0 116 148 186q116 55 251 55t244 -55q138 -68 138 -186v-720
q115 -45 219 -102.5t207 -127.5v950q0 116 148 186q116 55 251 55q137 0 243 -55q44 -18 70 -45q16 10 36.5 20.5l46.5 24.5q124 57 178 57q220 0 323 -55zM397 234q0 57 -48 57q-20 0 -42 -16q-21 -17 -21 -33v-169q2 26 53 72q58 51 58 89z" />
    <glyph glyph-name="IJ" horiz-adv-x="2862" 
d="M2812 1678q0 -208 -170 -349q32 -41 32 -100v-1229h-200v1114q0 93 -49 154q-55 55 -157 65q-51 -6 -138 -45l-60 -50q17 -37 17 -71v-1167h-189v1212q0 80 -57 125q-53 38 -137 38q-212 0 -212 -163v-1212q-48 51 -119 105.5t-171 115.5q-88 57 -168 100t-155 77v-398
q-15 55 -83 99q-97 69 -104 79v1034q0 80 -58 125q-53 38 -137 38t-143 -38q-68 -44 -68 -125v-939q10 40 63 40q15 0 27 -7t20.5 -18t13 -25t4.5 -27q0 -44 -69 -119q-63 -71 -63 -113v-4q-16 46 -103 115q-81 63 -81 93v959q0 116 148 186q116 55 251 55t244 -55
q138 -68 138 -186v-720q115 -45 219 -102.5t207 -127.5v950q0 116 148 186q116 55 251 55q137 0 243 -55q44 -18 70 -45q16 10 36.5 20.5l46.5 24.5q124 57 178 57q220 0 323 -55q43 48 69 123q30 79 30 138q0 37 -16 76q-18 49 -52 49q-15 0 -55 -21q-38 -21 -69 -21
q-56 0 -81 42q-28 37 -28 83q0 26 14 48.5t37.5 38.5t53 25t61.5 9q117 0 186 -83q61 -73 61 -184zM397 234q0 57 -48 57q-20 0 -42 -16q-21 -17 -21 -33v-169q2 26 53 72q58 51 58 89z" />
    <glyph glyph-name="ij" unicode="&#x178f;" horiz-adv-x="1083" 
d="M919 1250q7 6 16 6q12 0 12 -18q0 -34 -32 -107q-34 -70 -46 -70q-18 0 -122 89q-104 90 -107 90q-18 0 -87 -60l-53.5 -45.5t-25.5 -18.5h-3q-27 0 -217 103q-102 -66 -102 -85q0 -8 49 -24q51 -18 51 -36q0 -7 -6 -11q-11 -23 -15 -23l-2 2q-17 21 -90 42
q-70 18 -70 28q0 37 79 170q79 136 102 136q15 0 143 -61q133 -62 142 -62q12 0 89 62q79 61 83 61q6 0 107 -89q94 -79 103 -79h2zM881 10h-187v853q0 42 -14.5 72.5t-40.5 51t-62 30.5t-78 10q-88 0 -144 -38q-67 -43 -67 -126v-592q0 7 5.5 14.5t15 13.5t21.5 10t24 4
q60 0 60 -77q0 -39 -62 -119q-64 -73 -64 -117h-10q-10 15 -36 42.5t-71 68.5q-72 67 -72 99v607q0 113 143 184q121 60 257 60q139 0 252 -60q130 -69 130 -184v-807zM388 249q-9 40 -39 40q-23 0 -42 -19t-19 -36v-166q0 15 53 83q50 59 50 89z" />
    <glyph glyph-name="napostrophe" 
d="M-197 -671h-188v424q0 113 -194 113q-221 0 -221 -115v-236q1 9 7.5 17t16 14t20 9.5t19.5 3.5q30 0 47.5 -25.5t17.5 -55.5q0 -42 -67 -102q-65 -57 -65 -98v-4q-17 49 -99 95q-86 44 -86 77v329q0 127 339 127q206 0 263 -6q190 -24 190 -119v-448zM-689 -522
q0 59 -48 59q-11 0 -22 -4.5t-20 -12t-15 -17.5t-6 -20v-130q0 19 55 53q56 36 56 72z" />
    <glyph glyph-name="minute" 
d="M-197 -1384h-188v405q0 113 -194 113q-221 0 -221 -115v-217q1 9 7.5 17t16 14t20 9.5t19.5 3.5q30 0 47.5 -25.5t17.5 -55.5q0 -42 -67 -102q-65 -57 -65 -98v-4q-17 49 -99 95q-86 44 -86 77v309q0 127 339 127q206 0 263 -6q190 -22 190 -119v-428zM-689 -1235
q0 59 -48 59q-11 0 -22 -5t-20 -12.5t-15 -17t-6 -18.5v-131q0 19 55 53q56 36 56 72z" />
    <glyph glyph-name="second" horiz-adv-x="1671" 
d="M909 10h-187v853q0 42 -14.5 72.5t-40.5 51t-62 30.5t-78 10q-88 0 -144 -38q-67 -43 -67 -126v-592q0 7 5.5 14.5t15 13.5t21 10t23.5 4q61 0 61 -77q0 -40 -63 -119q-63 -75 -63 -117h-11q-10 17 -36.5 44.5t-69.5 66.5q-72 67 -72 99v607q0 113 143 184q121 60 257 60
q139 0 252 -60q130 -69 130 -184v-807zM416 249q-9 40 -39 40q-23 0 -42 -19t-19 -36v-166q0 15 53 83q49 58 49 89zM1396 1318q71 -125 71 -222v-1090h-198v1032q0 106 -30 163.5t-102 70.5q-33 10 -56 10h-10q-117 -6 -198 -75l-64 -48l-44 -19l-46 -6q-28 2 -63.5 11.5
t-80.5 25.5q-5 0 -74 28q-28 10 -45.5 15.5t-25.5 6.5q-10 2 -24 4t-33 4t-33 3t-24 1q-121 -24 -159 -74q-11 -17 -11 -25v-5q36 -8 57.5 -14.5t29.5 -10.5q13 -6 102 -6l-34 -50q-39 -27 -66 -27q-21 0 -40 16q-38 22 -69.5 38t-56.5 27q11 71 160 184q152 113 225 113
q111 0 188 -74q73 -73 133 -73q217 147 374 147q132 0 211 -55z" />
    <glyph glyph-name="afii61248" horiz-adv-x="1671" 
d="M909 10h-187v853q0 42 -14.5 72.5t-40.5 51t-62 30.5t-78 10q-88 0 -144 -38q-67 -43 -67 -126v-592q0 7 5.5 14.5t15 13.5t21 10t23.5 4q61 0 61 -77q0 -40 -63 -119q-63 -75 -63 -117h-11q-10 17 -36.5 44.5t-69.5 66.5q-72 67 -72 99v607q0 113 143 184q121 60 257 60
q139 0 252 -60q130 -69 130 -184v-807zM416 249q-9 40 -39 40q-23 0 -42 -19t-19 -36v-166q0 15 53 83q49 58 49 89zM1568 1674q0 -218 -172 -356q71 -125 71 -222v-1090h-198v1032q0 106 -30 163.5t-102 70.5q-33 10 -56 10h-10q-117 -6 -198 -75l-64 -48l-44 -19l-46 -6
q-28 2 -63.5 11.5t-80.5 25.5q-5 0 -74 28q-28 10 -45.5 15.5t-25.5 6.5q-10 2 -24 4t-33 4t-33 3t-24 1q-121 -24 -159 -74q-11 -17 -11 -25v-5q36 -8 57.5 -14.5t29.5 -10.5q13 -6 102 -6l-34 -50q-39 -27 -66 -27q-21 0 -40 16q-38 22 -69.5 38t-56.5 27q11 71 160 184
q152 113 225 113q111 0 188 -74q73 -73 133 -73q217 147 374 147q132 0 211 -55q40 34 74 126q27 82 27 142q0 35 -12 76q-19 49 -51 49q-6 0 -20 -6.5l-31.5 -14.5t-35.5 -14.5t-32 -6.5q-50 0 -75 42q-25 34 -25 83q0 52 48 87q46 34 109 34q116 0 177 -85q55 -73 55 -182
z" />
    <glyph glyph-name="afii61289" unicode="&#x1790;" horiz-adv-x="1186" 
d="M969 242q0 -119 -149 -187q-114 -55 -251 -55q-114 0 -234 55q-148 66 -148 160v699l4 75q0 125 -97 125q-8 0 -14 -0.5t-11 -1.5q15 75 149 183q137 113 210 113q101 0 198 -79q98 -77 149 -77q64 0 106 46t42 110q0 -5 -18 54l-2 8q-24 87 -62 87q-13 0 -55 -43
q-41 -44 -96 -44q-47 0 -81 39q-34 37 -34 86q0 25 13 48.5t34 41.5t48 29t55 11q105 0 180 -89q64 -79 64 -228q0 -92 -52 -177q-57 -102 -144 -102q-85 0 -236 51q-148 49 -238 49q-113 0 -175 -89h17q74 0 151 -54q83 -57 83 -129v-763q0 -81 60 -123q49 -37 134 -37
q87 0 142 37q70 46 70 123v546q-26 -26 -66 -26q-23 0 -44 23q-21 24 -21 48q0 44 69 113q65 65 65 109v4q17 -45 104 -113q81 -65 81 -95v-561zM781 782v171q0 -27 -56 -77t-56 -89q0 -55 48 -55q11 0 22.5 4t20.5 10.5t15 15.5t6 20z" />
    <glyph glyph-name="H22073" 
d="M-200 -417q0 -62 -36 -114q-46 -64 -105 -64q-92 0 -180 87l-83.5 78.5t-80.5 78.5q-107 83 -212 83q-99 0 -99 -91q0 -45 28 -79q33 -40 77 -40q28 0 60 18q31 18 31 39q0 2 -2 7.5t-2 9.5q0 17 26 17q33 0 57 -31q24 -32 24 -65q0 -62 -71 -100q-60 -27 -129 -27
q-89 0 -138 61q-50 62 -50 143q0 129 75 176q57 33 204 33q83 0 255 -103q174 -102 239 -102q27 0 53 17q25 16 34 16q25 0 25 -48z" />
    <glyph glyph-name="H18543" 
d="M-202 -1138q0 -63 -36 -115q-42 -63 -100 -63q-83 0 -172 86l-79 78l-77 79q-101 83 -202 83q-95 0 -95 -91q0 -45 28 -79q30 -40 74 -40q24 0 56 18q31 18 31 40q0 2 -2 7t-2 9q0 17 23 17q33 0 55 -31t22 -65q0 -62 -67 -99q-56 -28 -123 -28q-84 0 -130 61
q-48 60 -48 143q0 129 72 176q49 34 194 34q78 0 242 -104q165 -102 228 -102q24 0 50 17t33 17q25 0 25 -48z" />
    <glyph glyph-name="H18551" horiz-adv-x="1767" 
d="M1544 1329q32 -41 32 -100v-1229h-200v1114q0 92 -50 154q-55 55 -156 65q-51 -6 -138 -45q-45 -27 -77 -48t-54 -33q-53 -78 -128 -78q-85 0 -236 51q-148 49 -238 49q-113 0 -175 -89h17q74 0 151 -54q83 -57 83 -129v-763q0 -81 60 -123q49 -37 134 -37q87 0 142 37
q70 46 70 123v546q-26 -26 -66 -26q-23 0 -44 23q-21 24 -21 48q0 44 69 113q65 65 65 109v4q17 -45 104 -113q81 -65 81 -95v-561q0 -119 -149 -187q-114 -55 -251 -55q-114 0 -234 55q-148 66 -148 160v699l4 75q0 125 -97 125q-8 0 -14 -0.5t-11 -1.5q15 75 149 183
q137 113 210 113q101 0 198 -79q98 -77 149 -77q64 0 106 46t42 110q0 53 -20 121q-24 87 -62 87q-13 0 -55 -43q-41 -44 -96 -44q-47 0 -81 39q-34 37 -34 86q0 26 13 49.5t34 41.5t48 28.5t55 10.5q105 0 180 -89q64 -79 64 -287q0 -17 -3 -36.5t-8 -42.5q11 6 21.5 12.5
t22.5 11.5q124 57 178 57q222 0 322 -55zM781 782v168q-2 -26 -56 -74q-56 -50 -56 -89q0 -55 48 -55q11 0 22.5 4t20.5 10.5t15 15.5t6 20z" />
    <glyph glyph-name="H18533" horiz-adv-x="1767" 
d="M1715 1678q0 -208 -171 -349q32 -41 32 -100v-1229h-200v1114q0 92 -50 154q-55 55 -156 65q-51 -6 -138 -45q-45 -27 -77 -48t-54 -33q-53 -78 -128 -78q-85 0 -236 51q-148 49 -238 49q-113 0 -175 -89h17q74 0 151 -54q83 -57 83 -129v-763q0 -81 60 -123
q49 -37 134 -37q87 0 142 37q70 46 70 123v546q-26 -26 -66 -26q-23 0 -44 23q-21 24 -21 48q0 44 69 113q65 65 65 109v4q17 -45 104 -113q81 -65 81 -95v-561q0 -119 -149 -187q-114 -55 -251 -55q-114 0 -234 55q-148 66 -148 160v699l4 75q0 125 -97 125q-8 0 -14 -0.5
t-11 -1.5q15 75 149 183q137 113 210 113q101 0 198 -79q98 -77 149 -77q64 0 106 46t42 110q0 53 -20 121q-24 87 -62 87q-13 0 -55 -43q-41 -44 -96 -44q-47 0 -81 39q-34 37 -34 86q0 26 13 49.5t34 41.5t48 28.5t55 10.5q105 0 180 -89q64 -79 64 -287q0 -17 -3 -36.5
t-8 -42.5q11 6 21.5 12.5t22.5 11.5q124 57 178 57q222 0 322 -55q45 48 70 123q30 79 30 138q0 31 -17 76q-16 49 -51 49q-15 0 -55 -21q-38 -21 -70 -21q-56 0 -81 42q-27 37 -27 83q0 26 14 48.5t37 38.5t53 25t62 9q115 0 186 -83q62 -74 62 -184zM781 782v168
q-2 -26 -56 -74q-56 -50 -56 -89q0 -55 48 -55q11 0 22.5 4t20.5 10.5t15 15.5t6 20z" />
    <glyph glyph-name="openbullet" unicode="&#x1791;" horiz-adv-x="1080" 
d="M927 761q0 -137 -186 -174v-415q0 -61 -64 -113q-68 -59 -176 -59q-328 0 -328 176v455q46 -62 73 -87q16 -14 45 -31.5t68 -43.5v-271q0 -168 112 -168q72 0 72 152v390q-170 6 -308 138q-137 132 -137 287q0 154 75 264q103 147 336 147q218 0 329 -69q97 -58 97 -161
q0 -41 -16 -82q-14 -41 -62 -73q-50 -32 -104 -32q-62 0 -111 42q-35 32 -35 75q0 70 55 70h22q85 0 85 51q0 12 -11 39q-25 42 -70 50q-15 2 -48 3.5t-87 1.5q-106 0 -182 -114q-75 -114 -75 -242q0 -136 79 -233q76 -89 168 -94v130q0 61 53 117q54 55 119 55
q103 0 162 -53q50 -50 50 -128zM779 868q-38 0 -38 -62v-136q97 42 97 121q0 32 -18 54.5t-41 22.5z" />
    <glyph glyph-name="Amacron" 
d="M-197 -774h-130v322q-58 -135 -155 -226q-104 -96 -200 -96q-201 0 -201 316q0 14 51 37q62 26 106 59q44 32 44 100q0 24 -15 24q-2 0 -8 -5.5t-12 -5.5q-8 0 -8 38q0 94 95 94q53 0 53 -56q0 -54 -44 -131q-42 -75 -83 -109q-9 -10 -21 -16.5t-24 -14.5
q-38 -26 -38 -34q0 -41 76 -75q58 -30 99 -30q46 0 81 20q64 36 138 150q80 131 80 232q0 71 43 71h73v-664z" />
    <glyph glyph-name="amacron" 
d="M-197 -1407h-130v289q-29 -60 -67.5 -110.5t-87.5 -91.5q-103 -87 -200 -87q-201 0 -201 284q0 12 51 34q31 11 57.5 23.5t48.5 27.5q44 30 44 89q0 21 -15 21q-2 0 -8 -4t-12 -4q-8 0 -8 33q0 83 95 83q53 0 53 -49q0 -48 -44 -117q-42 -67 -83 -97q-9 -8 -21 -15
t-24 -13q-38 -24 -38 -30q0 -38 76 -68q61 -26 99 -26q46 0 81 18q64 30 138 134q80 117 80 206q0 64 43 64h73v-594z" />
    <glyph glyph-name="Ccircumflex" horiz-adv-x="1701" 
d="M1475 1329q32 -41 32 -100v-1229h-200v1114q0 93 -49 154q-55 55 -157 65q-52 -6 -139 -45q-13 -8 -24 -15.5t-21 -16.5q18 -35 18 -78q0 -41 -16 -82q-14 -41 -62 -73q-50 -32 -104 -32q-62 0 -111 42q-35 32 -35 75q0 70 55 70h22q85 0 85 51q0 12 -11 39
q-25 42 -70 50q-15 2 -48 3.5t-87 1.5q-106 0 -182 -114q-75 -114 -75 -242q0 -136 79 -233q76 -89 168 -94v130q0 61 53 117q54 55 119 55q103 0 162 -53q50 -50 50 -128q0 -137 -186 -174v-415q0 -61 -64 -113q-68 -59 -176 -59q-328 0 -328 176v455q46 -62 73 -87
q16 -14 45 -31.5t68 -43.5v-271q0 -168 112 -168q72 0 72 152v390q-170 6 -308 138q-137 132 -137 287q0 154 75 264q103 147 336 147q218 0 329 -69q8 -4 15 -10t14 -11l30 17t36 18q124 57 178 57q220 0 323 -55zM779 868q-38 0 -38 -62v-136q97 42 97 121q0 32 -18 54.5
t-41 22.5z" />
    <glyph glyph-name="ccircumflex" horiz-adv-x="1701" 
d="M1645 1678q0 -208 -170 -349q32 -41 32 -100v-1229h-200v1114q0 93 -49 154q-55 55 -157 65q-52 -6 -139 -45q-13 -8 -24 -15.5t-21 -16.5q18 -35 18 -78q0 -41 -16 -82q-14 -41 -62 -73q-50 -32 -104 -32q-62 0 -111 42q-35 32 -35 75q0 70 55 70h22q85 0 85 51
q0 12 -11 39q-25 42 -70 50q-15 2 -48 3.5t-87 1.5q-106 0 -182 -114q-75 -114 -75 -242q0 -136 79 -233q76 -89 168 -94v130q0 61 53 117q54 55 119 55q103 0 162 -53q50 -50 50 -128q0 -137 -186 -174v-415q0 -61 -64 -113q-68 -59 -176 -59q-328 0 -328 176v455
q46 -62 73 -87q16 -14 45 -31.5t68 -43.5v-271q0 -168 112 -168q72 0 72 152v390q-170 6 -308 138q-137 132 -137 287q0 154 75 264q103 147 336 147q218 0 329 -69q8 -4 15 -10t14 -11l30 17t36 18q124 57 178 57q220 0 323 -55q43 47 68 123q30 79 30 138q0 34 -15 76
q-19 49 -52 49q-16 0 -56 -21q-38 -21 -68 -21q-56 0 -81 42q-28 37 -28 83q0 26 14 48.5t37.5 38.5t53 25t61.5 9q117 0 185 -83q62 -74 62 -184zM779 868q-38 0 -38 -62v-136q97 42 97 121q0 32 -18 54.5t-41 22.5z" />
    <glyph glyph-name="Cdot" unicode="&#x1792;" horiz-adv-x="1186" 
d="M1006 1240q7 6 16 6q12 0 12 -17q0 -35 -32 -107q-33 -72 -46 -72q-19 0 -122 90q-103 91 -107 91q-16 0 -87 -62q-67 -58 -79 -63h-2q-28 0 -218 103q-221 -50 -217 -69l20 2q59 0 140 -54q91 -58 91 -131v-510q94 -37 192.5 -93t213.5 -137v523q-28 -28 -68 -28
q-45 0 -61 54q-4 13 -4 21q0 39 69 113q67 67 67 107v4q16 -48 99 -111q86 -65 86 -97v-803q-95 96 -264 212q-91 60 -173 106t-157 80v-398q-17 52 -87 105q-47 32 -72 50.5t-29 22.5q0 180 -1 306t-1 211q0 88 -1 141t-1 84q0 32 -1 48.5t-1 30.5v6q-1 109 -91 109
q-5 0 -10.5 -0.5t-10.5 -1.5v2q0 33 118 160q125 134 150 134q12 0 143 -60q133 -62 142 -62q12 0 89 62q79 60 83 60q7 0 107 -88q95 -80 103 -80h2zM781 782v171q0 -21 -54 -75q-58 -52 -58 -89q0 -57 48 -57q12 0 23.5 5t20.5 12.5t14.5 16t5.5 16.5z" />
    <glyph glyph-name="cdot" 
d="M-193 -219q0 -18 -6.5 -35t-17 -30t-24.5 -20.5t-29 -7.5q-14 0 -30 10q16 -65 16 -126q0 -100 -50 -202q-57 -119 -130 -119q-41 0 -106 83q-71 83 -76 83q-2 0 -56 -77q-57 -77 -110 -77q-72 0 -134 65q-62 62 -62 153q0 59 17 121q22 75 66 75h32q5 -1 9.5 -1.5
t9.5 -0.5h15q290 0 508 128q11 8 11 26q0 12 -7.5 16t-7.5 8q0 22 26 36q25 13 45 13q91 0 91 -121zM-323 -430q0 84 -62 140q-239 -93 -431 -93q-54 0 -54 -47q0 -57 50 -95q46 -34 91 -34q40 0 72 68q29 65 38 65t74 -56q61 -54 117 -54q105 0 105 106z" />
    <glyph glyph-name="Emacron" 
d="M-193 -914q0 -18 -6.5 -34t-17 -28t-24.5 -19t-29 -7q-13 0 -30 11q16 -65 16 -119q0 -94 -50 -192q-57 -111 -130 -111q-42 0 -108 79q-66 77 -74 77q-2 0 -56 -72q-56 -74 -110 -74q-73 0 -134 61q-62 62 -62 147q0 57 17 113q22 69 66 69h32q5 -1 9.5 -1.5t9.5 -0.5
h15q290 0 508 122q11 8 11 25q0 11 -7.5 14t-7.5 9q0 19 26 33q25 12 45 12q91 0 91 -114zM-323 -1114q0 81 -62 134q-233 -88 -431 -88q-54 0 -54 -46q0 -51 50 -89q43 -30 91 -30q37 0 72 63q29 62 38 62t74 -53q61 -52 117 -52q105 0 105 99z" />
    <glyph glyph-name="emacron" horiz-adv-x="1772" 
d="M1510 1348q74 -125 74 -223v-1125h-213v1096q0 182 -142 206q-37 10 -62 10h-10q-126 -6 -213 -75l-72 -48l-45 -20l-51 -6q-32 2 -70.5 12t-84.5 26q-7 0 -81 28q-61 19 -77 21q-12 2 -29 4l-34.5 4t-33.5 3.5t-26 1.5q-131 -26 -172 -74q-10 -11 -18.5 -23t-15.5 -26
h15q19 0 43 -6q24 -3 42 -10q44 -17 106 -74l-2 -6q40 -43 40 -87v-510q94 -37 192 -93t213 -137v523q-28 -28 -67 -28q-45 0 -61 54q-4 13 -4 21q0 39 69 113q67 67 67 107v4q16 -49 100 -111q85 -64 85 -97v-803q-95 96 -264 212q-91 60 -173 106t-157 80v-398
q-17 52 -87 105l-72.5 51t-28.5 22v736q-2 2 -6 91q-5 83 -54 101q-9 4 -19.5 5t-19.5 3q-10 0 -20 -2v10q0 14 6 20q31 76 168 174q164 113 244 113q121 0 204 -74q85 -73 144 -73q235 147 403 147q144 0 230 -56zM783 782v166q-5 -23 -53 -70q-58 -52 -58 -89
q0 -57 48 -57q12 0 23.5 5t20 12.5t14 16t5.5 16.5z" />
    <glyph glyph-name="Ebreve" horiz-adv-x="1772" 
d="M1695 1703q0 -217 -185 -355q74 -125 74 -223v-1125h-213v1096q0 182 -142 206q-37 10 -62 10h-10q-126 -6 -213 -75l-72 -48l-45 -20l-51 -6q-32 2 -70.5 12t-84.5 26q-7 0 -81 28q-61 19 -77 21q-12 2 -29 4l-34.5 4t-33.5 3.5t-26 1.5q-131 -26 -172 -74
q-10 -11 -18.5 -23t-15.5 -26h15q19 0 43 -6q24 -3 42 -10q44 -17 106 -74l-2 -6q40 -43 40 -87v-510q94 -37 192 -93t213 -137v523q-28 -28 -67 -28q-45 0 -61 54q-4 13 -4 21q0 39 69 113q67 67 67 107v4q16 -49 100 -111q85 -64 85 -97v-803q-95 96 -264 212
q-91 60 -173 106t-157 80v-398q-17 52 -87 105l-72.5 51t-28.5 22v736q-2 2 -6 91q-5 83 -54 101q-9 4 -19.5 5t-19.5 3q-10 0 -20 -2v10q0 14 6 20q31 76 168 174q164 113 244 113q121 0 204 -74q85 -73 144 -73q235 147 403 147q144 0 230 -56q46 39 81 126q29 82 29 143
q0 43 -13 76q-19 49 -55 49q-15 0 -58 -22q-38 -20 -71 -20q-55 0 -83 42q-28 37 -28 83q0 52 53 87q52 34 119 34q125 0 192 -85q59 -77 59 -183zM783 782v166q-5 -23 -53 -70q-58 -52 -58 -89q0 -57 48 -57q12 0 23.5 5t20 12.5t14 16t5.5 16.5z" />
    <glyph glyph-name="ebreve" unicode="&#x1793;" horiz-adv-x="1083" 
d="M886 0q-52 51 -121 107.5t-160 113.5q-85 58 -162.5 101.5t-150.5 75.5v-398q-14 51 -81 102q-51 37 -77 58t-30 26v544q27 -30 64 -54.5l73 -46.5q51 -35 51 -55v-127q115 -43 213 -97t192 -120v287q0 117 -156 191l-143 67l-144 64q-156 91 -156 239q0 147 133 244
q122 86 268 86q130 0 246 -60q141 -77 141 -193q0 -196 -155 -196q-120 0 -120 129q0 30 41 65q42 36 42 66q0 65 -76 110q-65 38 -134 38q-93 0 -153 -97q-51 -86 -51 -182q0 -145 157 -227l145.5 -57.5l146.5 -59.5q157 -73 157 -200v-544z" />
    <glyph glyph-name="Edot" 
d="M-189 -474q0 -147 -206 -147q-47 0 -47 153q0 23 2 44t6 41q-42 0 -85 -79l-56 -98t-31 -50q-71 -81 -162 -81q-113 0 -195 87q-81 87 -81 221q0 253 253 253l131 -8h226v23h102v-23h115v-111h-115v-61h5q138 0 138 -164zM-266 -444q0 41 -19 51q-9 6 -53 10v-158
q19 0 46 35q26 35 26 62zM-434 -310v61h-289q-45 0 -89 -29q-49 -31 -49 -83q0 -49 37 -86q38 -38 81 -38q89 0 158 83q73 83 87 85z" />
    <glyph glyph-name="edot" 
d="M-189 -1205q0 -147 -206 -147q-47 0 -47 153q0 21 2 42t6 43q-42 0 -85 -79l-56 -98t-31 -51q-71 -81 -162 -81q-113 0 -195 88q-81 87 -81 221q0 253 253 253l131 -8h226v21h102v-21h115v-111h-115v-61h5q138 0 138 -164zM-266 -1176q0 40 -19 52q-9 6 -53 10v-159
q19 0 46 36q26 35 26 61zM-434 -1041v61h-289q-45 0 -89 -29q-49 -31 -49 -83q0 -51 37 -88q38 -38 81 -38q89 0 158 84q73 84 87 85z" />
    <glyph glyph-name="Gcircumflex" horiz-adv-x="1684" 
d="M1461 1329q31 -37 31 -100v-1229h-199v1114q0 92 -50 154q-55 55 -156 65q-51 -6 -138 -45q-24 -17 -45 -30l-38 -23q20 -35 20 -80q0 -196 -155 -196q-120 0 -120 129q0 30 41 65q42 36 42 66q0 65 -76 110q-65 38 -134 38q-93 0 -153 -97q-51 -86 -51 -182
q0 -145 157 -227l145.5 -57.5l146.5 -59.5q157 -73 157 -200v-544q-52 51 -121 107.5t-160 113.5q-85 58 -162.5 101.5t-150.5 75.5v-398q-14 51 -81 102q-51 37 -77 58t-30 26v544q27 -30 64 -54.5l73 -46.5q51 -35 51 -55v-127q115 -43 213 -97t192 -120v287
q0 117 -156 191l-143 67l-144 64q-156 91 -156 239q0 147 133 244q122 86 268 86q130 0 246 -60q46 -26 75 -54q37 28 99 57q123 59 178 59q222 0 322 -55z" />
    <glyph glyph-name="gcircumflex" horiz-adv-x="1684" 
d="M1632 1678q0 -208 -171 -349q31 -37 31 -100v-1229h-199v1114q0 92 -50 154q-55 55 -156 65q-51 -6 -138 -45q-24 -17 -45 -30l-38 -23q20 -35 20 -80q0 -196 -155 -196q-120 0 -120 129q0 30 41 65q42 36 42 66q0 65 -76 110q-65 38 -134 38q-93 0 -153 -97
q-51 -86 -51 -182q0 -145 157 -227l145.5 -57.5l146.5 -59.5q157 -73 157 -200v-544q-52 51 -121 107.5t-160 113.5q-85 58 -162.5 101.5t-150.5 75.5v-398q-14 51 -81 102q-51 37 -77 58t-30 26v544q27 -30 64 -54.5l73 -46.5q51 -35 51 -55v-127q115 -43 213 -97t192 -120
v287q0 117 -156 191l-143 67l-144 64q-156 91 -156 239q0 147 133 244q122 86 268 86q130 0 246 -60q46 -26 75 -54q37 28 99 57q123 59 178 59q222 0 322 -55q45 48 70 123q30 79 30 138q0 31 -17 76q-16 49 -51 49q-16 0 -55 -21q-38 -21 -70 -21q-56 0 -81 42
q-27 37 -27 83q0 26 14 48.5t37 38.5t53 25t62 9q115 0 186 -83q62 -74 62 -184z" />
    <glyph glyph-name="Gdot" unicode="&#x1794;" horiz-adv-x="1186" 
d="M1160 1383q-41 -171 -170 -171q-14 0 -34.5 1.5t-46.5 5.5q-23 4 -42 6t-35 2q-85 0 -131 -70q10 2 21 3t23 1q82 0 138 -25q81 -35 81 -99v-794q0 -117 -140 -188q-109 -55 -245 -55q-129 0 -250 57q-146 71 -146 186v738l6 65q0 79 -85 79h-18h-8t-9 -1q1 26 90 139
l20 23q85 108 95 122q58 -66 148 -66q46 0 145 29q-42 -170 -170 -170q-14 0 -34 2t-47 6q-23 4 -42 6t-35 2q-87 0 -131 -71q15 4 44 4q77 0 138 -26q81 -35 81 -97v-829q0 -164 211 -164q42 0 77.5 10t62 30.5t41 51t14.5 72.5v795l5 66q0 79 -85 79h-17q-5 0 -9 -0.5
t-9 -1.5q2 25 91 138l81.5 99.5t32.5 46.5q60 -69 149 -69q48 0 144 32z" />
    <glyph glyph-name="gdot" horiz-adv-x="494" 
d="M483 1371q-42 -170 -170 -170q-14 0 -34 2t-47 6q-23 4 -42 6t-35 2q-87 0 -131 -71q46 7 76 10t47 3q140 0 140 -126v-1733h-149l-285 245l-287 -245h-159v357q0 31 85 86t100 99v-10q0 -37 67 -83q65 -47 65 -77q0 -23 -17 -42.5t-41 -19.5q-35 0 -70 32v-250l257 208
l246 -208v1589l6 65q0 81 -86 81q-7 0 -15.5 -1t-18.5 -2q1 26 90 139l20 23q85 108 95 122q58 -66 148 -66q46 0 145 29zM-294 -330q0 23 -53 47q-53 21 -57 43v-90q41 -44 72 -44q38 0 38 44z" />
    <glyph glyph-name="Gcedilla" horiz-adv-x="494" 
d="M483 1371q-42 -170 -170 -170q-14 0 -34 2t-47 6q-23 4 -42 6t-35 2q-87 0 -131 -71q46 7 76 10t47 3q140 0 140 -126v-2436h-149l-285 246l-287 -246h-159v359q0 30 85 85t100 98v-9q0 -37 67 -83q65 -47 65 -78q0 -21 -17 -41t-41 -20q-39 0 -70 31v-249l257 208
l246 -208v2291l6 65q0 81 -86 81q-7 0 -15.5 -1t-18.5 -2q1 26 90 139l20 23q85 108 95 122q58 -66 148 -66q46 0 145 29zM-294 -1033q0 24 -53 48q-52 22 -57 43v-91q40 -43 72 -43q38 0 38 43z" />
    <glyph glyph-name="gcedilla" horiz-adv-x="1769" 
d="M1568 0h-198v1048q0 190 -133 266q-39 21 -65 21q-218 0 -395 -201q-112 0 -200 27q-4 2 -23 10.5l-53 23.5q-50 26 -71 26l-112 8q-123 0 -191 -89h19q68 0 159 -58q92 -59 92 -125v-696q0 -103 33 -152q40 -60 149 -60q98 0 158 68q53 62 53 160v342q130 70 202 161
v-893q0 -276 -202 -276q-83 0 -154 34q-89 42 -89 111q0 33 23.5 58t61.5 25q41 0 54 -22q13 -24 55 -24q51 0 51 105v68q-1 13 -1.5 22.5t-0.5 17.5v26q-116 -32 -268 -32q-115 0 -212 49q-115 55 -115 157v704l6 79q0 125 -105 125h-14q-3 0 -6 -0.5t-7 -1.5
q15 70 162 183q149 113 223 113q115 0 188 -73q79 -72 135 -72q217 145 472 145q319 0 319 -302v-1106z" />
    <glyph glyph-name="Hcircumflex" horiz-adv-x="1091" 
d="M842 1173q26 -14 26 -1171h-173v1021q0 123 -85 150q-23 6 -65.5 11t-87 8t-81 5t-48.5 2q-18 0 -33.5 -1.5t-32.5 -4.5t-38.5 -9l-51.5 -15h-2l-46.5 -19.5t-26.5 -11.5l-27 -16q-7 -4 -4 -4q77 0 138 -26q71 -31 79 -79h4v-1734h-149l-285 246l-287 -246h-159v408
q0 30 85 85t100 98v-10q0 -35 67 -83q65 -45 65 -77q0 -21 -17 -41t-41 -20q-39 0 -70 31v-297l257 208l246 -208v1577h-2v67q-18 67 -80 79q-7 0 -14.5 -0.5t-17.5 -3.5q6 32 72 88l64 51l64 47.5l106 80.5l39 34q19 12 48 15zM-294 -302q0 24 -53 47q-48 21 -57 44v-91
q40 -43 72 -43q38 0 38 43z" />
    <glyph glyph-name="hcircumflex" horiz-adv-x="1091" 
d="M842 1173q26 -14 26 -1171h-173v1021q0 123 -85 148q-116 32 -226 32q-122 0 -214 -34l-46.5 -19.5t-26.5 -11.5l-27 -16q-7 -4 -4 -4q77 0 138 -26q71 -31 79 -79h4v-2416h-149l-285 244l-287 -244h-159v397q0 30 85 85t100 99v-10q0 -35 67 -84q65 -45 65 -77
q0 -21 -17 -41t-41 -20q-35 0 -70 32v-288l257 207l246 -207v2260h-2v67q-18 67 -80 79q-7 0 -14.5 -0.5t-17.5 -3.5q6 32 72 88l64 51l64 47.5l106 80.5l39 34q19 12 48 15zM-294 -995q0 23 -53 49q-48 19 -57 43v-92q40 -43 72 -43q38 0 38 43z" />
    <glyph glyph-name="Hbar" horiz-adv-x="1769" 
d="M1649 1684q0 -218 -172 -357q75 -122 75 -221v-1106h-202v1048q0 189 -132 266q-39 21 -145 21q-10 2 -15 2q-17 0 -35.5 -8.5t-39 -22t-42 -31l-43.5 -35.5q-44 -35 -93 -66q-50 -30 -100 -30q-66 0 -128 17q-4 2 -23 10.5l-53 23.5q-50 26 -71 26l-112 8
q-123 0 -191 -89h19q68 0 159 -58q92 -59 92 -125v-696q0 -103 33 -152q40 -60 149 -60q98 0 158 68q53 62 53 160v342q130 70 202 161v-893q0 -276 -202 -276q-83 0 -154 34q-89 42 -89 111q0 33 23.5 58t59.5 25q43 0 56 -22q13 -24 55 -24q51 0 51 105v68
q-1 13 -1.5 22.5t-0.5 17.5v26q-116 -32 -268 -32q-115 0 -212 49q-115 55 -115 157v704l6 79q0 125 -105 125h-14q-3 0 -6 -0.5t-7 -1.5q15 70 162 183q149 113 223 113q115 0 188 -73q79 -72 133 -72q220 145 453 145q134 0 213 -55q39 35 74 127q27 82 27 142
q0 36 -12 75q-20 50 -51 50q-6 -1 -20 -7.5t-31.5 -13.5t-35.5 -13.5t-32 -7.5q-52 0 -77 42q-25 31 -25 83q0 54 49 87t110 33q116 0 177 -85q55 -73 55 -181z" />
    <glyph glyph-name="hbar" horiz-adv-x="1131" 
d="M967 1586q0 -209 -150 -348q-9 -5 -9 -13q0 -9 10 -15.5t23 -12.5l25 -11.5t16 -12.5q26 -14 26 -1171h-174v1021q-4 52 -29 87t-63 56t-86 30t-99 9q-70 0 -135 -11t-110 -25h-2l-46.5 -19.5t-27.5 -11.5l-27 -16q-7 -4 -4 -4q77 0 138 -26q72 -31 80 -79h4v-1713h-149
l-286 245l-287 -245h-158v445q0 30 85 85q86 57 99 100v-10q0 -35 67 -83q66 -47 66 -77q0 -22 -17 -42t-41 -20q-36 0 -71 32v-338l257 208l246 -208v1558h-2v67q-16 67 -79 79q-8 0 -15.5 -0.5t-17.5 -3.5q6 33 73 88l64 50l61.5 47.5l67 52l80.5 63.5q19 12 47 15
q58 -19 96.5 -41l75 -42.5t80.5 -36.5t113 -23q34 43 60 122q26 81 26 138q0 43 -13 76q-15 49 -45 49q-6 0 -19 -6.5l-29 -14.5t-33 -14.5t-31 -6.5q-46 0 -71 42q-23 38 -23 83q0 52 45 87q46 34 101 34q105 0 164 -83q53 -77 53 -185zM-255 -242q0 23 -53 47
q-47 20 -57 44v-91q42 -43 73 -43q37 0 37 43z" />
    <glyph glyph-name="Itilde" horiz-adv-x="1131" 
d="M967 1586q0 -209 -150 -348q-6 -3 -11 -7t-9 -6l18 -13q19 -10 31 -18t17 -13l19 -8q26 -14 26 -1171h-174v1021q0 55 -17 88t-46.5 50.5t-68 23.5t-81.5 8q-35 2 -60 3t-41 2t-28.5 1h-23.5q-18 0 -33.5 -1.5t-32.5 -4.5t-38.5 -9l-51.5 -15h-2l-46.5 -19.5t-27.5 -11.5
l-27 -16q-7 -4 -4 -4q77 0 138 -26q72 -31 80 -79h4v-2406h-149l-286 246l-287 -246h-158v367q0 30 85 85q86 56 99 100v-11q0 -37 67 -83q66 -45 66 -77q0 -21 -17 -41t-41 -20q-36 0 -71 32v-259l257 208l246 -208v2250h-2v67q-16 67 -79 79q-8 0 -15.5 -0.5t-17.5 -3.5
q6 33 73 88l64 50l61.5 47.5l67 52l80.5 63.5q19 12 47 15l115.5 -53l75.5 -35l61 -29.5l71 -36.5q10 -4 19 -9t19 -10q0 3 1 11t3 19q34 43 60 122q26 81 26 138q0 43 -13 76q-15 49 -45 49q-6 0 -19 -6.5l-29 -14.5t-33 -14.5t-31 -6.5q-46 0 -71 42q-23 38 -23 83
q0 52 45 87q46 34 101 34q105 0 164 -83q53 -77 53 -185zM-255 -1014q0 24 -53 48q-46 19 -57 44v-92q42 -44 73 -44q37 0 37 44z" />
    <glyph glyph-name="itilde" unicode="&#x1795;" horiz-adv-x="1186" 
d="M969 0q-52 51 -121 107.5t-160 113.5q-85 58 -162.5 101.5t-150.5 75.5v-398q-16 55 -83 99q-92 66 -105 79v734l4 75q0 127 -97 127q-8 0 -14 -0.5t-11 -1.5q9 69 147 182q139 114 212 114q107 0 198 -79q97 -79 149 -79q64 0 106 47q42 46 42 111q0 49 -18 60
q-29 89 -64 89q-13 0 -55 -43q-38 -44 -96 -44q-47 0 -81 39q-34 37 -34 84q0 25 13.5 48.5t34.5 41.5t48 29t54 11q99 0 180 -88q64 -73 64 -227q0 -94 -52 -179q-57 -102 -144 -102q-113 0 -248 51q-137 51 -226 51q-114 0 -175 -91q8 2 17 2q73 0 151 -54q83 -59 83 -129
v-510q94 -37 192.5 -93t213.5 -137v523q-29 -26 -84 -26q-45 0 -45 62q0 46 67 119q65 71 65 112v4q14 -53 80 -113l53.5 -47.5l51.5 -47.5v-803zM786 791v174q0 -29 -55 -78q-56 -50 -56 -90q0 -55 49 -55q10 0 21 4t20 11t15 16t6 18z" />
    <glyph glyph-name="Imacron" 
d="M-197 -602q0 -55 -69 -85q-54 -23 -117 -23q-142 0 -204 71q-45 -60 -187 -60q-215 0 -215 117v444h189v-421q0 -38 29.5 -60.5t71.5 -22.5q69 0 110 132q56 -140 119 -140q85 0 85 91v218q-17 -44 -63 -44q-30 0 -47.5 25.5t-17.5 55.5q0 42 69 102q63 55 63 98v4
q16 -50 99 -93q85 -46 85 -79v-330zM-385 -296v133q0 -24 -53 -62q-53 -41 -53 -77q0 -57 45 -57q20 0 41 22q20 23 20 41z" />
    <glyph glyph-name="imacron" 
d="M-197 -1294q0 -57 -69 -85q-51 -24 -117 -24q-142 0 -204 71q-45 -60 -187 -60q-215 0 -215 117v415h189v-391q0 -39 29.5 -61t71.5 -22q69 0 110 131q55 -138 119 -138q85 0 85 90v187q-17 -44 -63 -44q-30 0 -47.5 26t-17.5 56q0 41 69 100q63 55 63 100v3
q17 -49 99 -92q85 -49 85 -80v-299zM-385 -1019v133q0 -23 -53 -61q-53 -42 -53 -77q0 -57 45 -57q20 0 41 22q20 23 20 40z" />
    <glyph glyph-name="Ibreve" horiz-adv-x="1769" 
d="M1544 1329q32 -41 32 -100v-1229h-200v1114q0 92 -50 154q-55 55 -156 65q-51 -6 -138 -45q-40 -27 -70.5 -45t-52.5 -33l-6 -3q-53 -80 -130 -80q-113 0 -248 51q-137 51 -226 51q-114 0 -175 -91q8 2 17 2q73 0 151 -54q83 -59 83 -129v-510q94 -37 192.5 -93
t213.5 -137v523q-29 -26 -84 -26q-45 0 -45 62q0 46 67 119q65 71 65 112v4q14 -53 80 -113l53.5 -47.5l51.5 -47.5v-803q-52 51 -121 107.5t-160 113.5q-85 58 -162.5 101.5t-150.5 75.5v-398q-16 55 -83 99q-92 66 -105 79v734l4 75q0 127 -97 127q-8 0 -14 -0.5t-11 -1.5
q9 69 147 182q139 114 212 114q107 0 198 -79q97 -79 149 -79q64 0 106 47q42 46 42 111q0 50 -18 119q-29 89 -64 89q-13 0 -55 -43q-38 -44 -96 -44q-47 0 -81 39q-34 37 -34 84q0 26 13.5 49.5t34.5 41.5t48 28.5t54 10.5q99 0 180 -89q64 -73 64 -285q0 -17 -3 -36.5
t-8 -42.5q11 6 21.5 12.5t22.5 11.5q124 57 178 57q222 0 322 -55zM781 782v168q-4 -28 -56 -74q-56 -50 -56 -89q0 -55 48 -55q11 0 22.5 4t20.5 10.5t15 15.5t6 20z" />
    <glyph glyph-name="ibreve" horiz-adv-x="1769" 
d="M1715 1678q0 -208 -171 -349q32 -41 32 -100v-1229h-200v1114q0 92 -50 154q-55 55 -156 65q-51 -6 -138 -45q-40 -27 -70.5 -45t-52.5 -33l-6 -3q-53 -80 -130 -80q-113 0 -248 51q-137 51 -226 51q-114 0 -175 -91q8 2 17 2q73 0 151 -54q83 -59 83 -129v-510
q94 -37 192.5 -93t213.5 -137v523q-29 -26 -84 -26q-45 0 -45 62q0 46 67 119q65 71 65 112v4q14 -53 80 -113l53.5 -47.5l51.5 -47.5v-803q-52 51 -121 107.5t-160 113.5q-85 58 -162.5 101.5t-150.5 75.5v-398q-16 55 -83 99q-92 66 -105 79v734l4 75q0 127 -97 127
q-8 0 -14 -0.5t-11 -1.5q9 69 147 182q139 114 212 114q107 0 198 -79q97 -79 149 -79q64 0 106 47q42 46 42 111q0 50 -18 119q-29 89 -64 89q-13 0 -55 -43q-38 -44 -96 -44q-47 0 -81 39q-34 37 -34 84q0 26 13.5 49.5t34.5 41.5t48 28.5t54 10.5q99 0 180 -89
q64 -73 64 -285q0 -17 -3 -36.5t-8 -42.5q11 6 21.5 12.5t22.5 11.5q124 57 178 57q222 0 322 -55q45 48 70 123q30 79 30 138q0 31 -17 76q-16 49 -51 49q-15 0 -55 -21q-38 -21 -70 -21q-56 0 -81 42q-27 37 -27 83q0 26 14 48.5t37 38.5t53 25t62 9q115 0 186 -83
q62 -74 62 -184zM781 782v168q-4 -28 -56 -74q-56 -50 -56 -89q0 -55 48 -55q11 0 22.5 4t20.5 10.5t15 15.5t6 20z" />
    <glyph glyph-name="Iogonek" unicode="&#x1796;" horiz-adv-x="1186" 
d="M969 19h-188v1195q0 64 -27 109q-29 60 -87 60q-9 0 -20.5 -6.5t-30 -26.5t-46 -57t-67.5 -98q-23 -14 -49 -14q-35 0 -97 38q-61 40 -97 40q-67 0 -136 -100h17q74 0 153 -55q81 -59 81 -126v-707q1 9 7.5 16.5t16 13.5t20.5 9t20 3q15 0 26.5 -7t20 -18t13 -25t4.5 -27
q0 -42 -68 -119q-64 -70 -64 -113v-4q-14 43 -99 111q-85 67 -85 97v726l4 75q0 125 -97 125q-16 0 -25 -3q11 92 66 185q68 113 143 113q35 0 65 -11.5t57.5 -29t53 -38.5t51.5 -40q20 17 39 35t38 38q52 46 89 46q125 0 208 -66q90 -75 90 -194v-1150zM486 236
q0 55 -47 55q-21 0 -43 -16q-21 -17 -21 -33v-167q0 22 53 70q58 51 58 91z" />
    <glyph glyph-name="iogonek" 
d="M-197 -710h-188v459q0 38 -27.5 60.5t-65.5 22.5q-63 0 -109 -51q-57 60 -119 60q-85 0 -85 -92v-256q1 9 7.5 17t16.5 14t21 9.5t21 3.5q14 0 25.5 -7t20 -18.5t13 -26t4.5 -29.5q0 -42 -67 -102q-66 -57 -66 -98v-4q-15 48 -98 95q-85 43 -85 77v369q0 56 68 86
q54 23 117 23q141 0 204 -72q43 60 179 60q213 0 213 -117v-483zM-680 -544q0 59 -47 59q-11 0 -22.5 -5t-20.5 -12.5t-15 -17t-6 -18.5v-131q0 18 56 53q55 36 55 72z" />
    <glyph glyph-name="Jcircumflex" 
d="M-197 -1373h-188v370q0 37 -27.5 60t-65.5 23q-63 0 -109 -51q-57 59 -119 59q-85 0 -85 -91v-167q1 9 7.5 17t16.5 14t21 9.5t21 3.5q14 0 25.5 -7t20 -18.5t13 -26t4.5 -29.5q0 -42 -67 -102q-66 -57 -66 -98v-4q-15 48 -98 95q-85 43 -85 77v279q0 56 68 85
q51 24 117 24q141 0 204 -71q43 60 179 60q213 0 213 -117v-394zM-680 -1207q0 59 -47 59q-11 0 -22.5 -5t-20.5 -12.5t-15 -17t-6 -18.5v-131q0 20 56 53q55 36 55 72z" />
    <glyph glyph-name="jcircumflex" horiz-adv-x="1769" 
d="M1544 1350q32 -41 32 -102v-1229h-200v1115q0 92 -50 154q-56 56 -156 65q-51 -5 -138 -45q-22 -16 -41.5 -28t-36.5 -21q15 -41 15 -90v-1150h-188v1195q0 64 -27 109q-29 60 -87 60q-9 0 -20.5 -6.5t-30 -26.5t-46 -57t-67.5 -98q-23 -14 -49 -14q-35 0 -97 38
q-61 40 -97 40q-67 0 -136 -100h17q74 0 153 -55q81 -59 81 -126v-705q1 7 7.5 14.5t16 13t20.5 9t20 3.5q15 0 26.5 -7t20 -18t13 -25t4.5 -27q0 -42 -68 -119q-64 -70 -64 -113v-4q-14 43 -99 111q-85 67 -85 97v726l4 75q0 125 -97 125q-16 0 -25 -3q11 92 66 185
q68 113 143 113q35 0 65 -11.5t57.5 -29t53 -38.5t51.5 -40q20 17 39 35t38 38q52 46 89 46q125 0 208 -66q27 -22 38 -40q15 11 36 23.5t49 26.5q122 58 178 58q218 0 322 -56zM486 236q0 55 -47 55q-21 0 -43 -16q-21 -17 -21 -33v-163q2 20 53 66q58 51 58 91z" />
    <glyph glyph-name="Kcedilla" horiz-adv-x="1769" 
d="M1715 1697q0 -208 -171 -347q32 -41 32 -102v-1229h-200v1115q0 92 -50 154q-56 56 -156 65q-51 -5 -138 -45q-22 -16 -41.5 -28t-36.5 -21q15 -41 15 -90v-1150h-188v1195q0 64 -27 109q-29 60 -87 60q-9 0 -20.5 -6.5t-30 -26.5t-46 -57t-67.5 -98q-23 -14 -49 -14
q-35 0 -97 38q-61 40 -97 40q-67 0 -136 -100h17q74 0 153 -55q81 -59 81 -126v-705q1 7 7.5 14.5t16 13t20.5 9t20 3.5q15 0 26.5 -7t20 -18t13 -25t4.5 -27q0 -42 -68 -119q-64 -70 -64 -113v-4q-14 43 -99 111q-85 67 -85 97v726l4 75q0 125 -97 125q-16 0 -25 -3
q11 92 66 185q68 113 143 113q35 0 65 -11.5t57.5 -29t53 -38.5t51.5 -40q20 17 39 35t38 38q52 46 89 46q125 0 208 -66q27 -22 38 -40q15 11 36 23.5t49 26.5q122 58 178 58q218 0 322 -56q45 48 70 122q30 79 30 139q0 31 -17 76q-16 49 -51 49q-15 0 -55 -22
q-37 -19 -70 -19q-55 0 -81 41q-27 37 -27 83q0 26 14 48.5t37 38.5t53 25t62 9q115 0 186 -83q62 -74 62 -185zM486 236q0 55 -47 55q-21 0 -43 -16q-21 -17 -21 -33v-163q2 20 53 66q58 51 58 91z" />
    <glyph glyph-name="kcedilla" unicode="&#x1797;" horiz-adv-x="1186" 
d="M1039 1248q0 -22 -29 -98q-30 -80 -48 -80q-19 0 -123 89q-100 91 -106 91q-16 0 -89 -63q-71 -62 -77 -62q-26 0 -220 104q-103 -61 -103 -85q0 -6 50 -24q51 -18 51 -36q0 -23 -23 -31q-15 19 -87 39q-74 20 -74 30q0 33 80 170t102 137q16 0 143 -62q122 -61 142 -61
q16 0 89 61q77 62 83 62q9 0 101 -83q91 -85 109 -85l8 2q12 3 16 3q5 0 5 -18zM975 19h-189v853q0 83 -56 124t-138 41q-85 0 -144 -38q-67 -43 -67 -127v-872q-32 34 -78.5 68t-107.5 68q-109 58 -115 74q-11 28 -11 53q0 79 66 79q58 0 58 -65v550q0 117 148 186
q124 57 251 57q135 0 244 -55q139 -67 139 -188v-808z" />
    <glyph glyph-name="kgreenlandic" 
d="M-197 -700h-188v449q0 113 -194 113q-212 0 -212 -113v-449q-21 15 -162 60q-126 37 -136 58q-14 30 -14 61q0 74 63 74q57 0 62 -72v292q0 95 183 119q28 4 92 6t167 2q339 0 339 -127v-473z" />
    <glyph glyph-name="Lcedilla" 
d="M-197 -1404h-188v401q0 113 -194 113q-212 0 -212 -113v-401q-21 16 -162 62q-127 37 -136 57q-14 31 -14 61q0 73 63 73q57 0 62 -71v243q0 95 183 119q28 4 92 5.5t167 1.5q339 0 339 -126v-425z" />
    <glyph glyph-name="lcedilla" horiz-adv-x="1731" 
d="M975 19h-189v853q0 83 -56 124t-138 41q-85 0 -144 -38q-67 -43 -67 -127v-872q-32 34 -78.5 68t-107.5 68q-109 58 -115 74q-11 28 -11 53q0 79 66 79q58 0 58 -65v550q0 117 148 186q124 57 251 57q135 0 244 -55q139 -67 139 -188v-808zM1461 1327q71 -122 71 -221
v-1091h-198v1033q0 106 -30 163t-102 71q-33 10 -55 10h-10q-117 -6 -198 -75l-66 -48l-43 -19l-46 -6q-28 2 -63.5 11.5t-80.5 25.5q-4 0 -73 28q-28 10 -45.5 15.5t-25.5 6.5q-10 2 -24.5 3.5l-33.5 3.5t-33 3t-24 1q-122 -23 -159 -73q-11 -17 -11 -25v-4q70 -18 87 -26
q13 -6 103 -6l-34 -49q-40 -28 -68 -28q-20 0 -39 15q-38 22 -70 38.5t-57 27.5q13 70 161 183q152 113 226 113q114 0 187 -73q75 -72 132 -72q217 145 374 145q134 0 213 -55z" />
    <glyph glyph-name="Ncedilla" horiz-adv-x="1731" 
d="M975 19h-189v853q0 83 -56 124t-138 41q-85 0 -144 -38q-67 -43 -67 -127v-872q-32 34 -78.5 68t-107.5 68q-109 58 -115 74q-11 28 -11 53q0 79 66 79q58 0 58 -65v550q0 117 148 186q124 57 251 57q135 0 244 -55q139 -67 139 -188v-808zM1634 1684q0 -217 -173 -357
q71 -122 71 -221v-1091h-198v1033q0 106 -30 163t-102 71q-33 10 -55 10h-10q-117 -6 -198 -75l-66 -48l-43 -19l-46 -6q-28 2 -63.5 11.5t-80.5 25.5q-4 0 -73 28q-28 10 -45.5 15.5t-25.5 6.5q-10 2 -24.5 3.5l-33.5 3.5t-33 3t-24 1q-122 -23 -159 -73q-11 -17 -11 -25
v-4q70 -18 87 -26q13 -6 103 -6l-34 -49q-40 -28 -68 -28q-20 0 -39 15q-38 22 -70 38.5t-57 27.5q13 70 161 183q152 113 226 113q114 0 187 -73q75 -72 132 -72q217 145 374 145q134 0 213 -55q39 36 72 127q28 80 28 142q0 33 -11 75q-21 50 -51 50q-6 -1 -20 -7.5
t-31.5 -13.5t-35.5 -13.5t-32 -7.5q-51 0 -76 42q-26 35 -26 83q0 54 49 87t110 33q115 0 176 -85q56 -74 56 -181z" />
    <glyph glyph-name="ncedilla" unicode="&#x1798;" horiz-adv-x="1186" 
d="M1162 1385q-41 -171 -172 -171q-13 0 -33 1.5t-46 5.5q-25 4 -45 6t-34 2q-85 0 -131 -70q5 1 10.5 1.5t12.5 0.5h23q70 0 136 -23q81 -35 81 -100v-795q0 -117 -140 -188q-109 -55 -245 -55q-129 0 -250 57q-146 71 -146 186v738l6 67q0 79 -85 79h-18q-4 0 -8 -0.5
t-9 -1.5q1 27 90 140l81.5 99.5t33.5 45.5q59 -68 148 -68q55 0 145 31q-42 -170 -170 -170q-29 0 -81 6q-23 4 -42 6t-35 2q-85 0 -131 -69q15 4 44 4q79 0 138 -27q81 -33 81 -98v-829q0 -164 211 -164q42 0 78 10t62 30.5t40.5 51t14.5 72.5v795l5 66q0 81 -85 81
q-7 0 -16.5 -1t-18.5 -3q5 29 92 140q106 130 113 147q64 -70 151 -70q48 0 144 32zM753 750q-41 -159 -129 -159q-33 0 -91 24q-55 26 -81 26q-38 0 -51 -37q10 31 45 79l39 52.5t16 23.5q52 -57 108 -57q31 0 73 18z" />
    <glyph glyph-name="Eng" 
d="M-55 -531q0 -123 -205 -123q-61 0 -93 56q-26 47 -26 111q0 18 4 31q-41 0 -81 -67q-29 -49 -49 -80t-31 -41q-62 -66 -155 -66q-34 0 -70 12.5t-69 33t-60 47.5t-43 56q-7 14 -15.5 39.5t-16.5 65.5q-14 63 -60 85q-15 7 -31 13.5t-33 12.5q154 94 168 94q37 0 81 -72
q40 -67 40 -107t51 -91q49 -49 95 -49q64 0 114 45q16 13 62 83q28 45 53 45h50v265h178v-265q142 0 142 -134zM-132 -508q0 32 -19 44q-5 2 -18 4t-33 4v-131q9 0 21 8t23 20t18.5 26t7.5 25z" />
    <glyph glyph-name="eng" 
d="M-55 -1233q0 -122 -205 -122q-62 0 -93 55q-26 47 -26 111q0 17 4 32q-40 0 -81 -68q-29 -49 -49 -80t-31 -41q-61 -64 -155 -64q-33 0 -69 11.5t-69 32t-60.5 47t-43.5 56.5q-7 14 -15.5 40t-16.5 66q-13 62 -60 85q-15 7 -31 13l-33 12q158 95 168 95q38 0 81 -73
q40 -67 40 -107t51 -91q49 -49 95 -49q64 0 114 45q15 14 62 83q28 46 53 46h50v265h178v-265q142 0 142 -135zM-132 -1210q0 32 -19 44q-11 4 -51 9v-131q9 0 21 8t23 20t18.5 25.5t7.5 24.5z" />
    <glyph glyph-name="Omacron" horiz-adv-x="1744" 
d="M1521 1173q26 -14 26 -1171h-175v1021q-4 54 -28.5 89.5t-62.5 56.5t-86 29.5t-98 8.5q-69 0 -135.5 -12t-111.5 -26h-2l-47 -19.5t-26 -11.5l-28 -16q-7 -4 -4 -4q77 0 138 -26q81 -33 81 -97l-10 -2l12 -4v-746q0 -117 -140 -188q-109 -55 -245 -55q-129 0 -250 57
q-146 71 -146 186v738l6 67q0 79 -85 79h-18q-4 0 -8 -0.5t-9 -1.5q1 27 90 140l81.5 99.5t33.5 45.5q59 -68 148 -68q55 0 145 31q-42 -170 -170 -170q-29 0 -81 6q-23 4 -42 6t-35 2q-85 0 -131 -69q15 4 44 4q79 0 138 -27q81 -33 81 -98v-829q0 -164 211 -164
q42 0 78 10t62 30.5t40.5 51t14.5 72.5v752h-2v67q-19 67 -79 79q-8 0 -16.5 -0.5t-17.5 -3.5q5 32 73 88l63 51q22 15 64.5 47.5l106.5 80.5l39 34q19 12 48 15l79.5 -38.5t52.5 -25l34 -15.5l23 -11zM753 750q-41 -159 -129 -159q-33 0 -91 24q-55 26 -81 26
q-38 0 -51 -37q10 31 45 79l39 52.5t16 23.5q52 -57 108 -57q31 0 73 18z" />
    <glyph glyph-name="omacron" horiz-adv-x="1744" 
d="M1606 1586q0 -209 -151 -348q-6 -3 -11 -7t-9 -6l18 -13q37 -19 47 -31l21 -8q26 -14 26 -1171h-175v1021q0 123 -85 150q-16 5 -39.5 8.5t-53.5 5.5q-15 1 -36 6l-37 2q-40 2 -66.5 3t-48.5 1q-19 0 -34.5 -1.5t-32.5 -4.5t-38 -9l-51 -15h-2l-47 -19.5t-26 -11.5
l-28 -16q-7 -4 -4 -4q77 0 138 -26q81 -33 81 -97l-10 -2l12 -4v-746q0 -117 -140 -188q-109 -55 -245 -55q-129 0 -250 57q-146 71 -146 186v738l6 67q0 79 -85 79h-18q-4 0 -8 -0.5t-9 -1.5q1 27 90 140l81.5 99.5t33.5 45.5q59 -68 148 -68q55 0 145 31
q-42 -170 -170 -170q-29 0 -81 6q-23 4 -42 6t-35 2q-85 0 -131 -69q15 4 44 4q79 0 138 -27q81 -33 81 -98v-829q0 -164 211 -164q42 0 78 10t62 30.5t40.5 51t14.5 72.5v752h-2v67q-19 67 -79 79q-8 0 -16.5 -0.5t-17.5 -3.5q5 32 73 88l63 51q22 15 64.5 47.5l106.5 80.5
l39 34q19 12 48 15l100 -51q46 -14 89 -39q21 -8 63.5 -28.5t106.5 -54.5q0 3 1 11t3 19q36 43 62 122q26 81 26 138q0 40 -15 76q-13 49 -45 49q-6 0 -19 -6.5l-28.5 -14.5t-32.5 -14.5t-31 -6.5q-46 0 -71 42q-24 36 -24 83q0 52 45 87q46 34 102 34q104 0 164 -83
q54 -77 54 -185zM753 750q-41 -159 -129 -159q-33 0 -91 24q-55 26 -81 26q-38 0 -51 -37q10 31 45 79l39 52.5t16 23.5q52 -57 108 -57q31 0 73 18z" />
    <glyph glyph-name="Obreve" unicode="&#x1799;" horiz-adv-x="1680" 
d="M1669 1371q-41 -170 -171 -170q-13 0 -33 2t-48 6q-23 4 -41.5 6t-34.5 2q-88 0 -132 -71q10 2 21 3t23 1q76 0 139 -26q81 -35 81 -97v-784q0 -121 -139 -188q-106 -55 -243 -55q-164 0 -297 91q-133 -91 -297 -91q-127 0 -251 57q-148 67 -148 186v958q0 30 85 96
q82 66 99 111v-9q0 -36 67 -109q65 -71 65 -114q0 -30 -17.5 -54t-47.5 -24q-9 0 -19.5 3t-20 9t-16 13.5t-7.5 16.5v-942q0 -83 68 -127q55 -37 143 -37q42 0 77.5 10t62 30.5t41 51t14.5 72.5v783l5 65q0 81 -85 81q-7 0 -16.5 -1l-18.5 -2q1 26 90 139l21 23
q85 107 94 122q58 -66 149 -66q46 0 144 29q-41 -170 -170 -170q-13 0 -33 2t-48 6q-23 4 -42 6t-35 2q-87 0 -131 -71q10 2 21 3t23 1q77 0 138 -26q81 -35 81 -97v-784q0 -43 17 -81t46 -66.5t67.5 -45t81.5 -16.5q42 0 77.5 10t61.5 30.5t40.5 51t14.5 72.5v783l6 65
q0 81 -85 81q-8 0 -17 -1t-19 -2q2 26 92 139l19 23q85 108 95 122q58 -66 148 -66q47 0 145 29zM397 1173q0 35 -54 88q-55 51 -57 68v-164q0 -19 21 -35q22 -16 42 -16q48 0 48 59z" />
    <glyph glyph-name="obreve" horiz-adv-x="494" 
d="M483 1371q-42 -170 -170 -170q-14 0 -34 2t-47 6q-23 4 -42 6t-35 2q-87 0 -131 -71q74 13 118 13q147 0 147 -128v-1488q0 -119 -140 -188q-110 -56 -243 -56q-129 0 -251 58q-149 68 -149 186v232h188v-179q0 -127 40 -188q46 -75 172 -75q82 0 138 41q55 40 55 123
v1484l6 65q0 81 -86 81q-7 0 -15.5 -1t-18.5 -2q6 33 90 139l20 23q85 108 95 122q58 -66 148 -66q46 0 145 29z" />
    <glyph glyph-name="Rcedilla" horiz-adv-x="494" 
d="M483 1371q-42 -170 -170 -170q-14 0 -34 2t-47 6q-23 4 -42 6t-35 2q-87 0 -131 -71q74 13 118 13q147 0 147 -128v-2202q0 -116 -140 -187q-109 -55 -243 -55q-127 0 -251 57q-149 68 -149 185v194h188v-139q0 -128 40 -189q46 -75 172 -75q82 0 138 41q55 40 55 123
v2197l6 65q0 81 -86 81q-7 0 -15.5 -1t-18.5 -2q6 33 90 139l20 23q85 108 95 122q58 -66 148 -66q46 0 145 29z" />
    <glyph glyph-name="rcedilla" horiz-adv-x="2273" 
d="M2029 1173q26 -14 26 -1171h-174v1021q-4 54 -27 89t-58.5 56t-81.5 29t-95 8q-38 0 -75 -3.5t-71 -8.5t-64 -11.5t-53 -12.5l-46.5 -19.5t-26.5 -11.5l-28 -16q-7 -4 -4 -4q76 0 139 -26q81 -33 81 -97l-10 -2l12 -4v-746q0 -121 -139 -188q-106 -55 -243 -55
q-164 0 -297 91q-133 -91 -297 -91q-127 0 -251 57q-148 67 -148 186v958q0 30 85 96q82 66 99 111v-9q0 -36 67 -109q65 -71 65 -114q0 -30 -17.5 -54t-47.5 -24q-20 0 -39 12q-22 10 -24 26v-938q0 -83 68 -127q55 -37 143 -37q42 0 77.5 10t62 30.5t41 51t14.5 72.5v783
l5 65q0 81 -85 81q-7 0 -16.5 -1l-18.5 -2q1 26 90 139l21 23q85 107 94 122q58 -66 149 -66q46 0 144 29q-41 -170 -170 -170q-13 0 -33 2t-48 6q-23 4 -42 6t-35 2q-87 0 -131 -71q10 2 21 3t23 1q77 0 138 -26q81 -35 81 -97v-784q0 -43 17 -81t46 -66.5t67.5 -45
t81.5 -16.5q42 0 77.5 10t61.5 30.5t40.5 51t14.5 72.5v752h-2v67q-18 67 -79 79q-8 0 -16 -0.5t-18 -3.5q7 31 73 88l64 51l63.5 47.5l106.5 80.5l40 34q19 12 47 15l100 -51q43 -14 90 -39q7 -2 40.5 -18t75.5 -38l81.5 -44.5t57.5 -37.5zM397 1173q0 35 -54 88
q-51 45 -57 64v-160q0 -19 21 -35q22 -16 42 -16q48 0 48 59z" />
    <glyph glyph-name="Scircumflex" horiz-adv-x="1083" 
d="M868 1159v-1157h-173v1021q0 60 -24.5 95t-63.5 53t-88.5 23t-99.5 5h-91q-18 0 -33.5 -1.5t-32.5 -4.5t-38.5 -9l-51.5 -15h-2l-46.5 -19.5t-26.5 -11.5l-27 -16q-7 -4 -4 -4q77 0 138 -26q76 -31 81 -95h2v-1454q0 -121 -138 -188q-110 -56 -243 -56q-129 0 -251 58
q-149 68 -149 186v222h188v-169q0 -127 40 -188q46 -75 172 -75q82 0 138 41q55 40 55 123v1453h-2v67q-18 67 -80 79q-7 0 -14.5 -0.5t-17.5 -3.5q6 32 72 88l64 51l64 47.5l106 80.5l39 34q19 12 48 15z" />
    <glyph glyph-name="scircumflex" horiz-adv-x="1083" 
d="M868 1159v-1157h-173v1021q0 60 -24.5 95t-63.5 53t-88.5 23t-99.5 5h-91q-18 0 -33.5 -1.5t-32.5 -4.5t-38.5 -9l-51.5 -15h-2l-46.5 -19.5t-26.5 -11.5l-27 -16q-7 -4 -4 -4q77 0 138 -26q76 -31 81 -95h2v-2167q0 -121 -138 -187q-110 -56 -243 -56q-129 0 -251 58
q-149 68 -149 185v223h188v-169q0 -127 40 -188q46 -76 172 -76q82 0 138 41q55 40 55 124v2165h-2v67q-18 67 -80 79q-7 0 -14.5 -0.5t-17.5 -3.5q6 32 72 88l64 51l64 47.5l106 80.5l39 34q19 12 48 15z" />
    <glyph glyph-name="Tbar" horiz-adv-x="2273" 
d="M2114 1586q0 -209 -150 -348q-6 -3 -11.5 -7t-8.5 -6l18 -13l29 -17.5t18 -13.5l20 -8q26 -14 26 -1171h-174v1021q0 123 -85 150q-17 5 -40.5 8.5t-53.5 5.5q-15 1 -36 6l-36 2q-40 2 -67 3t-48 1q-20 0 -35.5 -1.5t-32 -4.5t-37.5 -9l-52 -15h-2l-46.5 -19.5
t-26.5 -11.5l-28 -16q-7 -4 -4 -4q76 0 139 -26q81 -33 81 -97l-10 -2l12 -4v-746q0 -121 -139 -188q-106 -55 -243 -55q-164 0 -297 91q-133 -91 -297 -91q-127 0 -251 57q-148 67 -148 186v958q0 30 85 96q82 66 99 111v-9q0 -36 67 -109q65 -71 65 -114q0 -30 -17.5 -54
t-47.5 -24q-20 0 -39 12q-22 10 -24 26v-938q0 -83 68 -127q55 -37 143 -37q42 0 77.5 10t62 30.5t41 51t14.5 72.5v783l5 65q0 81 -85 81q-7 0 -16.5 -1l-18.5 -2q1 26 90 139l21 23q85 107 94 122q58 -66 149 -66q46 0 144 29q-41 -170 -170 -170q-13 0 -33 2t-48 6
q-23 4 -42 6t-35 2q-87 0 -131 -71q10 2 21 3t23 1q77 0 138 -26q81 -35 81 -97v-784q0 -43 17 -81t46 -66.5t67.5 -45t81.5 -16.5q42 0 77.5 10t61.5 30.5t40.5 51t14.5 72.5v752h-2v67q-18 67 -79 79q-8 0 -16 -0.5t-18 -3.5q7 31 73 88l64 51l63.5 47.5l106.5 80.5l40 34
q19 12 47 15l100 -51q43 -14 90 -39q21 -8 63.5 -28.5t106.5 -54.5q0 3 1 11t3 19q36 43 61 122q26 81 26 138q0 43 -13 76q-15 49 -47 49q-6 0 -18.5 -6.5l-28.5 -14.5t-32.5 -14.5t-30.5 -6.5q-46 0 -71 42q-25 34 -25 83q0 53 46 87t101 34q106 0 165 -83q53 -77 53 -185
zM397 1173q0 35 -54 88q-51 45 -57 64v-160q0 -19 21 -35q22 -16 42 -16q48 0 48 59z" />
    <glyph glyph-name="tbar" horiz-adv-x="1083" 
d="M928 1586q0 -209 -150 -348q-6 -3 -11.5 -7t-9.5 -6l19 -13l29 -17.5t18 -13.5l19 -8q26 -14 26 -1171h-173v1021q0 123 -85 150q-17 5 -40.5 8.5t-52.5 5.5q-17 1 -36 6l-38 2q-39 2 -66 3t-49 1q-18 0 -33.5 -1.5t-32.5 -4.5t-38.5 -9l-51.5 -15h-2l-46.5 -19.5
t-26.5 -11.5l-27 -16q-7 -4 -4 -4q77 0 138 -26q76 -31 81 -95h4v-1464q0 -119 -140 -188q-110 -56 -243 -56q-129 0 -251 58q-149 68 -149 186v212h188v-159q0 -127 40 -188q46 -75 172 -75q82 0 138 41q55 40 55 123v1463h-2v67q-18 67 -80 79q-7 0 -14.5 -0.5t-17.5 -3.5
q6 32 72 88l64 51l64 47.5l106 80.5l39 34q19 12 48 15l101 -51q46 -14 89 -39q21 -8 63.5 -28.5t106.5 -54.5q0 3 1 11t3 19q36 43 61 122q26 81 26 138q0 37 -14 76q-13 49 -45 49q-6 0 -19 -6.5l-29 -14.5t-33 -14.5t-30 -6.5q-47 0 -72 42q-23 38 -23 83q0 52 45 87
q46 34 101 34q105 0 164 -83q54 -77 54 -185z" />
    <glyph glyph-name="Utilde" horiz-adv-x="1083" 
d="M928 1586q0 -209 -150 -348q-6 -3 -11.5 -7t-9.5 -6l19 -13l29 -17.5t18 -13.5l19 -8q26 -14 26 -1171h-173v1021q0 123 -85 150q-17 5 -40.5 8.5t-52.5 5.5q-17 1 -36 6l-38 2q-39 2 -66 3t-49 1q-18 0 -33.5 -1.5t-32.5 -4.5t-38.5 -9l-51.5 -15h-2l-46.5 -19.5
t-26.5 -11.5l-27 -16q-7 -4 -4 -4q77 0 138 -26q76 -31 81 -95h4v-2177q0 -118 -140 -187q-110 -56 -243 -56q-129 0 -251 58q-149 68 -149 185v193h188v-139q0 -127 40 -188q46 -76 172 -76q82 0 138 41q55 40 55 124v2175h-2v67q-18 67 -80 79q-7 0 -14.5 -0.5t-17.5 -3.5
q6 32 72 88l64 51l64 47.5l106 80.5l39 34q19 12 48 15l101 -51q46 -14 89 -39q21 -8 63.5 -28.5t106.5 -54.5q0 3 1 11t3 19q36 43 61 122q26 81 26 138q0 37 -14 76q-13 49 -45 49q-6 0 -19 -6.5l-29 -14.5t-33 -14.5t-30 -6.5q-47 0 -72 42q-23 38 -23 83q0 52 45 87
q46 34 101 34q105 0 164 -83q54 -77 54 -185z" />
    <glyph glyph-name="utilde" unicode="&#x179a;" horiz-adv-x="591" 
d="M581 1371q-42 -170 -170 -170q-14 0 -33 2t-47 6q-28 3 -46.5 5.5t-32.5 2.5q-86 0 -130 -71q9 2 20.5 3t22.5 1q80 0 145 -28q74 -35 74 -95v-819q0 -30 -85 -97q-83 -65 -98 -111q0 43 -66 115q-66 73 -66 121q0 29 17.5 53t46.5 24q22 0 41 -14t23 -26v708
q0 89 -18 116q-18 28 -61 28h-19q-14 0 -17 -1q4 33 75 116q102 119 131 168q58 -66 149 -66q42 0 144 29zM197 242q0 7 -5.5 16t-14.5 16t-20.5 12t-23.5 5q-47 0 -47 -59q0 -36 58 -90q47 -47 53 -69v169z" />
    <glyph glyph-name="Umacron" horiz-adv-x="494" 
d="M840 -439q0 -115 -142 -182q-118 -61 -217 -61q-127 0 -251 57q-131 62 -131 141v1465q0 6 3 29q3 22 3 36q0 79 -86 79h-17h-8t-9 -1q2 29 74 116q97 114 131 168q58 -66 148 -66q43 0 145 29q-42 -170 -170 -170q-14 0 -33 2t-46 6q-28 3 -47 5.5t-32 2.5
q-87 0 -131 -71q46 7 76 10t47 3q140 0 140 -126v-1517q0 -41 14.5 -71.5t40 -51.5t61.5 -31.5t78 -10.5q49 0 104 40q68 44 68 125v284h187v-239z" />
    <glyph glyph-name="umacron" horiz-adv-x="494" 
d="M840 -1182q0 -116 -142 -183q-118 -61 -217 -61q-127 0 -251 57q-131 62 -131 141v2209q0 6 3 29q3 22 3 36q0 79 -86 79h-17h-8t-9 -1q2 29 74 116q97 114 131 168q58 -66 148 -66q43 0 145 29q-42 -170 -170 -170q-14 0 -33 2t-46 6q-28 3 -47 5.5t-32 2.5
q-87 0 -131 -71q46 7 76 10t47 3q140 0 140 -126v-2261q0 -39 14.5 -69.5t40 -51.5t61.5 -32t78 -11q49 0 104 40q68 44 68 124v324h187v-278z" />
    <glyph glyph-name="Ubreve" horiz-adv-x="1275" 
d="M1049 1329q32 -41 32 -100v-1229h-200v1114q0 93 -49 154q-55 55 -157 65q-51 -6 -112 -69q-60 -63 -152 -63l-161 16q-84 0 -128 -71q9 2 20.5 3t22.5 1q75 0 136 -26q83 -35 83 -97v-839q0 -30 -83 -95q-90 -70 -100 -112v8q0 39 -66 110q-66 73 -66 120q0 28 18.5 51
t43.5 23q21 0 42 -12q20 -11 24 -28v728l4 65q0 81 -85 81q-8 0 -16 -1t-18 -2q2 26 91 139l80 101t35 44q66 -73 162 -73q16 0 30 1t25 3l17 9q9 5 17 11t18 10l33 16q51 25 96 25q219 0 322 -55zM197 221q0 9 -6 18t-15.5 16t-21 11.5t-21.5 4.5q-49 0 -49 -59
q0 -35 53 -85q53 -52 60 -70v164z" />
    <glyph glyph-name="ubreve" horiz-adv-x="1275" 
d="M1220 1678q0 -208 -171 -349q32 -41 32 -100v-1229h-200v1114q0 93 -49 154q-55 55 -157 65q-51 -6 -112 -69q-60 -63 -152 -63l-161 16q-84 0 -128 -71q9 2 20.5 3t22.5 1q75 0 136 -26q83 -35 83 -97v-839q0 -30 -83 -95q-90 -70 -100 -112v8q0 39 -66 110
q-66 73 -66 120q0 28 18.5 51t43.5 23q21 0 42 -12q20 -11 24 -28v728l4 65q0 81 -85 81q-8 0 -16 -1t-18 -2q2 26 91 139l80 101t35 44q66 -73 162 -73q16 0 30 1t25 3l17 9q9 5 17 11t18 10l33 16q51 25 96 25q219 0 322 -55q43 48 69 123q30 79 30 138q0 37 -16 76
q-18 49 -52 49q-15 0 -55 -21q-38 -21 -69 -21q-56 0 -81 42q-27 37 -27 83q0 26 14 48.5t37 38.5t53 25t62 9q116 0 185 -83q62 -74 62 -184zM197 221q0 9 -6 18t-15.5 16t-21 11.5t-21.5 4.5q-49 0 -49 -59q0 -35 53 -85q53 -52 60 -70v164z" />
    <glyph glyph-name="Uogonek" unicode="&#x179b;" horiz-adv-x="1680" 
d="M1669 1371q-41 -170 -171 -170q-13 0 -33 2t-48 6q-20 4 -38.5 6t-37.5 2q-88 0 -132 -71q10 2 21 3t23 1q78 0 139 -26q81 -35 81 -97v-784q0 -121 -139 -188q-106 -55 -243 -55q-125 0 -252 57q-147 67 -147 186v969q0 80 -58 125q-50 38 -137 38t-143 -38
q-68 -44 -68 -125v-961q6 42 63 42q15 0 27 -7t20.5 -18t13 -25t4.5 -28q0 -43 -69 -118q-63 -69 -63 -112v-4q-14 43 -99 110t-85 97v979q0 116 148 186q114 55 251 55q135 0 244 -55q138 -68 138 -186v-969q0 -164 212 -164q42 0 77.5 10t61.5 30.5t40.5 51t14.5 72.5v783
l6 65q0 81 -85 81q-8 0 -17 -1t-19 -2q8 38 92 139l19 23q42 51 65.5 82t29.5 40q58 -66 148 -66q47 0 145 29zM397 215q0 56 -48 56q-20 0 -42 -16q-21 -15 -21 -34v-166q0 22 53 70q58 51 58 90z" />
    <glyph glyph-name="uogonek" 
d="M-199 -185q-32 -48 -58.5 -101t-48.5 -112l-37 -110.5l-36 -110.5q-57 -128 -134 -128q-75 0 -131 119q-22 57 -45.5 111.5t-45.5 112.5q-59 119 -122 119q-60 0 -60 -153v-24q1 12 7.5 22.5t15.5 18.5t20 12.5t21 4.5q29 0 47 -34q17 -37 17 -74q0 -55 -66 -134
q-66 -77 -66 -132v-7q-17 68 -99 128q-85 60 -85 102v273q0 71 81 112q61 34 129 34q133 0 213 -138q23 -42 45 -105t44 -154q34 -141 60 -141q61 0 61 147q0 11 -0.5 26t-1.5 34t-1.5 30t-0.5 16q0 111 21 183zM-806 -512q0 80 -47 80q-23 0 -43 -23q-21 -23 -21 -49v-176
q0 27 56 74q55 46 55 94z" />
    <glyph glyph-name="Wcircumflex" 
d="M-199 -880q-63 -85 -107 -184l-37 -97l-36 -94q-57 -113 -134 -113q-76 0 -131 103q-22 49 -45.5 96.5t-45.5 98.5q-56 103 -122 103q-60 0 -60 -132v-21q2 21 22.5 35.5t41.5 14.5q29 0 47 -30q17 -32 17 -63q0 -50 -66 -116q-66 -67 -66 -117v-4q-14 55 -99 110
q-85 53 -85 90v237q0 60 81 98q62 28 129 28q132 0 213 -121q46 -69 89 -223q32 -123 60 -123q61 0 61 127q0 10 -0.5 23.5t-1.5 29.5t-1.5 26t-0.5 15q0 95 21 157zM-806 -1163q0 68 -47 68q-24 0 -44 -18.5t-20 -42.5v-152q0 21 56 63q55 39 55 82z" />
    <glyph glyph-name="wcircumflex" horiz-adv-x="2273" 
d="M2055 1159v-1157h-174v1021q0 123 -85 150q-17 5 -40.5 8.5t-53.5 5.5q-15 1 -36 6l-36 2q-40 2 -67 3t-48 1q-20 0 -35.5 -1.5t-32 -4.5t-37.5 -9l-52 -15h-2l-46.5 -19.5t-26.5 -11.5l-28 -16q-7 -4 -4 -4q76 0 139 -26q80 -33 81 -91h2v-758q0 -121 -139 -188
q-106 -55 -243 -55q-128 0 -252 57q-147 67 -147 186v969q0 80 -58 125q-53 38 -137 38t-143 -38q-68 -44 -68 -125v-957q6 38 63 38q15 0 27 -7t20.5 -18t13 -25t4.5 -28q0 -43 -69 -118q-63 -69 -63 -112v-4q-14 43 -99 110t-85 97v979q0 116 148 186q116 55 251 55
t244 -55q138 -68 138 -186v-969q0 -164 212 -164q42 0 77.5 10t61.5 30.5t40.5 51t14.5 72.5v752h-2v67q-18 67 -79 79q-8 0 -16 -0.5t-18 -3.5q7 31 73 88l64 51l63.5 47.5l106.5 80.5l40 34q19 12 47 15l100 -51zM397 215q0 56 -48 56q-20 0 -42 -16q-21 -15 -21 -34v-160
q6 20 53 64q58 51 58 90z" />
    <glyph glyph-name="Ycircumflex" horiz-adv-x="2273" 
d="M2114 1586q0 -209 -150 -348q-6 -3 -11.5 -7t-8.5 -6q28 -16 59 -36t52 -30v-1157h-174v1021q0 55 -17 88t-46 50.5t-68 23.5t-84 8l-36 2q-40 2 -67 3t-48 1q-20 0 -35.5 -1.5t-32 -4.5t-37.5 -9l-52 -15h-2l-46.5 -19.5t-26.5 -11.5l-28 -16q-7 -4 -4 -4q76 0 139 -26
q80 -33 81 -91h2v-758q0 -121 -139 -188q-106 -55 -243 -55q-128 0 -252 57q-147 67 -147 186v969q0 80 -58 125q-53 38 -137 38t-143 -38q-68 -44 -68 -125v-957q6 38 63 38q15 0 27 -7t20.5 -18t13 -25t4.5 -28q0 -43 -69 -118q-63 -69 -63 -112v-4q-14 43 -99 110t-85 97
v979q0 116 148 186q116 55 251 55t244 -55q138 -68 138 -186v-969q0 -164 212 -164q42 0 77.5 10t61.5 30.5t40.5 51t14.5 72.5v752h-2q-10 86 -29 112q-18 28 -50 34q-8 0 -16 -0.5t-18 -3.5q7 31 73 88l64 51q10 7 27 20l42 32.5l59.5 46.5l81.5 63q19 12 47 15l75 -35
t52 -23q15 -9 26.5 -14.5l21 -10l18.5 -8.5t20 -10l52 -26.5t95 -45.5q0 3 1 11t3 19q36 43 61 122q26 81 26 138q0 43 -13 76q-15 49 -47 49q-6 0 -18.5 -6.5l-28.5 -14.5t-32.5 -14.5t-30.5 -6.5q-46 0 -71 42q-25 34 -25 83q0 53 46 87t101 34q106 0 165 -83
q53 -77 53 -185zM397 215q0 56 -48 56q-20 0 -42 -16q-21 -15 -21 -34v-160q6 20 53 64q58 51 58 90z" />
    <glyph glyph-name="ycircumflex" unicode="&#x179c;" horiz-adv-x="600" 
d="M603 1383v-6q0 -10 -3.5 -28t-22.5 -45q-38 -52 -76.5 -77.5t-89.5 -25.5l-161 16q-84 0 -128 -71q9 2 20.5 3t22.5 1q75 0 136 -26q83 -35 83 -97v-839q0 -30 -83 -95q-90 -70 -100 -112v8q0 39 -66 110q-66 73 -66 120q0 28 18.5 51t43.5 23q21 0 42.5 -11.5
t23.5 -30.5v730l4 65q0 81 -85 81q-8 0 -16 -1t-18 -2q2 26 91 139l80 101t35 44q66 -73 162 -73q111 0 111 28q0 19 -8 43.5t-20.5 46.5t-27 37.5t-27.5 15.5q-12 0 -54 -44q-41 -44 -97 -44q-18 0 -34.5 7.5t-29 20.5t-19.5 29t-7 33q0 15 7.5 30t24.5 25q36 30 94 30
q113 0 180 -52q60 -42 60 -158zM197 57v164q0 9 -6 18t-15.5 16t-21 11.5t-21.5 4.5q-49 0 -49 -59q0 -35 53 -85q58 -52 60 -70z" />
    <glyph glyph-name="longs" 
d="M-191 -159q0 -42 -65 -101q39 -56 39 -162q0 -49 -34 -113q-110 -213 -323 -213q-157 0 -283 75q-159 93 -159 267q55 -20 129 -20q122 0 271 55q150 53 253 131q58 45 78 92q1 16 9 36q8 32 12 32q12 0 24.5 -8t23.5 -20t18 -25.5t7 -25.5zM-278 -286l-2 14
l-199.5 -120.5t-105.5 -61.5q-62 -32 -219 -34q5 -98 232 -98q117 0 199 79q95 86 95 221z" />
    <glyph glyph-name="Aringacute" 
d="M-191 -866q0 -38 -65 -92q39 -52 39 -149q0 -43 -34 -104q-108 -196 -323 -196q-157 0 -283 69q-159 85 -159 246q55 -18 129 -18q122 0 271 50q76 26 139 56t114 64q59 41 78 86q2 16 9 33q7 28 12 28q12 0 24.5 -7t23.5 -18t18 -23.5t7 -24.5zM-278 -981l-2 13
l-201.5 -111.5l-103.5 -56.5q-58 -27 -219 -32q4 -90 232 -90q117 0 199 72q95 78 95 205z" />
    <glyph glyph-name="aringacute" horiz-adv-x="1280" 
d="M1053 1329q31 -37 31 -100v-1229h-200v1114q0 93 -49 154q-55 55 -157 65q-48 -6 -120 -38q-52 -94 -145 -94l-160 16q-84 0 -128 -71q9 2 20 3t23 1q75 0 136 -26q83 -35 83 -97v-839q0 -30 -83 -95q-90 -70 -100 -112v8q0 39 -66 110q-67 73 -67 120q0 28 19 51t44 23
q21 0 42.5 -11.5t23.5 -30.5v730l4 65q0 81 -85 81q-8 0 -16 -1t-18 -2q2 26 91 139l80.5 101t34.5 44q64 -73 162 -73h28q7 0 12.5 0.5t10.5 1.5q5 2 10.5 5l10.5 6l19 11t20 10q-4 43 -22 62q-29 75 -61 75q-12 0 -54 -44t-97 -44q-45 0 -81 38q-36 39 -36 85q0 14 48 41
q49 30 105 30q111 0 180 -71q60 -42 60 -118q0 -7 -11 -38q51 25 94 25q219 0 322 -55zM200 221q0 19 -22 34q-22 16 -42 16q-49 0 -49 -59q0 -35 53 -85q52 -52 60 -70v164z" />
    <glyph glyph-name="AEacute" horiz-adv-x="1275" 
d="M1220 1678q0 -208 -171 -349q32 -41 32 -100v-1229h-200v1114q0 93 -49 154q-55 55 -157 65q-47 -6 -121 -38q-51 -94 -143 -94l-161 16q-84 0 -128 -71q9 2 20.5 3t22.5 1q75 0 136 -26q83 -35 83 -97v-839q0 -30 -83 -95q-90 -70 -100 -112v8q0 39 -66 110
q-66 73 -66 120q0 28 18.5 51t43.5 23q21 0 42 -12q20 -11 24 -28v728l4 65q0 81 -85 81q-8 0 -16 -1t-18 -2q2 26 91 139l80 101t35 44q66 -73 162 -73q16 0 30 1t25 3l17 9q9 5 17 11t18 10q4 7 4 14q0 46 -22 67q-29 75 -61 75q-12 0 -54 -43q-41 -44 -97 -44
q-45 0 -81 38q-35 38 -35 46q0 53 48 82q50 29 104 29q111 0 180 -72q60 -41 60 -119q0 -25 -13 -57q51 25 96 25q219 0 322 -55q43 48 69 123q30 79 30 138q0 37 -16 76q-18 49 -52 49q-15 0 -55 -21q-38 -21 -69 -21q-56 0 -81 42q-27 37 -27 83q0 26 14 48.5t37 38.5
t53 25t62 9q116 0 185 -83q62 -74 62 -184zM197 221q0 9 -6 18t-15.5 16t-21 11.5t-21.5 4.5q-49 0 -49 -59q0 -35 53 -85q53 -52 60 -70v164z" />
    <glyph glyph-name="aeacute" unicode="&#x179d;" horiz-adv-x="1080" 
d="M881 0h-187v382l-30 5q-66 17 -101 17q-52 0 -67 -40q5 27 55 89l48 61.5t21 29.5q20 -22 44 -36l30 -4v349q0 82 -56 123t-139 41q-89 0 -144 -37q-67 -43 -67 -127v-602q68 74 126 74q87 0 87 -85q0 -37 -21 -68q-20 -32 -54 -32l-93 38q-63 0 -138 -69
q-61 -56 -96 -128v827q0 116 149 185q124 57 251 57q135 0 244 -55q138 -68 138 -187v-325q34 4 66.5 12.5t66.5 18.5q-34 -130 -133 -154v-360zM947 1229q0 -27 -30 -100q-28 -79 -48 -79q-19 0 -122 90q-103 91 -107 91q-16 0 -89 -64q-67 -61 -77 -61q-30 0 -220 103
q-102 -62 -102 -85q0 -6 49 -24q51 -18 51 -35q0 -24 -23 -32q-15 20 -88 39q-72 19 -72 30q0 37 79 170q79 136 102 136q18 0 143 -60q127 -62 142 -62q12 0 89 62q75 60 83 60q7 0 102 -83q91 -85 108 -85q18 6 24 6t6 -17z" />
    <glyph glyph-name="Oslashacute" 
d="M-197 -741h-188v236l-151 8l-57 107l208 15v186q0 55 -194 55q-221 0 -221 -113v-300q88 61 168 61q101 0 101 -89q0 -39 -19 -70q-19 -34 -56 -34q-9 0 -21.5 7l-29 16t-36.5 16t-44 7q-74 0 -144 -30q-86 -32 -108 -93v533q0 95 189 119q28 4 93 6t171 2
q339 0 339 -127v-133l197 110v-99l-197 -134v-262z" />
    <glyph glyph-name="oslashacute" 
d="M-197 -1387h-188v202l-151 6l-57 93l208 13v125q0 47 -194 47q-221 0 -221 -97v-223q88 53 168 53q101 0 101 -76q0 -34 -19 -60q-19 -30 -56 -30q-9 0 -21.5 6l-29 13.5t-36.5 13.5t-44 6q-74 0 -144 -26q-86 -27 -108 -79v423q0 81 189 102q28 3 93 4.5t171 1.5
q339 0 339 -108v-81l197 95v-84l-197 -116v-224z" />
    <glyph glyph-name="anoteleia" horiz-adv-x="1671" 
d="M1396 1308q71 -125 71 -222v-1089h-198v1032q0 103 -30 161t-102 73q-36 9 -56 9h-10q-117 -6 -198 -75l-64 -47l-44 -21l-46 -5q-27 1 -64 11.5t-80 25.5q-5 0 -74 28q-55 19 -71 21q-10 2 -24 4t-33 4l-33 3.5t-24 1.5q-122 -24 -159 -73q-11 -20 -11 -26v-4
q76 -20 87 -25q13 -7 102 -7l-34 -50q-39 -27 -66 -27q-21 0 -40 16q-38 22 -69.5 38t-56.5 27q11 71 160 184q152 113 225 113q115 0 188 -73q77 -74 133 -74q217 147 374 147q131 0 211 -56zM909 0h-187v421l-30 6q-61 16 -102 16q-51 0 -66 -39q5 27 55 89q32 39 48.5 61
t20.5 29q18 -21 44 -35l30 -4v309q0 42 -14.5 72.5t-41 51t-62 30.5t-77.5 10q-89 0 -144 -37q-67 -43 -67 -127v-602q68 74 126 74q87 0 87 -85q0 -37 -21 -68q-20 -32 -54 -32l-93 38q-63 0 -139 -69q-59 -56 -95 -128v827q0 116 149 185q124 57 251 57q135 0 244 -55
q138 -68 138 -187v-285q34 3 66.5 12l65.5 19q-33 -131 -132 -154v-400z" />
    <glyph glyph-name="Wgrave" horiz-adv-x="1671" 
d="M1568 1664q0 -218 -172 -356q71 -125 71 -222v-1089h-198v1032q0 103 -30 161t-102 73q-36 9 -56 9h-10q-117 -6 -198 -75l-64 -47l-44 -21l-46 -5q-27 1 -64 11.5t-80 25.5q-5 0 -74 28q-55 19 -71 21q-10 2 -24 4t-33 4l-33 3.5t-24 1.5q-122 -24 -159 -73
q-11 -20 -11 -26v-4q76 -20 87 -25q13 -7 102 -7l-34 -50q-39 -27 -66 -27q-21 0 -40 16q-38 22 -69.5 38t-56.5 27q11 71 160 184q152 113 225 113q115 0 188 -73q77 -74 133 -74q217 147 374 147q131 0 211 -56q39 35 74 127q27 82 27 143q0 34 -12 75q-19 49 -51 49
q-6 0 -20 -6.5l-31.5 -14t-35.5 -14t-32 -6.5q-49 0 -75 41q-25 34 -25 83q0 52 48 87q46 34 109 34q116 0 177 -85q55 -73 55 -182zM909 0h-187v421l-30 6q-61 16 -102 16q-51 0 -66 -39q5 27 55 89q32 39 48.5 61t20.5 29q18 -21 44 -35l30 -4v309q0 42 -14.5 72.5t-41 51
t-62 30.5t-77.5 10q-89 0 -144 -37q-67 -43 -67 -127v-602q68 74 126 74q87 0 87 -85q0 -37 -21 -68q-20 -32 -54 -32l-93 38q-63 0 -139 -69q-59 -56 -95 -128v827q0 116 149 185q124 57 251 57q135 0 244 -55q138 -68 138 -187v-285q34 3 66.5 12l65.5 19
q-33 -131 -132 -154v-400z" />
    <glyph glyph-name="wgrave" unicode="&#x179e;" horiz-adv-x="1186" 
d="M1162 1385q-41 -171 -172 -171q-13 0 -33 1.5t-46 5.5q-25 4 -45 6t-34 2q-85 0 -131 -70q5 1 10.5 1.5t12.5 0.5h23q70 0 136 -23q81 -35 81 -100v-517q90 7 192 33q-45 -144 -192 -158v-153q0 -117 -140 -188q-109 -55 -245 -55q-129 0 -250 57q-146 71 -146 186v738
l6 67q0 79 -85 79h-18q-4 0 -8 -0.5t-9 -1.5q1 27 90 140l81.5 99.5t33.5 45.5q59 -68 148 -68q55 0 145 31q-42 -170 -170 -170q-29 0 -81 6q-23 4 -42 6t-35 2q-85 0 -131 -69q15 4 44 4q79 0 138 -27q81 -33 81 -98v-829q0 -164 211 -164q42 0 78 10t62 30.5t40.5 51
t14.5 72.5v219l-70 10q-38 8 -70 12t-58 4q-66 0 -87 -39q7 25 71 89q84 82 89 90q19 -19 55 -35l70 -8v453l5 66q0 81 -85 81q-7 0 -16.5 -1t-18.5 -3q5 29 92 140q106 130 113 147q64 -70 151 -70q48 0 144 32z" />
    <glyph glyph-name="Wacute" horiz-adv-x="494" 
d="M287 26q51 4 102.5 11.5t105.5 21.5q-46 -149 -208 -157v-623h-149l-285 246l-287 -246h-159v359q0 30 85 85t100 98v-9q0 -37 67 -83q65 -47 65 -78q0 -21 -17 -41t-41 -20q-35 0 -70 32v-249l257 208l246 -208v555l-54 6q-77 15 -128 15q-65 0 -87 -39q9 26 72 89
q42 40 63.5 62.5t25.5 27.5q19 -20 54 -36l54 -6v934l6 65q0 81 -86 81q-7 0 -15.5 -1t-18.5 -2q1 26 90 139l20 23q85 108 95 122q58 -66 148 -66q46 0 145 29q-42 -170 -170 -170q-14 0 -34 2t-47 6q-23 4 -42 6t-35 2q-87 0 -131 -71q46 7 76 10t47 3q140 0 140 -126
v-1007zM-294 -351q0 24 -53 48q-51 22 -57 43v-91q40 -43 72 -43q38 0 38 43z" />
    <glyph glyph-name="wacute" horiz-adv-x="494" 
d="M358 -72q52 4 103 11.5t105 22.5q-45 -152 -208 -159l-71 10v-1226h-149l-285 245l-287 -245h-159v348q0 30 85 85t100 99v-10q0 -37 67 -83q65 -47 65 -78q0 -22 -17 -41.5t-41 -19.5q-35 0 -70 32v-239l257 208l246 -208v1159q-65 12 -110 12q-65 0 -87 -40q7 25 71 89
l62 62.5t26 28.5q7 -7 16 -13.5t22 -13.5v1017l6 65q0 81 -86 81q-7 0 -15.5 -1t-18.5 -2q1 26 90 139l20 23q85 108 95 122q58 -66 148 -66q46 0 145 29q-42 -170 -170 -170q-14 0 -34 2t-47 6q-23 4 -42 6t-35 2q-87 0 -131 -71q46 7 76 10t47 3q140 0 140 -126v-1097z
M-294 -1053q0 23 -53 47q-51 22 -57 43v-90q41 -44 72 -44q38 0 38 44z" />
    </font>
</defs>
</svg>
